<svg width="51" height="50" viewBox="0 0 51 50" fill="none" xmlns="http://www.w3.org/2000/svg">
<path d="M26.0833 48.083C15.7493 34.076 10.5833 24.1101 10.5833 18.183C10.5833 13.913 12.2164 9.81794 15.1232 6.7986C18.03 3.77927 21.9725 2.08302 26.0833 2.08302C30.1942 2.08302 34.1367 3.77927 37.0435 6.7986C39.9503 9.81794 41.5833 13.913 41.5833 18.183C41.5833 24.1101 36.4174 34.076 26.0833 48.083ZM26.0833 27.383C28.4324 27.383 30.6852 26.4137 32.3463 24.6884C34.0073 22.9631 34.9405 20.623 34.9405 18.183C34.9405 15.743 34.0073 13.403 32.3463 11.6776C30.6852 9.95231 28.4324 8.98302 26.0833 8.98302C23.7343 8.98302 21.4814 9.95231 19.8204 11.6776C18.1593 13.403 17.2262 15.743 17.2262 18.183C17.2262 20.623 18.1593 22.9631 19.8204 24.6884C21.4814 26.4137 23.7343 27.383 26.0833 27.383Z" fill="#FAAD14"/>
<circle cx="26.0833" cy="17.9991" r="11" fill="white"/>
<path fill-rule="evenodd" clip-rule="evenodd" d="M31.9602 11.6718L31.6941 11.7034L31.7257 11.4373L31.9367 11.4608L31.9602 11.6718ZM28.6725 14.725C28.4064 14.7566 28.4064 14.7564 28.4064 14.7564L28.4063 14.7557L28.4061 14.7543L28.4056 14.7496L28.4041 14.7335C28.4028 14.7198 28.4011 14.7003 28.3992 14.6756C28.3956 14.6261 28.3914 14.5557 28.389 14.469C28.3842 14.2962 28.3864 14.0567 28.4149 13.79C28.4705 13.2692 28.6318 12.5887 29.0948 12.1257C29.5578 11.6627 30.2383 11.5014 30.7591 11.4458C31.0258 11.4173 31.2653 11.4151 31.4381 11.4199C31.5248 11.4223 31.5952 11.4265 31.6447 11.4301C31.6694 11.432 31.6889 11.4337 31.7026 11.435L31.7187 11.4365L31.7234 11.437L31.7248 11.4372L31.7257 11.4373C31.7257 11.4373 31.7257 11.4373 31.6941 11.7034C31.9602 11.6718 31.9602 11.6718 31.9602 11.6718L31.9603 11.6726L31.9604 11.6741L31.9609 11.6787L31.9625 11.6949C31.9638 11.7085 31.9655 11.7281 31.9673 11.7528C31.971 11.8022 31.9752 11.8727 31.9776 11.9593C31.9824 12.1322 31.9802 12.3717 31.9517 12.6384C31.8961 13.1591 31.7347 13.8397 31.2717 14.3026C30.8087 14.7656 30.1282 14.927 29.6075 14.9826C29.3408 15.0111 29.1013 15.0133 28.9284 15.0085C28.8418 15.0061 28.7713 15.0019 28.7219 14.9982C28.6972 14.9964 28.6776 14.9947 28.664 14.9934L28.6478 14.9918L28.6432 14.9914L28.6417 14.9912L28.641 14.9911C28.641 14.9911 28.6409 14.9911 28.6725 14.725ZM28.6725 14.725L28.4064 14.7564L28.4299 14.9676L28.641 14.9911L28.6725 14.725ZM28.925 14.4724C28.9323 14.4727 28.9397 14.4729 28.9473 14.4731C29.1028 14.4774 29.3175 14.4753 29.5545 14.45C30.0411 14.3981 30.5659 14.2539 30.8944 13.9253C31.223 13.5968 31.3672 13.072 31.4191 12.5854C31.4444 12.3484 31.4465 12.1337 31.4422 11.9782C31.442 11.9706 31.4418 11.9632 31.4415 11.9559C31.4343 11.9557 31.4269 11.9555 31.4193 11.9553C31.2638 11.9509 31.0491 11.953 30.8121 11.9783C30.3255 12.0303 29.8007 12.1745 29.4721 12.503C29.1436 12.8316 28.9994 13.3564 28.9474 13.843C28.9221 14.08 28.92 14.2947 28.9244 14.4502C28.9246 14.4578 28.9248 14.4652 28.925 14.4724Z" fill="black" fill-opacity="0.88"/>
<path fill-rule="evenodd" clip-rule="evenodd" d="M26.5494 12.2657L26.3856 12.4627L26.2192 12.239L26.3835 12.1218L26.5494 12.2657ZM26.413 16.9194C26.2492 17.1165 26.2491 17.1164 26.2491 17.1164L26.2485 17.1159L26.2473 17.1148L26.2435 17.1115L26.2304 17.0998C26.2192 17.0898 26.2034 17.0755 26.1836 17.0571C26.1439 17.0202 26.0881 16.967 26.0215 16.8997C25.8887 16.7655 25.7112 16.5734 25.5328 16.342C25.1841 15.8898 24.7953 15.2406 24.7912 14.5615C24.787 13.8824 25.1682 13.2951 25.5116 12.8987C25.6874 12.6959 25.8627 12.5322 25.994 12.4193C26.0598 12.3627 26.115 12.3184 26.1542 12.2879C26.1739 12.2727 26.1895 12.2609 26.2006 12.2527L26.2136 12.2431L26.2174 12.2404L26.2185 12.2395L26.2192 12.239C26.2192 12.239 26.2192 12.239 26.3856 12.4627C26.5494 12.2657 26.5494 12.2657 26.5494 12.2657L26.5501 12.2663L26.5513 12.2673L26.5551 12.2706L26.5682 12.2823C26.5794 12.2923 26.5952 12.3067 26.615 12.3251C26.6547 12.3619 26.7104 12.4151 26.777 12.4824C26.9098 12.6166 27.0874 12.8087 27.2658 13.0401C27.6145 13.4923 28.0032 14.1416 28.0074 14.8207C28.0116 15.4998 27.6304 16.087 27.287 16.4834C27.1112 16.6862 26.9359 16.8499 26.8046 16.9628C26.7387 17.0195 26.6836 17.0637 26.6443 17.0942C26.6247 17.1094 26.609 17.1212 26.598 17.1294L26.585 17.139L26.5812 17.1417L26.58 17.1426L26.5795 17.143C26.5795 17.143 26.5794 17.1431 26.413 16.9194ZM26.413 16.9194L26.2491 17.1164L26.4151 17.2603L26.5795 17.143L26.413 16.9194ZM26.4108 16.5653C26.4197 16.5578 26.4289 16.55 26.4383 16.5418C26.5571 16.4397 26.715 16.2922 26.8721 16.1109C27.1942 15.739 27.4769 15.2661 27.4739 14.7777C27.4709 14.2892 27.1821 13.7702 26.8551 13.3461C26.6956 13.1393 26.5357 12.9662 26.4156 12.8447C26.4061 12.8351 26.3968 12.8258 26.3878 12.8168C26.3789 12.8243 26.3697 12.8322 26.3603 12.8403C26.2415 12.9425 26.0836 13.09 25.9265 13.2712C25.6043 13.6431 25.3217 14.116 25.3247 14.6045C25.3277 15.0929 25.6164 15.6119 25.9435 16.036C26.103 16.2428 26.2628 16.416 26.383 16.5374C26.3925 16.547 26.4018 16.5563 26.4108 16.5653Z" fill="black" fill-opacity="0.88"/>
<path fill-rule="evenodd" clip-rule="evenodd" d="M31.1318 16.8481L30.9348 17.0119L31.1584 17.1783L31.2757 17.014L31.1318 16.8481ZM26.478 16.9845C26.281 17.1483 26.2811 17.1484 26.2811 17.1484L26.2816 17.149L26.2826 17.1502L26.286 17.154L26.2977 17.1671C26.3077 17.1783 26.322 17.1941 26.3404 17.2139C26.3772 17.2536 26.4304 17.3093 26.4977 17.3759C26.632 17.5087 26.8241 17.6863 27.0554 17.8647C27.5076 18.2134 28.1569 18.6021 28.836 18.6063C29.5151 18.6105 30.1023 18.2293 30.4987 17.8859C30.7016 17.7101 30.8652 17.5348 30.9782 17.4035C31.0348 17.3376 31.0791 17.2824 31.1095 17.2432C31.1248 17.2236 31.1366 17.2079 31.1448 17.1969L31.1544 17.1839L31.1571 17.1801L31.1579 17.1789L31.1584 17.1783C31.1584 17.1783 31.1584 17.1783 30.9348 17.0119C31.1318 16.8481 31.1318 16.8481 31.1318 16.8481L31.1312 16.8474L31.1302 16.8462L31.1269 16.8424L31.1152 16.8293C31.1052 16.8181 31.0908 16.8023 31.0724 16.7825C31.0356 16.7428 30.9824 16.687 30.9151 16.6204C30.7808 16.4876 30.5888 16.3101 30.3574 16.1317C29.9052 15.783 29.2559 15.3942 28.5768 15.3901C27.8977 15.3859 27.3105 15.7671 26.9141 16.1105C26.7112 16.2863 26.5476 16.4616 26.4346 16.5929C26.378 16.6587 26.3337 16.7139 26.3033 16.7531C26.288 16.7728 26.2762 16.7884 26.268 16.7995L26.2584 16.8125L26.2557 16.8163L26.2549 16.8174L26.2545 16.818C26.2545 16.818 26.2544 16.8181 26.478 16.9845ZM26.478 16.9845L26.2811 17.1484L26.1371 16.9824L26.2545 16.818L26.478 16.9845ZM26.8322 16.9867C26.8397 16.9778 26.8475 16.9686 26.8556 16.9592C26.9578 16.8404 27.1053 16.6825 27.2866 16.5254C27.6584 16.2032 28.1314 15.9206 28.6198 15.9236C29.1082 15.9266 29.6272 16.2153 30.0514 16.5424C30.2582 16.7018 30.4313 16.8617 30.5527 16.9819C30.5624 16.9914 30.5717 17.0007 30.5806 17.0097C30.5731 17.0186 30.5653 17.0278 30.5572 17.0372C30.455 17.156 30.3075 17.3139 30.1262 17.471C29.7544 17.7931 29.2815 18.0758 28.793 18.0728C28.3046 18.0698 27.7856 17.781 27.3614 17.454C27.1546 17.2945 26.9815 17.1346 26.8601 17.0145C26.8504 17.0049 26.8411 16.9957 26.8322 16.9867Z" fill="black" fill-opacity="0.88"/>
<path fill-rule="evenodd" clip-rule="evenodd" d="M24.0219 14.7932L23.8581 14.9902L23.6917 14.7666L23.856 14.6493L24.0219 14.7932ZM23.8854 19.447C23.7216 19.644 23.7215 19.6439 23.7215 19.6439L23.721 19.6434L23.7198 19.6424L23.716 19.639L23.7028 19.6273C23.6917 19.6174 23.6759 19.603 23.656 19.5846C23.6164 19.5478 23.5606 19.4946 23.494 19.4273C23.3612 19.293 23.1837 19.1009 23.0052 18.8696C22.6566 18.4174 22.2678 17.7681 22.2636 17.089C22.2595 16.4099 22.6406 15.8227 22.9841 15.4263C23.1598 15.2234 23.3352 15.0598 23.4665 14.9468C23.5323 14.8902 23.5875 14.8459 23.6267 14.8155C23.6463 14.8002 23.662 14.7884 23.673 14.7802L23.6861 14.7706L23.6898 14.7679L23.691 14.7671L23.6917 14.7666C23.6917 14.7666 23.6917 14.7666 23.8581 14.9902C24.0219 14.7932 24.0219 14.7932 24.0219 14.7932L24.0225 14.7938L24.0237 14.7948L24.0275 14.7982L24.0407 14.8098C24.0518 14.8198 24.0677 14.8342 24.0875 14.8526C24.1271 14.8894 24.1829 14.9426 24.2495 15.0099C24.3823 15.1442 24.5598 15.3362 24.7383 15.5676C25.0869 16.0198 25.4757 16.6691 25.4799 17.3482C25.4841 18.0273 25.1029 18.6145 24.7594 19.0109C24.5837 19.2138 24.4083 19.3774 24.277 19.4904C24.2112 19.547 24.156 19.5913 24.1168 19.6217C24.0972 19.637 24.0815 19.6488 24.0705 19.657L24.0574 19.6666L24.0537 19.6693L24.0525 19.6701L24.052 19.6705C24.052 19.6705 24.0518 19.6706 23.8854 19.447ZM23.8854 19.447L23.7215 19.6439L23.8875 19.7879L24.052 19.6705L23.8854 19.447ZM23.8833 19.0928C23.8922 19.0853 23.9013 19.0775 23.9108 19.0694C24.0295 18.9672 24.1875 18.8197 24.3445 18.6384C24.6667 18.2666 24.9494 17.7936 24.9464 17.3052C24.9434 16.8168 24.6546 16.2978 24.3275 15.8736C24.1681 15.6668 24.0082 15.4937 23.8881 15.3723C23.8785 15.3626 23.8692 15.3533 23.8602 15.3444C23.8513 15.3519 23.8422 15.3597 23.8327 15.3678C23.714 15.47 23.556 15.6175 23.399 15.7988C23.0768 16.1706 22.7941 16.6436 22.7971 17.132C22.8001 17.6204 23.0889 18.1394 23.416 18.5636C23.5754 18.7704 23.7353 18.9435 23.8554 19.0649C23.865 19.0746 23.8743 19.0839 23.8833 19.0928Z" fill="black" fill-opacity="0.88"/>
<path fill-rule="evenodd" clip-rule="evenodd" d="M28.6043 19.3756L28.4073 19.5394L28.6309 19.7058L28.7481 19.5415L28.6043 19.3756ZM23.9505 19.512C23.7535 19.6758 23.7536 19.6759 23.7536 19.6759L23.7541 19.6765L23.7551 19.6777L23.7584 19.6815L23.7701 19.6946C23.7801 19.7058 23.7945 19.7216 23.8129 19.7414C23.8497 19.7811 23.9029 19.8369 23.9702 19.9035C24.1044 20.0363 24.2965 20.2138 24.5279 20.3922C24.9801 20.7409 25.6294 21.1297 26.3085 21.1338C26.9876 21.138 27.5748 20.7568 27.9712 20.4134C28.1741 20.2376 28.3377 20.0623 28.4506 19.931C28.5073 19.8652 28.5515 19.81 28.582 19.7708C28.5972 19.7511 28.609 19.7355 28.6173 19.7244L28.6268 19.7114L28.6296 19.7076L28.6304 19.7065L28.6309 19.7058C28.6309 19.7058 28.6309 19.7058 28.4073 19.5394C28.6043 19.3756 28.6043 19.3756 28.6043 19.3756L28.6037 19.3749L28.6027 19.3737L28.5993 19.3699L28.5876 19.3568C28.5776 19.3456 28.5633 19.3298 28.5449 19.31C28.508 19.2703 28.4548 19.2146 28.3875 19.148C28.2533 19.0152 28.0612 18.8376 27.8298 18.6592C27.3777 18.3105 26.7284 17.9218 26.0493 17.9176C25.3702 17.9134 24.783 18.2946 24.3865 18.638C24.1837 18.8138 24.0201 18.9891 23.9071 19.1204C23.8505 19.1863 23.8062 19.2415 23.7758 19.2807C23.7605 19.3003 23.7487 19.316 23.7405 19.327L23.7309 19.34L23.7282 19.3438L23.7274 19.345L23.727 19.3455C23.727 19.3455 23.7269 19.3456 23.9505 19.512ZM23.9505 19.512L23.7536 19.6759L23.6096 19.5099L23.727 19.3455L23.9505 19.512ZM24.3046 19.5142C24.3122 19.5053 24.32 19.4961 24.3281 19.4867C24.4303 19.3679 24.5778 19.21 24.7591 19.0529C25.1309 18.7308 25.6038 18.4481 26.0923 18.4511C26.5807 18.4541 27.0997 18.7429 27.5239 19.0699C27.7306 19.2294 27.9038 19.3893 28.0252 19.5094C28.0348 19.519 28.0441 19.5282 28.0531 19.5372C28.0456 19.5461 28.0378 19.5553 28.0296 19.5647C27.9275 19.6835 27.78 19.8414 27.5987 19.9985C27.2268 20.3207 26.7539 20.6033 26.2655 20.6003C25.777 20.5973 25.2581 20.3086 24.8339 19.9815C24.6271 19.822 24.454 19.6622 24.3326 19.542C24.3229 19.5325 24.3136 19.5232 24.3046 19.5142Z" fill="black" fill-opacity="0.88"/>
<path fill-rule="evenodd" clip-rule="evenodd" d="M21.5296 17.2855L21.3658 17.4825L21.1994 17.2589L21.3637 17.1416L21.5296 17.2855ZM21.3932 21.9393C21.2294 22.1363 21.2292 22.1362 21.2292 22.1362L21.2287 22.1357L21.2275 22.1347L21.2237 22.1313L21.2106 22.1196C21.1994 22.1096 21.1836 22.0953 21.1637 22.0769C21.1241 22.04 21.0683 21.9868 21.0017 21.9195C20.8689 21.7853 20.6914 21.5932 20.513 21.3618C20.1643 20.9097 19.7755 20.2604 19.7713 19.5813C19.7672 18.9022 20.1483 18.315 20.4918 17.9185C20.6676 17.7157 20.8429 17.5521 20.9742 17.4391C21.04 17.3825 21.0952 17.3382 21.1344 17.3078C21.1541 17.2925 21.1697 17.2807 21.1808 17.2725L21.1938 17.2629L21.1975 17.2602L21.1987 17.2594L21.1994 17.2589C21.1994 17.2589 21.1994 17.2589 21.3658 17.4825C21.5296 17.2855 21.5296 17.2855 21.5296 17.2855L21.5303 17.2861L21.5314 17.2871L21.5352 17.2904L21.5484 17.3021C21.5595 17.3121 21.5754 17.3265 21.5952 17.3449C21.6348 17.3817 21.6906 17.4349 21.7572 17.5022C21.89 17.6364 22.0676 17.8285 22.246 18.0599C22.5947 18.5121 22.9834 19.1614 22.9876 19.8405C22.9918 20.5196 22.6106 21.1068 22.2671 21.5032C22.0914 21.7061 21.916 21.8697 21.7847 21.9827C21.7189 22.0393 21.6637 22.0835 21.6245 22.114C21.6049 22.1292 21.5892 22.141 21.5782 22.1493L21.5652 22.1588L21.5614 22.1616L21.5602 22.1624L21.5597 22.1628C21.5597 22.1628 21.5596 22.1629 21.3932 21.9393ZM21.3932 21.9393L21.2292 22.1362L21.3953 22.2801L21.5597 22.1628L21.3932 21.9393ZM21.391 21.5851C21.3999 21.5776 21.4091 21.5698 21.4185 21.5616C21.5373 21.4595 21.6952 21.312 21.8522 21.1307C22.1744 20.7588 22.4571 20.2859 22.4541 19.7975C22.4511 19.309 22.1623 18.7901 21.8353 18.3659C21.6758 18.1591 21.5159 17.986 21.3958 17.8646C21.3862 17.8549 21.377 17.8456 21.368 17.8366C21.3591 17.8442 21.3499 17.852 21.3404 17.8601C21.2217 17.9623 21.0638 18.1098 20.9067 18.2911C20.5845 18.6629 20.3019 19.1358 20.3049 19.6243C20.3079 20.1127 20.5966 20.6317 20.9237 21.0559C21.0831 21.2626 21.243 21.4358 21.3632 21.5572C21.3727 21.5668 21.382 21.5761 21.391 21.5851Z" fill="black" fill-opacity="0.88"/>
<path fill-rule="evenodd" clip-rule="evenodd" d="M26.112 21.8679L25.915 22.0317L26.1386 22.1981L26.2559 22.0338L26.112 21.8679ZM21.4582 22.0043C21.2612 22.1681 21.2613 22.1682 21.2613 22.1682L21.2618 22.1688L21.2628 22.17L21.2662 22.1738L21.2778 22.1869C21.2878 22.1981 21.3022 22.2139 21.3206 22.2337C21.3574 22.2734 21.4106 22.3292 21.4779 22.3957C21.6122 22.5286 21.8042 22.7061 22.0356 22.8845C22.4878 23.2332 23.1371 23.6219 23.8162 23.6261C24.4953 23.6303 25.0825 23.2491 25.4789 22.9057C25.6818 22.7299 25.8454 22.5546 25.9584 22.4233C26.015 22.3575 26.0593 22.3023 26.0897 22.263C26.105 22.2434 26.1168 22.2277 26.125 22.2167L26.1346 22.2037L26.1373 22.1999L26.1381 22.1988L26.1386 22.1981C26.1386 22.1981 26.1386 22.1981 25.915 22.0317C26.112 21.8679 26.112 21.8679 26.112 21.8679L26.1114 21.8672L26.1104 21.866L26.107 21.8622L26.0953 21.8491C26.0854 21.8379 26.071 21.8221 26.0526 21.8023C26.0158 21.7626 25.9626 21.7068 25.8953 21.6403C25.761 21.5074 25.5689 21.3299 25.3376 21.1515C24.8854 20.8028 24.2361 20.414 23.557 20.4099C22.8779 20.4057 22.2907 20.7869 21.8943 21.1303C21.6914 21.3061 21.5278 21.4814 21.4148 21.6127C21.3582 21.6785 21.3139 21.7337 21.2835 21.773C21.2682 21.7926 21.2564 21.8082 21.2482 21.8193L21.2386 21.8323L21.2359 21.8361L21.2351 21.8372L21.2347 21.8378C21.2347 21.8378 21.2346 21.8379 21.4582 22.0043ZM21.4582 22.0043L21.2613 22.1682L21.1173 22.0022L21.2347 21.8378L21.4582 22.0043ZM21.8124 22.0065C21.8199 21.9976 21.8277 21.9884 21.8358 21.979C21.938 21.8602 22.0855 21.7023 22.2668 21.5452C22.6386 21.223 23.1116 20.9404 23.6 20.9434C24.0884 20.9464 24.6074 21.2351 25.0316 21.5622C25.2384 21.7217 25.4115 21.8816 25.5329 22.0017C25.5426 22.0112 25.5519 22.0205 25.5608 22.0295C25.5533 22.0384 25.5455 22.0476 25.5374 22.057C25.4352 22.1758 25.2877 22.3337 25.1064 22.4908C24.7346 22.8129 24.2616 23.0956 23.7732 23.0926C23.2848 23.0896 22.7658 22.8008 22.3416 22.4738C22.1348 22.3143 21.9617 22.1544 21.8403 22.0343C21.8306 22.0248 21.8213 22.0155 21.8124 22.0065Z" fill="black" fill-opacity="0.88"/>
<path fill-rule="evenodd" clip-rule="evenodd" d="M21.2322 21.788L21.6095 22.1653L20.929 22.8457L20.9249 22.8519C20.9133 22.8694 20.8962 22.8953 20.8753 22.9281C20.8335 22.994 20.7766 23.0867 20.7171 23.1938C20.5941 23.415 20.4746 23.6714 20.435 23.8745C20.3995 24.0571 20.4047 24.3177 20.4235 24.5505C20.4326 24.6632 20.4443 24.763 20.4537 24.8345C20.4584 24.8702 20.4625 24.8987 20.4654 24.9179L20.4687 24.9397L20.4696 24.9449L20.4698 24.946L20.2055 24.9915C19.9413 25.037 19.9413 25.0369 19.9413 25.0369L19.9411 25.036L19.9408 25.034L19.9397 25.0269L19.9357 25.0011C19.9324 24.979 19.9279 24.9474 19.9227 24.9083C19.9124 24.8301 19.8997 24.7212 19.8897 24.5975C19.8703 24.3576 19.8589 24.035 19.9094 23.7758C19.9661 23.4848 20.1215 23.1664 20.2494 22.9362C20.3153 22.8177 20.3779 22.7156 20.4241 22.643C20.4472 22.6066 20.4664 22.5775 20.4799 22.5572L20.4958 22.5335L20.5003 22.5269L20.5016 22.5251L20.502 22.5245C20.502 22.5245 20.5022 22.5241 20.7221 22.6754L20.502 22.5245L20.5161 22.504L21.2322 21.788Z" fill="black" fill-opacity="0.88"/>
</svg>
