<svg width="50" height="51" viewBox="0 0 50 51" fill="none" xmlns="http://www.w3.org/2000/svg">
<path d="M25.5 48.2305C15.1659 34.2235 10 24.2576 10 18.3305C10 14.0605 11.633 9.96538 14.5398 6.94605C17.4467 3.92671 21.3891 2.23047 25.5 2.23047C29.6109 2.23047 33.5533 3.92671 36.4602 6.94605C39.367 9.96538 41 14.0605 41 18.3305C41 24.2576 35.8341 34.2235 25.5 48.2305ZM25.5 27.5305C27.8491 27.5305 30.1019 26.5612 31.7629 24.8359C33.424 23.1105 34.3571 20.7705 34.3571 18.3305C34.3571 15.8905 33.424 13.5504 31.7629 11.8251C30.1019 10.0998 27.8491 9.13047 25.5 9.13047C23.1509 9.13047 20.8981 10.0998 19.2371 11.8251C17.576 13.5504 16.6429 15.8905 16.6429 18.3305C16.6429 20.7705 17.576 23.1105 19.2371 24.8359C20.8981 26.5612 23.1509 27.5305 25.5 27.5305Z" fill="#FADB14"/>
<circle cx="25.5" cy="18.1465" r="11" fill="white"/>
<path fill-rule="evenodd" clip-rule="evenodd" d="M24.3016 14.3524L23.9712 14.473L23.8516 14.1158L24.1606 14.0437L24.3016 14.3524ZM19.2176 24.2755C18.8775 24.3729 18.8773 24.3726 18.8773 24.3726L18.8768 24.371L18.8757 24.3681L18.8725 24.3596C18.8699 24.3526 18.8665 24.3432 18.8624 24.3313C18.8542 24.3076 18.843 24.2743 18.8297 24.2316C18.8033 24.1463 18.7686 24.024 18.7328 23.8681C18.6614 23.5563 18.5856 23.1099 18.5628 22.5571C18.5172 21.45 18.6848 19.9219 19.519 18.2018C20.3532 16.4816 21.421 15.4621 22.2899 14.8716C22.7236 14.5767 23.1067 14.3896 23.3848 14.2752C23.5239 14.2181 23.6368 14.1791 23.7168 14.154C23.7568 14.1414 23.7886 14.1323 23.8113 14.1262C23.8227 14.1231 23.8318 14.1207 23.8386 14.119L23.8469 14.1169L23.8497 14.1163L23.8508 14.116L23.8516 14.1158C23.8516 14.1158 23.8516 14.1158 23.9712 14.473C24.3016 14.3524 24.3016 14.3524 24.3016 14.3524L24.302 14.3533L24.3026 14.3545L24.3039 14.3575L24.3077 14.3662C24.3107 14.3731 24.3147 14.3823 24.3194 14.3939C24.3289 14.4169 24.3416 14.449 24.3566 14.4899C24.3865 14.5717 24.4255 14.6887 24.4658 14.8386C24.5464 15.1385 24.6323 15.5698 24.6614 16.1132C24.7199 17.2024 24.5502 18.7313 23.6698 20.5467C22.7894 22.3622 21.7222 23.384 20.8597 23.9528C20.4293 24.2367 20.0521 24.4063 19.7778 24.5057C19.6407 24.5554 19.5294 24.5876 19.4501 24.6076C19.4104 24.6177 19.3787 24.6247 19.3558 24.6294C19.3443 24.6317 19.335 24.6335 19.328 24.6348L19.3193 24.6363L19.3162 24.6369L19.315 24.6371C19.315 24.6371 19.314 24.6372 19.2176 24.2755ZM19.2176 24.2755L18.8773 24.3726L18.9987 24.688L19.314 24.6372L19.2176 24.2755ZM19.4544 23.8169C19.4573 23.8159 19.4603 23.8148 19.4633 23.8137C19.694 23.7301 20.0257 23.5822 20.4113 23.3279C21.1805 22.8206 22.1729 21.8839 23.0038 20.1705C23.8348 18.457 23.9823 17.0431 23.9301 16.0717C23.904 15.5848 23.8275 15.2064 23.7597 14.9541C23.7588 14.9508 23.758 14.9476 23.7571 14.9443C23.7466 14.9486 23.7359 14.9529 23.725 14.9574C23.4832 15.0567 23.1395 15.2239 22.7455 15.4917C21.9588 16.0264 20.967 16.9653 20.185 18.578C19.4029 20.1907 19.2533 21.6054 19.2946 22.6079C19.3153 23.1099 19.3839 23.51 19.446 23.781C19.4488 23.7932 19.4516 23.8052 19.4544 23.8169Z" fill="black" fill-opacity="0.88"/>
<path fill-rule="evenodd" clip-rule="evenodd" d="M29.3035 19.3529L29.1803 19.682L29.5374 19.8016L29.609 19.4951L29.3035 19.3529ZM28.7098 19.8939C28.7067 19.8931 28.7036 19.8922 28.7004 19.8913C28.4504 19.8227 28.0748 19.7451 27.5909 19.7177C26.6254 19.6631 25.2169 19.8078 23.5035 20.6388L23.1273 19.9728C24.9427 19.0924 26.4667 18.9252 27.5514 18.9865C28.0926 19.0171 28.5216 19.1045 28.8198 19.1863C28.9689 19.2272 29.0852 19.2667 29.1666 19.2971C29.2073 19.3122 29.2392 19.3251 29.2621 19.3347C29.2736 19.3396 29.2828 19.3436 29.2897 19.3466L29.2984 19.3505L29.3014 19.3519L29.3026 19.3524C29.3026 19.3524 29.3035 19.3529 29.1803 19.682C29.5374 19.8016 29.5374 19.8016 29.5374 19.8016L29.5372 19.8025L29.537 19.8035L29.5363 19.8063L29.5342 19.8147C29.5325 19.8214 29.5302 19.8305 29.5271 19.8419C29.5209 19.8646 29.5118 19.8964 29.4992 19.9364C29.4741 20.0164 29.4352 20.1293 29.378 20.2684C29.2637 20.5465 29.0765 20.9296 28.7817 21.3634C28.1912 22.2322 27.1717 23.3001 25.4515 24.1342C23.7255 24.9712 22.1352 25.105 20.9706 25.0262C20.3891 24.9869 19.9382 24.8927 19.5805 24.8283C19.3926 24.7945 19.2944 24.7633 19.1582 24.7304C19.1127 24.7155 19.0238 24.6972 18.9987 24.688C18.9861 24.6835 19.0059 24.6908 18.9987 24.688C18.9987 24.688 18.9987 24.688 19.1462 24.3083C19.2482 23.97 19.2479 23.9699 19.2479 23.9699L19.2508 23.971L19.2691 23.9778C19.2864 23.9841 19.3139 23.9938 19.351 24.006C19.4253 24.0305 19.538 24.0648 19.6849 24.1017C19.9787 24.1756 20.4082 24.2596 20.9393 24.2955C22.0001 24.3673 23.4683 24.2475 25.0752 23.4683C26.6879 22.6862 27.6269 21.6944 28.1616 20.9077C28.4294 20.5137 28.5965 20.17 28.6958 19.9283C28.7007 19.9166 28.7053 19.9051 28.7098 19.8939Z" fill="black" fill-opacity="0.88"/>
<path fill-rule="evenodd" clip-rule="evenodd" d="M31.1789 13.5119C31.107 13.3 30.9824 13.1015 30.8531 12.9748C30.7146 12.8391 30.7005 12.6283 30.8217 12.5039C30.9429 12.3796 31.1534 12.3888 31.292 12.5245C31.519 12.7469 31.7031 13.0534 31.8079 13.362C31.9114 13.6666 31.9543 14.0248 31.8285 14.327C31.7312 14.5607 31.5209 14.7603 31.3718 14.8848C31.3353 14.9152 31.2999 14.9433 31.267 14.9684C31.2873 15.0302 31.3084 15.1007 31.3273 15.1766C31.387 15.4166 31.4459 15.7896 31.3062 16.0939C31.1676 16.396 30.8457 16.5972 30.6234 16.712C30.5484 16.7508 30.4763 16.7839 30.4126 16.811C30.425 16.8853 30.4371 16.971 30.4456 17.0631C30.4712 17.3387 30.4734 17.7429 30.2946 18.0474C30.1367 18.3162 29.833 18.5113 29.6146 18.6295C29.4982 18.6925 29.3904 18.7417 29.3117 18.7752C29.2721 18.792 29.2395 18.8051 29.2163 18.8141C29.2047 18.8186 29.1954 18.8221 29.1888 18.8246L29.1808 18.8275L29.1784 18.8284L29.1776 18.8287C29.1776 18.8287 29.1771 18.8289 29.0348 18.5137L29.1776 18.8287C29.0111 18.8885 28.812 18.796 28.7334 18.6219C28.6549 18.4479 28.726 18.2584 28.8923 18.1986L28.893 18.1983L28.8975 18.1966L28.9175 18.189C28.9355 18.182 28.9622 18.1713 28.9953 18.1572C29.0619 18.1289 29.1526 18.0874 29.2493 18.0352C29.4569 17.9228 29.637 17.789 29.7102 17.6645C29.7877 17.5324 29.8052 17.3018 29.782 17.0515C29.7712 16.9352 29.7531 16.83 29.7377 16.7538C29.7301 16.716 29.7232 16.6859 29.7184 16.666C29.716 16.656 29.7142 16.6486 29.713 16.6441L29.7118 16.6394L29.902 16.2671L29.907 16.2655L29.9277 16.2585C29.9463 16.252 29.9741 16.2421 30.0083 16.2288C30.0773 16.2022 30.1703 16.1629 30.2677 16.1126C30.4818 16.0019 30.6437 15.8742 30.6948 15.7628C30.7412 15.6616 30.7341 15.481 30.6813 15.2687C30.6573 15.1722 30.6279 15.0852 30.6044 15.0223C30.5928 14.9911 30.5829 14.9665 30.5761 14.9504L30.5687 14.9329L30.5674 14.9298C30.4993 14.7795 30.5422 14.6133 30.6699 14.5332L30.6733 14.5311L30.6868 14.5222C30.6991 14.5142 30.7174 14.5019 30.74 14.486C30.7855 14.4541 30.8474 14.4085 30.9125 14.3541C31.0543 14.2358 31.169 14.1103 31.2087 14.015C31.2542 13.9057 31.2523 13.7279 31.1789 13.5119ZM29.902 16.2671C29.7486 16.3155 29.6672 16.4747 29.7118 16.6394L29.902 16.2671Z" fill="black" fill-opacity="0.88"/>
<path fill-rule="evenodd" clip-rule="evenodd" d="M30.2703 12.6033C30.4822 12.6752 30.6807 12.7998 30.8074 12.9291C30.9431 13.0676 31.1539 13.0817 31.2783 12.9605C31.4026 12.8393 31.3934 12.6288 31.2577 12.4902C31.0353 12.2632 30.7288 12.0791 30.4202 11.9743C30.1156 11.8709 29.7574 11.8279 29.4553 11.9537C29.2215 12.051 29.0219 12.2613 28.8974 12.4104C28.867 12.4469 28.8389 12.4823 28.8138 12.5152C28.752 12.4949 28.6815 12.4738 28.6056 12.455C28.3656 12.3952 27.9926 12.3364 27.6883 12.476C27.3862 12.6146 27.1851 12.9366 27.0702 13.1588C27.0314 13.2338 26.9983 13.3059 26.9712 13.3696C26.8969 13.3572 26.8112 13.3451 26.7191 13.3366C26.4435 13.311 26.0393 13.3088 25.7348 13.4876C25.466 13.6455 25.2709 13.9492 25.1527 14.1676C25.0897 14.284 25.0405 14.3918 25.007 14.4706C24.9902 14.5101 24.9771 14.5427 24.9681 14.5659C24.9636 14.5775 24.9601 14.5868 24.9576 14.5934L24.9547 14.6014L24.9538 14.6038L24.9535 14.6046C24.9535 14.6046 24.9533 14.6052 25.2685 14.7474L24.9535 14.6046C24.8938 14.7711 24.9863 14.9702 25.1603 15.0488C25.3343 15.1273 25.5238 15.0562 25.5837 14.8899L25.5839 14.8892L25.5856 14.8847L25.5932 14.8647C25.6002 14.8467 25.6109 14.82 25.625 14.7869C25.6533 14.7203 25.6948 14.6296 25.7471 14.5329C25.8594 14.3253 25.9932 14.1452 26.1178 14.072C26.2498 13.9945 26.4804 13.977 26.7307 14.0002C26.847 14.011 26.9522 14.0291 27.0284 14.0445C27.0662 14.0521 27.0963 14.059 27.1162 14.0638C27.1262 14.0662 27.1336 14.068 27.1381 14.0692L27.1428 14.0704L27.5151 13.8802L27.5167 13.8752L27.5237 13.8545C27.5302 13.8359 27.5401 13.8081 27.5534 13.7739C27.5801 13.705 27.6193 13.6119 27.6697 13.5145C27.7803 13.3004 27.908 13.1385 28.0195 13.0874C28.1206 13.041 28.3012 13.0481 28.5135 13.1009C28.61 13.125 28.697 13.1543 28.7599 13.1778C28.7911 13.1894 28.8157 13.1993 28.8318 13.2061L28.8493 13.2135L28.8524 13.2149C29.0027 13.2829 29.1689 13.24 29.249 13.1123L29.2511 13.1089L29.26 13.0954C29.2681 13.0831 29.2803 13.0648 29.2962 13.0422C29.3281 12.9967 29.3737 12.9348 29.4281 12.8697C29.5464 12.728 29.6719 12.6132 29.7672 12.5735C29.8765 12.528 30.0543 12.5299 30.2703 12.6033ZM27.5151 13.8802C27.4667 14.0336 27.3075 14.115 27.1428 14.0704L27.5151 13.8802Z" fill="black" fill-opacity="0.88"/>
</svg>
