<svg width="51" height="50" viewBox="0 0 51 50" fill="none" xmlns="http://www.w3.org/2000/svg">
<path d="M26.0833 48.083C15.7493 34.076 10.5833 24.1101 10.5833 18.183C10.5833 13.913 12.2164 9.81794 15.1232 6.7986C18.03 3.77927 21.9725 2.08302 26.0833 2.08302C30.1942 2.08302 34.1367 3.77927 37.0435 6.7986C39.9503 9.81794 41.5833 13.913 41.5833 18.183C41.5833 24.1101 36.4174 34.076 26.0833 48.083ZM26.0833 27.383C28.4324 27.383 30.6852 26.4137 32.3463 24.6884C34.0073 22.9631 34.9405 20.623 34.9405 18.183C34.9405 15.743 34.0073 13.403 32.3463 11.6776C30.6852 9.95231 28.4324 8.98302 26.0833 8.98302C23.7343 8.98302 21.4814 9.95231 19.8204 11.6776C18.1593 13.403 17.2262 15.743 17.2262 18.183C17.2262 20.623 18.1593 22.9631 19.8204 24.6884C21.4814 26.4137 23.7343 27.383 26.0833 27.383Z" fill="#13C2C2"/>
<circle cx="26.0833" cy="17.9991" r="11" fill="white"/>
<path fill-rule="evenodd" clip-rule="evenodd" d="M26.2831 15.6376L26.03 15.8685L25.7794 15.6351L26.0327 15.3805L26.2831 15.6376ZM27.8524 17.8314C27.8273 17.7799 27.7992 17.7231 27.769 17.663C27.6463 17.4192 27.4807 17.1077 27.3227 16.871C27.1414 16.5995 26.878 16.2887 26.6679 16.053C26.5613 15.9334 26.4656 15.8301 26.3964 15.7565C26.3618 15.7197 26.3337 15.6903 26.3142 15.6699L26.2916 15.6463L26.2855 15.6401L26.2831 15.6376L26.03 15.8685L25.7794 15.6351L25.777 15.6375L25.7708 15.6438L25.7477 15.6673C25.7278 15.6877 25.6993 15.717 25.664 15.7538C25.5937 15.8272 25.4964 15.9304 25.3882 16.0499C25.175 16.2854 24.9077 16.5971 24.7252 16.8716C24.5675 17.1087 24.4046 17.4212 24.2845 17.6653C24.2556 17.7242 24.2287 17.7799 24.2046 17.8306C24.1742 17.8221 24.1422 17.8133 24.1089 17.8043C23.8882 17.7448 23.597 17.6737 23.3549 17.642C23.0614 17.6036 22.697 17.6046 22.4191 17.6133C22.2774 17.6178 22.1529 17.6244 22.0637 17.63C22.019 17.6328 21.983 17.6353 21.958 17.6371L21.9289 17.6393L21.921 17.6399L21.918 17.6402L21.5587 17.6698L21.6022 18.0161L21.9474 17.9755C21.6022 18.0161 21.6022 18.0161 21.6022 18.0161L21.6023 18.0169L21.6025 18.0185L21.6031 18.0236L21.6056 18.0419C21.6078 18.0576 21.611 18.0802 21.6154 18.1089C21.6241 18.1665 21.6374 18.2488 21.656 18.3502C21.6931 18.5529 21.7518 18.8335 21.8381 19.1461C22.0072 19.7593 22.295 20.5441 22.7701 21.0897C23.2099 21.5947 23.6774 21.9593 24.2193 22.1947C24.6646 22.3881 25.1452 22.4878 25.6786 22.517C25.6799 22.6464 25.6843 22.8052 25.695 22.979C25.7222 23.4165 25.7921 23.9922 25.9815 24.4274C26.2057 24.9426 26.6691 25.3805 27.0408 25.6751C27.2318 25.8264 27.4097 25.9485 27.54 26.0328C27.6053 26.0751 27.659 26.1082 27.697 26.131C27.716 26.1424 27.7311 26.1513 27.7418 26.1575L27.7544 26.1647L27.7581 26.1668L27.7592 26.1675C27.7592 26.1675 27.7599 26.1679 27.935 25.8771C28.1101 25.5863 28.1102 25.5863 28.1102 25.5863L28.1084 25.5853L28.0999 25.5804C28.092 25.5758 28.0798 25.5687 28.0639 25.5591C28.0319 25.5399 27.9848 25.5109 27.9267 25.4733C27.8103 25.3979 27.6512 25.2888 27.4815 25.1543C27.1317 24.8771 26.7787 24.5249 26.6226 24.1662C26.4819 23.843 26.4158 23.3651 26.3894 22.9387C26.3796 22.7813 26.3755 22.6368 26.3742 22.518C26.9011 22.4916 27.3646 22.3995 27.8022 22.2086C28.3316 21.9776 28.7961 21.6139 29.2808 21.0996C29.7607 20.5903 30.0495 19.7963 30.2187 19.1765C30.3055 18.8586 30.365 18.5701 30.4028 18.3612C30.4217 18.2565 30.4353 18.1714 30.4442 18.1118C30.4487 18.0821 30.452 18.0587 30.4542 18.0424L30.4567 18.0235L30.4574 18.0182L30.4577 18.016C30.4577 18.016 30.4577 18.0159 30.1124 17.9755L30.4577 18.016L30.5009 17.6698L30.142 17.6402L30.141 17.6401L30.1388 17.6399L30.131 17.6393L30.1019 17.6371C30.0768 17.6353 30.0409 17.6328 29.9962 17.63C29.907 17.6244 29.7825 17.6178 29.6408 17.6133C29.363 17.6046 28.9986 17.6036 28.7051 17.642C28.463 17.6737 28.1718 17.7448 27.9511 17.8043C27.9167 17.8136 27.8837 17.8227 27.8524 17.8314ZM27.3447 18.3746L27.3439 18.3729L27.3413 18.3671L27.3305 18.3437C27.321 18.3232 27.3069 18.2931 27.2891 18.2556C27.2535 18.1805 27.203 18.0757 27.1436 17.9578C27.0232 17.7184 26.8726 17.4372 26.7384 17.2364C26.5846 17.0059 26.3476 16.7241 26.1413 16.4927C26.1015 16.4481 26.0633 16.4059 26.0276 16.3667C25.9911 16.4061 25.952 16.4486 25.9113 16.4935C25.7023 16.7244 25.4634 17.0053 25.3101 17.2358C25.1777 17.435 25.0303 17.7152 24.9126 17.9546C24.8546 18.0724 24.8054 18.1771 24.7708 18.2523C24.7535 18.2898 24.7399 18.3198 24.7306 18.3403L24.7202 18.3637L24.7176 18.3695L24.717 18.3708L24.5918 18.6545L24.2892 18.5589L24.2879 18.5585L24.2829 18.557L24.2628 18.5507C24.245 18.5453 24.2188 18.5373 24.1859 18.5275C24.1199 18.5079 24.0276 18.4812 23.9222 18.4528C23.7071 18.3948 23.454 18.3342 23.2618 18.3091C23.0287 18.2786 22.7126 18.2776 22.4417 18.2861C22.4107 18.2871 22.3805 18.2882 22.3514 18.2893C22.3862 18.472 22.4378 18.7105 22.5101 18.9725C22.6735 19.5647 22.9299 20.2286 23.302 20.6559C23.6898 21.1013 24.0771 21.3951 24.5041 21.5806C24.9322 21.7665 25.4222 21.8531 26.0299 21.8531C26.6409 21.8531 27.1037 21.7749 27.5164 21.5949C27.9302 21.4144 28.3204 21.1197 28.7668 20.646C29.1252 20.2657 29.3807 19.6111 29.5462 19.0046C29.6209 18.7312 29.674 18.4801 29.7095 18.2894C29.6801 18.2882 29.6496 18.2871 29.6183 18.2861C29.3474 18.2776 29.0313 18.2786 28.7982 18.3091C28.606 18.3342 28.3529 18.3948 28.1378 18.4528C28.0324 18.4812 27.9401 18.5079 27.8741 18.5275C27.8412 18.5373 27.815 18.5453 27.7972 18.5507L27.7771 18.557L27.7721 18.5585L27.771 18.5588L27.4716 18.6534L27.3447 18.3746Z" fill="black" fill-opacity="0.88"/>
<path fill-rule="evenodd" clip-rule="evenodd" d="M23.2119 12.9861C23.7134 12.1776 24.5985 11.3177 26.0594 11.3177C27.5203 11.3177 28.4054 12.1776 28.9069 12.9861C29.1577 13.3905 29.3201 13.7919 29.4199 14.0906C29.4504 14.1818 29.4752 14.2641 29.495 14.3346C29.5225 14.3365 29.5516 14.3389 29.5821 14.3418C29.8062 14.3633 30.1141 14.4139 30.4524 14.5309C31.1347 14.7671 31.9384 15.275 32.411 16.3374C33.0786 17.8377 32.6985 18.9954 32.1365 19.7671C31.8607 20.1459 31.5448 20.4278 31.2995 20.6146C31.1763 20.7084 31.0695 20.7794 30.9922 20.8275C30.9535 20.8517 30.9221 20.8701 30.8995 20.883C30.8939 20.8862 30.8888 20.8891 30.8843 20.8916C30.8798 20.8942 30.8758 20.8963 30.8725 20.8982L30.8643 20.9026L30.8617 20.904L30.8607 20.9045C30.8607 20.9045 30.86 20.9049 30.6936 20.6094L30.86 20.9049C30.6913 20.9939 30.4801 20.9337 30.3882 20.7704C30.2964 20.6074 30.3583 20.4034 30.5264 20.3142L30.5271 20.3139L30.5296 20.3125L30.5459 20.3033C30.5612 20.2946 30.585 20.2807 30.6156 20.2616C30.677 20.2233 30.7656 20.1646 30.8693 20.0857C31.0777 19.927 31.3411 19.6908 31.568 19.3793C32.0115 18.7703 32.3305 17.8585 31.7722 16.6036C31.3911 15.7471 30.7586 15.3519 30.2181 15.1648C29.9449 15.0702 29.6948 15.029 29.5137 15.0117C29.4234 15.0031 29.3513 15.0004 29.3034 14.9999C29.2794 14.9996 29.2616 14.9998 29.2506 15.0001L29.2394 15.0004L29.2386 15.0005L29.2379 15.0005L28.9329 15.0176L28.8772 14.7261L28.8762 14.7212L28.8719 14.7005C28.8677 14.6816 28.861 14.6526 28.8515 14.6149C28.8325 14.5395 28.8022 14.4299 28.758 14.2976C28.6693 14.0319 28.5265 13.6808 28.3105 13.3326C27.8785 12.6361 27.1837 11.9909 26.0594 11.9909C24.9351 11.9909 24.2403 12.6361 23.8083 13.3326C23.5923 13.6808 23.4495 14.0319 23.3608 14.2976C23.3166 14.4299 23.2863 14.5395 23.2673 14.6149C23.2578 14.6526 23.2511 14.6816 23.2469 14.7005L23.2425 14.7212L23.2417 14.7255L23.1891 15.001H22.9005L22.8989 15.001L22.8869 15.0013C22.8754 15.0016 22.8568 15.0023 22.8321 15.0038C22.7826 15.0069 22.7085 15.0131 22.6161 15.0258C22.4305 15.0514 22.1748 15.1027 21.8966 15.2049C21.3424 15.4084 20.7106 15.8079 20.3452 16.6067C19.8584 17.6709 20.1632 18.5838 20.6136 19.2581C20.8399 19.5968 21.0996 19.8687 21.304 20.0563C21.4058 20.1497 21.4927 20.2212 21.5532 20.2686C21.5834 20.2923 21.6069 20.3099 21.6222 20.3211L21.6389 20.3332L21.6422 20.3355C21.7983 20.4436 21.8346 20.6539 21.723 20.805C21.6113 20.9563 21.3941 20.9913 21.2378 20.8833L21.44 20.6094C21.2378 20.8833 21.2378 20.8833 21.2378 20.8833L21.2373 20.8828L21.2364 20.8823L21.2341 20.8806L21.2268 20.8755C21.2207 20.8712 21.2124 20.8651 21.2019 20.8575C21.181 20.8421 21.1516 20.8201 21.1153 20.7916C21.0427 20.7346 20.9419 20.6517 20.8254 20.5447C20.5932 20.3317 20.2937 20.0192 20.0294 19.6235C19.4987 18.8289 19.0971 17.6723 19.7092 16.3342C20.1699 15.327 20.9744 14.8235 21.6499 14.5755C21.9865 14.4519 22.294 14.3903 22.518 14.3594C22.5543 14.3544 22.5885 14.3502 22.6204 14.3467C22.6407 14.2735 22.6667 14.1871 22.6989 14.0906C22.7986 13.7919 22.9611 13.3905 23.2119 12.9861Z" fill="black" fill-opacity="0.88"/>
</svg>
