<svg width="50" height="51" viewBox="0 0 50 51" fill="none" xmlns="http://www.w3.org/2000/svg">
<path d="M25.5 48.2305C15.1659 34.2235 10 24.2576 10 18.3305C10 14.0605 11.633 9.96538 14.5398 6.94605C17.4467 3.92671 21.3891 2.23047 25.5 2.23047C29.6109 2.23047 33.5533 3.92671 36.4602 6.94605C39.367 9.96538 41 14.0605 41 18.3305C41 24.2576 35.8341 34.2235 25.5 48.2305ZM25.5 27.5305C27.8491 27.5305 30.1019 26.5612 31.7629 24.8359C33.424 23.1105 34.3571 20.7705 34.3571 18.3305C34.3571 15.8905 33.424 13.5504 31.7629 11.8251C30.1019 10.0998 27.8491 9.13047 25.5 9.13047C23.1509 9.13047 20.8981 10.0998 19.2371 11.8251C17.576 13.5504 16.6429 15.8905 16.6429 18.3305C16.6429 20.7705 17.576 23.1105 19.2371 24.8359C20.8981 26.5612 23.1509 27.5305 25.5 27.5305Z" fill="#FA8C16"/>
<circle cx="25.5" cy="18.1465" r="11" fill="white"/>
<path fill-rule="evenodd" clip-rule="evenodd" d="M22.5583 23.8939C24.9086 24.8674 28.1957 23.4518 29.6552 20.4084C31.1148 17.365 30.0355 14.1761 27.6852 13.2026C25.3349 12.229 22.0105 13.6172 20.551 16.6606C19.0914 19.704 20.208 22.9204 22.5583 23.8939ZM22.2719 24.4532C25.1264 25.6355 28.7099 23.9472 30.2757 20.6822C31.8416 17.4171 30.7969 13.8118 27.9424 12.6294C25.0879 11.447 21.5045 13.1353 19.9386 16.4004C18.3728 19.6654 19.4174 23.2708 22.2719 24.4532Z" fill="black" fill-opacity="0.88"/>
<path fill-rule="evenodd" clip-rule="evenodd" d="M26.355 18.4149C26.355 18.4149 26.3551 18.4148 26.2567 18.1316C26.1829 17.79 26.1831 17.79 26.1831 17.79L26.1845 17.7897L26.1872 17.7893L26.1957 17.7877C26.2028 17.7865 26.2125 17.7848 26.2248 17.7829C26.2491 17.7789 26.2835 17.7737 26.3256 17.7681C26.4096 17.7569 26.5266 17.7441 26.6595 17.7374C26.9089 17.725 27.2778 17.7302 27.5805 17.8556C27.8833 17.981 28.134 18.2324 28.2908 18.4132C28.3744 18.5094 28.4423 18.5989 28.4895 18.6644C28.5132 18.6972 28.532 18.7245 28.5451 18.744C28.5517 18.7537 28.5569 18.7616 28.5606 18.7673L28.5651 18.7742L28.5665 18.7764L28.567 18.7771C28.567 18.7771 28.5673 18.7777 28.2446 18.955C27.9465 19.0741 27.9466 19.0742 27.9466 19.0742L27.9445 19.0708L27.9342 19.0554C27.9247 19.0413 27.9101 19.0201 27.8912 18.9938C27.853 18.9409 27.7982 18.8687 27.7317 18.7922C27.5887 18.6273 27.4311 18.4881 27.2998 18.4337C27.1686 18.3794 26.9519 18.3635 26.7243 18.3749C26.6186 18.3801 26.5242 18.3905 26.4563 18.3995C26.4226 18.404 26.396 18.4081 26.3783 18.4109L26.3591 18.4141L26.355 18.4149Z" fill="black" fill-opacity="0.88"/>
<path fill-rule="evenodd" clip-rule="evenodd" d="M21.8877 18.774C21.8877 18.774 21.8663 18.8385 21.7925 18.4969C21.7187 18.1553 21.7189 18.1553 21.7189 18.1553L21.7203 18.155L21.723 18.1546L21.7315 18.153C21.7386 18.1518 21.7483 18.1501 21.7605 18.1482C21.7849 18.1442 21.8192 18.139 21.8614 18.1333C21.9453 18.1222 22.0624 18.1094 22.1952 18.1027C22.4447 18.0903 22.8135 18.0955 23.1163 18.2209C23.419 18.3463 23.6698 18.5977 23.8266 18.7785C23.9101 18.8747 23.9781 18.9642 24.0253 19.0297C24.049 19.0625 24.0677 19.0898 24.0809 19.1093C24.0875 19.119 24.0926 19.1269 24.0964 19.1326L24.1008 19.1395L24.1022 19.1417L24.1027 19.1424C24.1027 19.1424 24.1031 19.143 23.7804 19.3203C23.4578 19.4977 23.4793 19.4332 23.4793 19.4332L23.4772 19.4299L23.4669 19.4144C23.4574 19.4004 23.4429 19.3792 23.4239 19.3529C23.3857 19.3 23.3309 19.2278 23.2645 19.1513C23.1214 18.9864 22.9638 18.8471 22.8326 18.7928C22.7014 18.7384 22.4846 18.7226 22.257 18.7339C22.1513 18.7392 22.0569 18.7495 21.9891 18.7586C21.9553 18.763 21.9287 18.7671 21.9111 18.77L21.8918 18.7732L21.8877 18.774Z" fill="black" fill-opacity="0.88"/>
<path fill-rule="evenodd" clip-rule="evenodd" d="M23.8682 15.3106C23.8682 15.3106 23.8683 15.3106 23.7804 15.0255C23.7066 14.684 23.7068 14.6839 23.7068 14.6839L23.7082 14.6837L23.7109 14.6832L23.7194 14.6817C23.7265 14.6804 23.7362 14.6788 23.7484 14.6768C23.7728 14.6728 23.8071 14.6676 23.8493 14.662C23.9332 14.6508 24.0503 14.638 24.1831 14.6313C24.4326 14.6189 24.8014 14.6241 25.1042 14.7495C25.4069 14.8749 25.6577 15.1263 25.8145 15.3071C25.898 15.4034 25.966 15.4928 26.0132 15.5583C26.0369 15.5912 26.0556 15.6184 26.0688 15.6379C26.0753 15.6477 26.0805 15.6555 26.0843 15.6612L26.0887 15.6681L26.0901 15.6703L26.0906 15.6711C26.0906 15.6711 26.1051 15.6151 25.7824 15.7924C25.4597 15.9698 25.4598 15.9699 25.4598 15.9699L25.4577 15.9666L25.4474 15.9511C25.4379 15.937 25.4233 15.9159 25.4044 15.8895C25.3662 15.8366 25.3114 15.7645 25.2449 15.6879C25.1019 15.523 24.9443 15.3838 24.813 15.3295C24.6818 15.2751 24.4651 15.2592 24.2375 15.2706C24.1318 15.2759 24.0374 15.2862 23.9695 15.2952C23.9358 15.2997 23.9092 15.3038 23.8915 15.3067L23.8723 15.3099L23.8682 15.3106Z" fill="black" fill-opacity="0.88"/>
<path fill-rule="evenodd" clip-rule="evenodd" d="M24.5809 22.1052C24.5809 22.1052 24.5585 22.1681 24.4847 21.8266C24.4109 21.485 24.4111 21.4849 24.4111 21.4849L24.4125 21.4847L24.4152 21.4842L24.4237 21.4827C24.4308 21.4814 24.4405 21.4798 24.4527 21.4778C24.4771 21.4738 24.5114 21.4686 24.5536 21.463C24.6375 21.4518 24.7546 21.439 24.8874 21.4324C25.1369 21.4199 25.5057 21.4251 25.8085 21.5506C26.1112 21.676 26.362 21.9273 26.5188 22.1081C26.6023 22.2044 26.6703 22.2938 26.7175 22.3593C26.7412 22.3922 26.7599 22.4194 26.7731 22.4389C26.7797 22.4487 26.7848 22.4565 26.7886 22.4622L26.7931 22.4691L26.7945 22.4713L26.7949 22.4721C26.7949 22.4721 26.7953 22.4726 26.4726 22.65C26.15 22.8273 26.1725 22.7645 26.1725 22.7645L26.1703 22.7612L26.16 22.7457C26.1506 22.7316 26.136 22.7105 26.117 22.6842C26.0789 22.6312 26.024 22.5591 25.9576 22.4825C25.8146 22.3176 25.657 22.1784 25.5257 22.1241C25.3945 22.0697 25.1777 22.0539 24.9501 22.0652C24.8445 22.0705 24.7501 22.0808 24.6822 22.0898C24.6485 22.0943 24.6218 22.0984 24.6042 22.1013L24.585 22.1045L24.5809 22.1052Z" fill="black" fill-opacity="0.88"/>
</svg>
