<svg width="50" height="51" viewBox="0 0 50 51" fill="none" xmlns="http://www.w3.org/2000/svg">
<path d="M25.5 48.2305C15.1659 34.2235 10 24.2576 10 18.3305C10 14.0605 11.633 9.96538 14.5398 6.94605C17.4467 3.92671 21.3891 2.23047 25.5 2.23047C29.6109 2.23047 33.5533 3.92671 36.4602 6.94605C39.367 9.96538 41 14.0605 41 18.3305C41 24.2576 35.8341 34.2235 25.5 48.2305ZM25.5 27.5305C27.8491 27.5305 30.1019 26.5612 31.7629 24.8359C33.424 23.1105 34.3571 20.7705 34.3571 18.3305C34.3571 15.8905 33.424 13.5504 31.7629 11.8251C30.1019 10.0998 27.8491 9.13047 25.5 9.13047C23.1509 9.13047 20.8981 10.0998 19.2371 11.8251C17.576 13.5504 16.6429 15.8905 16.6429 18.3305C16.6429 20.7705 17.576 23.1105 19.2371 24.8359C20.8981 26.5612 23.1509 27.5305 25.5 27.5305Z" fill="#A0D911"/>
<circle cx="25.5" cy="18.1465" r="11" fill="white"/>
<path fill-rule="evenodd" clip-rule="evenodd" d="M28.3473 16.0475C28.1509 15.8511 28.0817 15.2889 28.6036 14.767C29.1255 14.2451 29.6877 14.3144 29.8841 14.5108C30.0805 14.7072 30.1497 15.2693 29.6278 15.7913C29.1059 16.3132 28.5437 16.2439 28.3473 16.0475ZM27.9546 16.4402C27.4541 15.9397 27.5682 15.0142 28.2095 14.3729C28.8507 13.7317 29.7763 13.6176 30.2768 14.1181C30.7773 14.6185 30.6632 15.5441 30.0219 16.1854C29.3807 16.8266 28.4551 16.9407 27.9546 16.4402Z" fill="black" fill-opacity="0.88"/>
<path fill-rule="evenodd" clip-rule="evenodd" d="M25.0352 19.3597C24.8388 19.1633 24.7695 18.6011 25.2914 18.0792C25.8133 17.5573 26.3755 17.6265 26.5719 17.8229C26.7683 18.0193 26.8376 18.5815 26.3157 19.1034C25.7937 19.6254 25.2316 19.5561 25.0352 19.3597ZM24.6424 19.7524C24.142 19.2519 24.2561 18.3263 24.8973 17.6851C25.5386 17.0438 26.4641 16.9297 26.9646 17.4302C27.4651 17.9307 27.351 18.8563 26.7097 19.4975C26.0685 20.1388 25.1429 20.2529 24.6424 19.7524Z" fill="black" fill-opacity="0.88"/>
<path fill-rule="evenodd" clip-rule="evenodd" d="M21.6809 22.7139C21.4845 22.5175 21.4152 21.9554 21.9372 21.4334C22.4591 20.9115 23.0212 20.9808 23.2176 21.1772C23.414 21.3736 23.4833 21.9358 22.9614 22.4577C22.4395 22.9796 21.8773 22.9103 21.6809 22.7139ZM21.2882 23.1066C20.7877 22.6062 20.9018 21.6806 21.5431 21.0393C22.1843 20.3981 23.1099 20.284 23.6104 20.7845C24.1109 21.285 23.9967 22.2105 23.3555 22.8518C22.7142 23.493 21.7887 23.6071 21.2882 23.1066Z" fill="black" fill-opacity="0.88"/>
<path fill-rule="evenodd" clip-rule="evenodd" d="M30.1008 12.396C29.2101 12.375 28.0682 12.5041 27.3411 13.2068C26.9004 13.6328 26.5862 14.2983 26.3856 14.826C26.2832 15.0952 26.2065 15.3393 26.1553 15.5162C26.1422 15.5617 26.1307 15.6028 26.1209 15.6389C26.0893 15.6466 26.0538 15.6555 26.015 15.6656C25.8476 15.7091 25.6165 15.7749 25.3612 15.8645C24.8616 16.0399 24.2273 16.3205 23.8162 16.7316C23.4052 17.1427 23.1245 17.777 22.9491 18.2766C22.8595 18.5318 22.7937 18.763 22.7502 18.9304C22.7403 18.9687 22.7315 19.0036 22.7238 19.0349C22.6937 19.0429 22.66 19.052 22.6233 19.0622C22.4587 19.1081 22.231 19.1766 21.9785 19.2679C21.4829 19.447 20.8549 19.7262 20.4332 20.1149C19.6493 20.8377 19.4503 22.0469 19.4244 23.0016C19.4111 23.4898 19.4427 23.9351 19.4775 24.2579C19.4949 24.4196 19.5131 24.5514 19.5272 24.6432C19.5342 24.6892 19.5401 24.7252 19.5444 24.7501L19.5495 24.779L19.5509 24.7869L19.5513 24.7891L19.5823 24.8545L20.0524 24.3844C20.0588 24.4268 20.0486 24.3627 20.0524 24.3844C20.0394 24.2997 20.0471 24.3529 20.0306 24.2003C19.9977 23.8946 19.9681 23.4752 19.9805 23.0186C20.0059 22.0836 20.2055 21.0829 20.8111 20.5246C21.1474 20.2145 21.6868 19.9655 22.1692 19.7912C22.4056 19.7058 22.6195 19.6413 22.7742 19.5983C22.8514 19.5768 22.9136 19.5607 22.956 19.5501C22.9773 19.5448 22.9936 19.5409 23.0043 19.5383L23.0162 19.5355L23.0189 19.5349C23.0189 19.5349 23.091 19.5235 23.1631 19.4514C23.2184 19.3962 23.2296 19.32 23.2296 19.32L23.2302 19.3168L23.2328 19.3048C23.2351 19.2939 23.2387 19.2775 23.2437 19.256C23.2535 19.213 23.2685 19.1501 23.2887 19.072C23.3294 18.9156 23.3909 18.6998 23.4742 18.4625C23.6446 17.977 23.8921 17.4439 24.2103 17.1257C24.5285 16.8075 25.0617 16.56 25.5471 16.3895C25.7844 16.3062 26.0002 16.2447 26.1566 16.2041C26.2347 16.1838 26.2976 16.1689 26.3406 16.159C26.3621 16.1541 26.3786 16.1505 26.3894 16.1482L26.4014 16.1456C26.4014 16.1456 26.5009 16.1151 26.5483 16.0663C26.595 16.0181 26.6229 15.9202 26.6229 15.9202C26.6258 15.9086 26.6302 15.8911 26.6361 15.8682C26.6479 15.8224 26.6658 15.7555 26.6898 15.6725C26.7379 15.5063 26.81 15.2771 26.9057 15.0253C27.1012 14.511 27.3804 13.9439 27.7285 13.6075C28.2837 13.0708 29.2213 12.9317 30.0895 12.9522C30.5133 12.9623 30.9 13.0097 31.1811 13.0549C31.3213 13.0774 31.2746 13.0691 31.3522 13.0852L31.8124 12.6249L31.7587 12.6004L31.7578 12.6002L31.7557 12.5997L31.7484 12.598L31.7217 12.5918C31.6988 12.5866 31.6655 12.5793 31.6231 12.5705C31.5384 12.553 31.4169 12.5296 31.2674 12.5056C30.9691 12.4576 30.5564 12.4068 30.1008 12.396Z" fill="black" fill-opacity="0.88"/>
<path fill-rule="evenodd" clip-rule="evenodd" d="M32.0408 14.336C32.0619 15.2267 31.9328 16.3686 31.2301 17.0957C30.8041 17.5365 30.1386 17.8506 29.6108 18.0512C29.3416 18.1536 29.0975 18.2303 28.9206 18.2815C28.8751 18.2946 28.834 18.3061 28.7979 18.3159C28.7902 18.3476 28.7813 18.383 28.7712 18.4218C28.7277 18.5892 28.6619 18.8204 28.5723 19.0756C28.3969 19.5752 28.1163 20.2095 27.7052 20.6206C27.2941 21.0317 26.6599 21.3123 26.1602 21.4877C25.905 21.5773 25.6738 21.6431 25.5064 21.6866C25.4682 21.6965 25.4332 21.7053 25.4019 21.713C25.3939 21.7431 25.3848 21.7768 25.3746 21.8135C25.3288 21.9782 25.2602 22.2058 25.1689 22.4584C24.9898 22.9539 24.7107 23.5819 24.3219 24.0036C23.5991 24.7875 22.3899 24.9866 21.4352 25.0125C20.947 25.0257 20.5017 24.9941 20.1789 24.9593C20.0172 24.9419 19.8855 24.9237 19.7936 24.9097C19.7476 24.9026 19.7116 24.8967 19.6867 24.8924L19.6578 24.8873L19.5823 24.8545L19.6477 24.8855C19.6477 24.8855 19.5902 24.8559 19.5823 24.8545L20.0524 24.3844C20.0741 24.3882 20.01 24.378 20.0524 24.3844C20.1371 24.3974 20.0839 24.3898 20.2365 24.4062C20.5422 24.4391 20.9616 24.4687 21.4182 24.4563C22.3532 24.4309 23.3539 24.2313 23.9122 23.6257C24.2223 23.2894 24.4713 22.75 24.6456 22.2676C24.731 22.0312 24.7955 21.8173 24.8385 21.6626C24.86 21.5854 24.8761 21.5232 24.8867 21.4808C24.892 21.4595 24.8959 21.4433 24.8985 21.4325L24.9013 21.4206L24.9019 21.4179C24.9019 21.4179 24.9133 21.3458 24.9854 21.2737C25.0406 21.2185 25.1168 21.2072 25.1168 21.2072L25.12 21.2066L25.132 21.204C25.1429 21.2017 25.1594 21.1981 25.1808 21.1932C25.2238 21.1833 25.2867 21.1683 25.3648 21.1481C25.5212 21.1075 25.737 21.046 25.9743 20.9626C26.4598 20.7922 26.9929 20.5447 27.3111 20.2265C27.6293 19.9083 27.8769 19.3752 28.0473 18.8897C28.1306 18.6524 28.1921 18.4366 28.2327 18.2802C28.253 18.2021 28.268 18.1392 28.2778 18.0962C28.2827 18.0747 28.2863 18.0583 28.2887 18.0474L28.2912 18.0354C28.2912 18.0354 28.3217 17.936 28.3705 17.8885C28.4187 17.8418 28.5166 17.8139 28.5166 17.8139C28.5282 17.811 28.5457 17.8066 28.5686 17.8007C28.6144 17.7889 28.6813 17.771 28.7643 17.747C28.9305 17.6989 29.1597 17.6268 29.4115 17.5311C29.9258 17.3356 30.4929 17.0564 30.8294 16.7083C31.366 16.1531 31.5051 15.2155 31.4846 14.3473C31.4745 13.9235 31.4271 13.5369 31.3819 13.2557C31.3594 13.1155 31.3683 13.1628 31.3522 13.0852L31.8124 12.6249L31.8364 12.6781L31.8366 12.679L31.8371 12.6811L31.8389 12.6884L31.845 12.7151C31.8502 12.7381 31.8575 12.7713 31.8663 12.8137C31.8839 12.8984 31.9073 13.0199 31.9313 13.1694C31.9792 13.4677 32.03 13.8804 32.0408 14.336Z" fill="black" fill-opacity="0.88"/>
</svg>
