<svg width="51" height="50" viewBox="0 0 51 50" fill="none" xmlns="http://www.w3.org/2000/svg">
<path d="M26.0833 48.083C15.7493 34.076 10.5833 24.1101 10.5833 18.183C10.5833 13.913 12.2164 9.81794 15.1232 6.79861C18.03 3.77927 21.9725 2.08303 26.0833 2.08303C30.1942 2.08303 34.1367 3.77927 37.0435 6.79861C39.9503 9.81794 41.5833 13.913 41.5833 18.183C41.5833 24.1101 36.4174 34.076 26.0833 48.083ZM26.0833 27.383C28.4324 27.383 30.6852 26.4137 32.3463 24.6884C34.0073 22.9631 34.9405 20.623 34.9405 18.183C34.9405 15.743 34.0073 13.403 32.3463 11.6776C30.6852 9.95231 28.4324 8.98303 26.0833 8.98303C23.7343 8.98303 21.4814 9.95231 19.8204 11.6776C18.1593 13.403 17.2262 15.743 17.2262 18.183C17.2262 20.623 18.1593 22.9631 19.8204 24.6884C21.4814 26.4137 23.7343 27.383 26.0833 27.383Z" fill="#FF9C6E"/>
<circle cx="26.0833" cy="17.9991" r="11" fill="white"/>
<path fill-rule="evenodd" clip-rule="evenodd" d="M29.4431 22.4902C29.8506 21.9469 30.0397 21.5009 30.0397 21.1784C30.0397 19.5275 28.3698 18.0287 26.0872 18.0287C23.8046 18.0287 22.1346 19.5275 22.1346 21.1784C22.1346 21.5009 22.3237 21.9469 22.7312 22.4902C23.1255 23.016 23.664 23.5538 24.2216 24.0447C24.7761 24.533 25.3332 24.9606 25.7531 25.267C25.8784 25.3583 25.991 25.4386 26.0872 25.5061C26.1834 25.4386 26.296 25.3583 26.4212 25.267C26.8411 24.9606 27.3982 24.533 27.9528 24.0447C28.5104 23.5538 29.0488 23.016 29.4431 22.4902ZM26.0872 26.2548C26.0872 26.2548 30.6734 23.2552 30.6734 21.1784C30.6734 19.1017 28.6201 17.4181 26.0872 17.4181C23.5542 17.4181 21.5009 19.1017 21.5009 21.1784C21.5009 23.2552 26.0872 26.2548 26.0872 26.2548Z" fill="black" fill-opacity="0.88"/>
<path fill-rule="evenodd" clip-rule="evenodd" d="M26.3242 10.7888L26.0872 10.9915L25.8502 10.7888L26.0872 10.5316L26.3242 10.7888ZM26.0872 15.8115C25.8502 16.0141 25.8501 16.014 25.8501 16.014L25.8496 16.0135L25.8486 16.0124L25.8453 16.0088L25.8335 15.9957C25.8234 15.9845 25.809 15.9683 25.7909 15.9476C25.7547 15.9061 25.7036 15.8463 25.6426 15.7715C25.5208 15.6222 25.3581 15.4114 25.1948 15.1656C24.8788 14.6896 24.5195 14.0223 24.5195 13.4015C24.5195 12.7806 24.8788 12.1133 25.1948 11.6374C25.3581 11.3915 25.5208 11.1807 25.6426 11.0314C25.7036 10.9566 25.7547 10.8968 25.7909 10.8554C25.809 10.8346 25.8234 10.8185 25.8335 10.8072L25.8453 10.7942L25.8486 10.7905L25.8496 10.7894L25.8502 10.7888C25.8502 10.7888 25.8502 10.7888 26.0872 10.9915C26.3242 10.7888 26.3242 10.7888 26.3242 10.7888L26.3247 10.7894L26.3257 10.7905L26.329 10.7942L26.3408 10.8072C26.3509 10.8185 26.3653 10.8346 26.3834 10.8554C26.4196 10.8968 26.4707 10.9566 26.5317 11.0314C26.6535 11.1807 26.8162 11.3915 26.9795 11.6374C27.2955 12.1133 27.6548 12.7806 27.6548 13.4015C27.6548 14.0223 27.2955 14.6896 26.9795 15.1656C26.8162 15.4114 26.6535 15.6222 26.5317 15.7715C26.4707 15.8463 26.4196 15.9061 26.3834 15.9476C26.3653 15.9683 26.3509 15.9845 26.3408 15.9957L26.329 16.0088L26.3257 16.0124L26.3243 16.014C26.3243 16.014 26.3242 16.0141 26.0872 15.8115ZM26.0872 15.8115L25.8501 16.014L26.0872 16.2714L26.3243 16.014L26.0872 15.8115ZM26.0872 15.3276C26.1917 15.1964 26.3188 15.0275 26.4456 14.8366C26.755 14.3706 27.0211 13.8329 27.0211 13.4015C27.0211 12.9701 26.755 12.4323 26.4456 11.9664C26.3188 11.7754 26.1917 11.6065 26.0872 11.4753C25.9827 11.6065 25.8555 11.7754 25.7287 11.9664C25.4193 12.4323 25.1532 12.9701 25.1532 13.4015C25.1532 13.8329 25.4193 14.3706 25.7287 14.8366C25.8555 15.0275 25.9827 15.1964 26.0872 15.3276Z" fill="black" fill-opacity="0.88"/>
<path fill-rule="evenodd" clip-rule="evenodd" d="M31.233 13.8539L31.1884 14.1561L31.4946 14.2346L31.5865 13.9023L31.233 13.8539ZM27.0162 16.8163C26.9716 17.1186 26.9718 17.1186 26.9718 17.1186L26.9725 17.1187L26.9739 17.1189L26.979 17.1195L26.9968 17.1218C27.0121 17.1237 27.034 17.1263 27.062 17.1294C27.1178 17.1356 27.1977 17.1437 27.2962 17.1514C27.4926 17.1669 27.7649 17.1813 28.0678 17.1767C28.6542 17.1679 29.4301 17.0883 29.9675 16.7456C30.5049 16.403 30.8842 15.746 31.1218 15.2294C31.2445 14.9626 31.3372 14.7155 31.3992 14.5353C31.4302 14.445 31.4538 14.3709 31.4697 14.319C31.4777 14.293 31.4837 14.2725 31.4879 14.2582L31.4927 14.2415L31.494 14.2368L31.4944 14.2354L31.4946 14.2346C31.4946 14.2346 31.4946 14.2346 31.1884 14.1561C31.233 13.8539 31.233 13.8539 31.233 13.8539L31.2322 13.8537L31.2307 13.8535L31.2257 13.8529L31.2078 13.8506C31.1926 13.8487 31.1706 13.8461 31.1427 13.843C31.0868 13.8368 31.0069 13.8287 30.9085 13.821C30.712 13.8055 30.4397 13.7911 30.1368 13.7957C29.5504 13.8045 28.7745 13.8841 28.2371 14.2268C27.6997 14.5695 27.3204 15.2264 27.0828 15.743C26.9601 16.0098 26.8674 16.2569 26.8055 16.4371C26.7744 16.5274 26.7508 16.6015 26.7349 16.6534C26.727 16.6794 26.7209 16.6999 26.7168 16.7142L26.712 16.7309L26.7106 16.7356L26.7101 16.7376C26.7101 16.7376 26.71 16.7378 27.0162 16.8163ZM27.0162 16.8163L26.9718 17.1186L26.6182 17.0701L26.7101 16.7376L27.0162 16.8163ZM27.435 16.5493C27.4909 16.3929 27.5669 16.1975 27.6623 15.9903C27.8948 15.4845 28.2135 14.974 28.5869 14.7359C28.9603 14.4978 29.5726 14.4148 30.1467 14.4062C30.382 14.4026 30.5984 14.4116 30.7696 14.4231C30.7137 14.5795 30.6377 14.7749 30.5424 14.9821C30.3098 15.4879 29.9912 15.9984 29.6178 16.2365C29.2444 16.4746 28.6321 16.5576 28.0579 16.5662C27.8227 16.5698 27.6063 16.5608 27.435 16.5493Z" fill="black" fill-opacity="0.88"/>
<path fill-rule="evenodd" clip-rule="evenodd" d="M20.9337 13.8531L20.9783 14.1553L20.6721 14.2339L20.5802 13.9015L20.9337 13.8531ZM25.1504 16.8155C25.195 17.1178 25.1949 17.1178 25.1949 17.1178L25.1942 17.1179L25.1927 17.1181L25.1877 17.1187L25.1699 17.121C25.1546 17.1229 25.1326 17.1255 25.1047 17.1286C25.0488 17.1348 24.9689 17.1429 24.8705 17.1506C24.674 17.1661 24.4018 17.1805 24.0988 17.1759C23.5124 17.1671 22.7365 17.0875 22.1991 16.7448C21.6617 16.4022 21.2824 15.7452 21.0449 15.2287C20.9221 14.9618 20.8295 14.7147 20.7675 14.5345C20.7364 14.4442 20.7129 14.3701 20.697 14.3182C20.689 14.2922 20.6829 14.2717 20.6788 14.2574L20.674 14.2407L20.6727 14.236L20.6723 14.2346L20.6721 14.2339C20.6721 14.2339 20.6721 14.2339 20.9783 14.1553C20.9337 13.8531 20.9337 13.8531 20.9337 13.8531L20.9345 13.853L20.936 13.8528L20.941 13.8521L20.9588 13.8498C20.9741 13.8479 20.996 13.8453 21.024 13.8422C21.0798 13.836 21.1598 13.8279 21.2582 13.8202C21.4546 13.8047 21.7269 13.7904 22.0299 13.7949C22.6162 13.8037 23.3922 13.8833 23.9296 14.226C24.467 14.5687 24.8462 15.2256 25.0838 15.7422C25.2065 16.009 25.2992 16.2561 25.3612 16.4363C25.3923 16.5267 25.4158 16.6007 25.4317 16.6526C25.4397 16.6786 25.4457 16.6991 25.4499 16.7134L25.4547 16.7301L25.456 16.7348L25.4566 16.7368C25.4566 16.7368 25.4566 16.737 25.1504 16.8155ZM25.1504 16.8155L25.1949 17.1178L25.5485 17.0694L25.4566 16.7368L25.1504 16.8155ZM24.7316 16.5485C24.6757 16.3921 24.5997 16.1968 24.5044 15.9895C24.2718 15.4838 23.9532 14.9732 23.5798 14.7351C23.2064 14.497 22.5941 14.414 22.02 14.4054C21.7847 14.4018 21.5683 14.4108 21.3971 14.4223C21.453 14.5787 21.529 14.7741 21.6243 14.9813C21.8569 15.4871 22.1755 15.9976 22.5489 16.2357C22.9223 16.4738 23.5346 16.5568 24.1087 16.5655C24.344 16.569 24.5604 16.56 24.7316 16.5485Z" fill="black" fill-opacity="0.88"/>
</svg>
