<svg width="51" height="50" viewBox="0 0 51 50" fill="none" xmlns="http://www.w3.org/2000/svg">
<path d="M26.0833 48.083C15.7493 34.076 10.5833 24.1101 10.5833 18.183C10.5833 13.913 12.2164 9.81794 15.1232 6.79861C18.03 3.77927 21.9725 2.08303 26.0833 2.08303C30.1942 2.08303 34.1367 3.77927 37.0435 6.79861C39.9503 9.81794 41.5833 13.913 41.5833 18.183C41.5833 24.1101 36.4174 34.076 26.0833 48.083ZM26.0833 27.383C28.4324 27.383 30.6852 26.4137 32.3463 24.6884C34.0073 22.9631 34.9405 20.623 34.9405 18.183C34.9405 15.743 34.0073 13.403 32.3463 11.6776C30.6852 9.95231 28.4324 8.98303 26.0833 8.98303C23.7343 8.98303 21.4814 9.95231 19.8204 11.6776C18.1593 13.403 17.2262 15.743 17.2262 18.183C17.2262 20.623 18.1593 22.9631 19.8204 24.6884C21.4814 26.4137 23.7343 27.383 26.0833 27.383Z" fill="#FFF566"/>
<circle cx="26.0833" cy="17.9991" r="11" fill="white"/>
<path fill-rule="evenodd" clip-rule="evenodd" d="M24.8872 14.2042L24.5569 14.3248L24.4372 13.9676L24.7462 13.8956L24.8872 14.2042ZM19.8032 24.1273C19.4631 24.2248 19.463 24.2244 19.463 24.2244L19.4624 24.2228L19.4613 24.22L19.4581 24.2114C19.4556 24.2044 19.4522 24.195 19.448 24.1832C19.4398 24.1595 19.4286 24.1261 19.4154 24.0834C19.3889 23.9982 19.3542 23.8758 19.3185 23.7199C19.247 23.4081 19.1712 22.9617 19.1484 22.409C19.1028 21.3019 19.2704 19.7738 20.1046 18.0536C20.9388 16.3334 22.0067 15.3139 22.8755 14.7234C23.3093 14.4286 23.6923 14.2414 23.9704 14.1271C24.1095 14.0699 24.2224 14.0309 24.3024 14.0058C24.3424 13.9933 24.3742 13.9842 24.397 13.978C24.4083 13.9749 24.4174 13.9725 24.4242 13.9708L24.4325 13.9688L24.4353 13.9681L24.4364 13.9678L24.4372 13.9676C24.4372 13.9676 24.4372 13.9676 24.5569 14.3248C24.8872 14.2042 24.8872 14.2042 24.8872 14.2042L24.8877 14.2051L24.8882 14.2063L24.8895 14.2094L24.8934 14.218C24.8964 14.2249 24.9003 14.2342 24.905 14.2457C24.9145 14.2687 24.9272 14.3008 24.9422 14.3417C24.9721 14.4235 25.0111 14.5406 25.0514 14.6905C25.1321 14.9904 25.2179 15.4216 25.2471 15.9651C25.3055 17.0542 25.1358 18.5831 24.2554 20.3985C23.3751 22.214 22.3078 23.2358 21.4453 23.8047C21.0149 24.0885 20.6377 24.2582 20.3634 24.3576C20.2264 24.4073 20.115 24.4394 20.0357 24.4595C19.996 24.4695 19.9643 24.4765 19.9414 24.4812C19.9299 24.4836 19.9207 24.4853 19.9137 24.4866L19.9049 24.4882L19.9018 24.4887L19.9006 24.4889C19.9006 24.4889 19.8996 24.4891 19.8032 24.1273ZM19.8032 24.1273L19.463 24.2244L19.5843 24.5399L19.8996 24.4891L19.8032 24.1273ZM20.04 23.6687C20.043 23.6677 20.0459 23.6666 20.0489 23.6655C20.2796 23.5819 20.6113 23.434 20.9969 23.1797C21.7661 22.6724 22.7585 21.7358 23.5895 20.0223C24.4204 18.3088 24.5679 16.8949 24.5157 15.9235C24.4896 15.4367 24.4132 15.0582 24.3453 14.8059C24.3445 14.8026 24.3436 14.7994 24.3427 14.7962C24.3322 14.8004 24.3215 14.8047 24.3106 14.8092C24.0689 14.9086 23.7252 15.0757 23.3311 15.3435C22.5444 15.8782 21.5526 16.8172 20.7706 18.4298C19.9885 20.0425 19.8389 21.4572 19.8802 22.4597C19.9009 22.9618 19.9695 23.3618 20.0316 23.6328C20.0344 23.6451 20.0372 23.657 20.04 23.6687Z" fill="black" fill-opacity="0.88"/>
<path fill-rule="evenodd" clip-rule="evenodd" d="M29.8892 19.2047L29.7659 19.5338L30.123 19.6535L30.1946 19.3469L29.8892 19.2047ZM29.2954 19.7457C29.2923 19.7449 29.2892 19.744 29.286 19.7432C29.036 19.6746 28.6604 19.5969 28.1765 19.5696C27.211 19.515 25.8026 19.6597 24.0891 20.4906L23.7129 19.8246C25.5284 18.9442 27.0524 18.777 28.137 18.8384C28.6782 18.869 29.1072 18.9563 29.4054 19.0381C29.5545 19.079 29.6709 19.1185 29.7522 19.1489C29.7929 19.1641 29.8248 19.1769 29.8478 19.1866C29.8592 19.1914 29.8684 19.1954 29.8753 19.1984L29.884 19.2023L29.887 19.2037L29.8882 19.2043C29.8882 19.2043 29.8892 19.2047 29.7659 19.5338C30.123 19.6535 30.123 19.6535 30.123 19.6535L30.1229 19.6543L30.1226 19.6553L30.1219 19.6582L30.1199 19.6665C30.1182 19.6732 30.1158 19.6824 30.1127 19.6937C30.1065 19.7165 30.0974 19.7483 30.0849 19.7883C30.0597 19.8683 30.0208 19.9812 29.9636 20.1202C29.8493 20.3983 29.6621 20.7814 29.3673 21.2152C28.7768 22.084 27.7573 23.1519 26.0371 23.9861C24.3111 24.8231 22.7208 24.9568 21.5563 24.8781C20.9747 24.8387 20.5238 24.7445 20.1661 24.6801C19.9782 24.6463 19.88 24.6151 19.7438 24.5823C19.6983 24.5673 19.6094 24.549 19.5843 24.5399C19.5718 24.5353 19.5915 24.5426 19.5843 24.5399C19.5843 24.5399 19.5843 24.5399 19.7319 24.1602C19.8338 23.8218 19.8335 23.8217 19.8335 23.8217L19.8364 23.8228L19.8547 23.8296C19.872 23.8359 19.8995 23.8457 19.9367 23.8579C20.0109 23.8823 20.1237 23.9166 20.2705 23.9536C20.5643 24.0274 20.9938 24.1114 21.5249 24.1474C22.5857 24.2191 24.054 24.0993 25.6609 23.3201C27.2735 22.538 28.2125 21.5463 28.7472 20.7595C29.015 20.3655 29.1821 20.0218 29.2815 19.7801C29.2863 19.7684 29.2909 19.757 29.2954 19.7457Z" fill="black" fill-opacity="0.88"/>
<path fill-rule="evenodd" clip-rule="evenodd" d="M31.7646 13.3637C31.6926 13.1518 31.5681 12.9533 31.4387 12.8266C31.3002 12.6909 31.2861 12.4801 31.4073 12.3558C31.5285 12.2314 31.739 12.2406 31.8776 12.3763C32.1046 12.5988 32.2887 12.9052 32.3936 13.2138C32.497 13.5184 32.5399 13.8767 32.4141 14.1788C32.3168 14.4125 32.1065 14.6121 31.9574 14.7366C31.921 14.7671 31.8855 14.7951 31.8526 14.8203C31.8729 14.882 31.894 14.9525 31.9129 15.0285C31.9726 15.2685 32.0315 15.6414 31.8918 15.9458C31.7532 16.2478 31.4313 16.449 31.209 16.5639C31.134 16.6026 31.0619 16.6357 30.9982 16.6629C31.0106 16.7371 31.0227 16.8228 31.0312 16.915C31.0568 17.1905 31.0591 17.5948 30.8802 17.8992C30.7223 18.1681 30.4186 18.3632 30.2002 18.4813C30.0838 18.5443 29.976 18.5935 29.8973 18.627C29.8577 18.6439 29.8251 18.6569 29.8019 18.6659C29.7903 18.6704 29.7811 18.6739 29.7744 18.6764L29.7665 18.6794L29.764 18.6802L29.7632 18.6805C29.7632 18.6805 29.7627 18.6807 29.6204 18.3655L29.7632 18.6805C29.5968 18.7403 29.3976 18.6478 29.319 18.4737C29.2405 18.2997 29.3116 18.1102 29.4779 18.0504L29.4786 18.0501L29.4831 18.0485L29.5031 18.0408C29.5211 18.0339 29.5478 18.0232 29.5809 18.0091C29.6475 17.9807 29.7383 17.9393 29.8349 17.887C30.0425 17.7746 30.2226 17.6408 30.2958 17.5163C30.3733 17.3843 30.3908 17.1536 30.3676 16.9034C30.3568 16.7871 30.3388 16.6818 30.3234 16.6057C30.3157 16.5678 30.3088 16.5378 30.304 16.5178C30.3017 16.5078 30.2998 16.5004 30.2986 16.4959L30.2974 16.4913L30.4876 16.1189L30.4926 16.1173L30.5133 16.1103C30.532 16.1038 30.5597 16.0939 30.594 16.0806C30.6629 16.054 30.7559 16.0147 30.8534 15.9644C31.0674 15.8538 31.2293 15.726 31.2804 15.6146C31.3268 15.5134 31.3197 15.3328 31.2669 15.1205C31.2429 15.024 31.2135 14.9371 31.1901 14.8742C31.1784 14.843 31.1685 14.8184 31.1617 14.8022L31.1543 14.7847L31.153 14.7817C31.0849 14.6313 31.1278 14.4651 31.2555 14.385L31.2589 14.3829L31.2725 14.3741C31.2847 14.366 31.303 14.3537 31.3256 14.3378C31.3712 14.3059 31.433 14.2603 31.4982 14.2059C31.6399 14.0876 31.7547 13.9621 31.7943 13.8668C31.8398 13.7576 31.8379 13.5797 31.7646 13.3637ZM30.4876 16.1189C30.3342 16.1673 30.2529 16.3266 30.2974 16.4913L30.4876 16.1189Z" fill="black" fill-opacity="0.88"/>
<path fill-rule="evenodd" clip-rule="evenodd" d="M30.8559 12.4551C31.0678 12.5271 31.2664 12.6516 31.393 12.7809C31.5287 12.9195 31.7396 12.9335 31.8639 12.8123C31.9882 12.6912 31.979 12.4806 31.8433 12.3421C31.6209 12.115 31.3144 11.9309 31.0058 11.8261C30.7013 11.7227 30.343 11.6797 30.0409 11.8055C29.8071 11.9028 29.6075 12.1131 29.483 12.2622C29.4526 12.2987 29.4245 12.3341 29.3994 12.367C29.3376 12.3467 29.2671 12.3257 29.1912 12.3068C28.9512 12.2471 28.5782 12.1882 28.2739 12.3278C27.9718 12.4664 27.7707 12.7884 27.6558 13.0107C27.617 13.0857 27.584 13.1578 27.5568 13.2215C27.4825 13.209 27.3968 13.197 27.3047 13.1884C27.0292 13.1628 26.6249 13.1606 26.3205 13.3394C26.0516 13.4974 25.8565 13.801 25.7383 14.0194C25.6753 14.1358 25.6261 14.2437 25.5926 14.3224C25.5758 14.3619 25.5627 14.3945 25.5537 14.4177C25.5492 14.4293 25.5457 14.4386 25.5432 14.4452L25.5403 14.4532L25.5394 14.4556L25.5391 14.4564C25.5391 14.4564 25.5389 14.457 25.8541 14.5992L25.5391 14.4564C25.4794 14.6229 25.5719 14.8221 25.746 14.9006C25.92 14.9791 26.1094 14.908 26.1693 14.7417L26.1695 14.741L26.1712 14.7366L26.1788 14.7166C26.1858 14.6986 26.1965 14.6718 26.2106 14.6387C26.2389 14.5721 26.2804 14.4814 26.3327 14.3848C26.445 14.1771 26.5788 13.997 26.7034 13.9239C26.8354 13.8463 27.066 13.8288 27.3163 13.8521C27.4326 13.8629 27.5378 13.8809 27.614 13.8963C27.6518 13.9039 27.6819 13.9108 27.7019 13.9156C27.7118 13.918 27.7192 13.9199 27.7238 13.921L27.7284 13.9222L28.1007 13.7321L28.1024 13.7271L28.1094 13.7063C28.1158 13.6877 28.1258 13.6599 28.139 13.6257C28.1657 13.5568 28.2049 13.4637 28.2553 13.3663C28.3659 13.1522 28.4936 12.9904 28.6051 12.9392C28.7062 12.8928 28.8868 12.8999 29.0991 12.9528C29.1957 12.9768 29.2826 13.0061 29.3455 13.0296C29.3767 13.0412 29.4013 13.0512 29.4174 13.0579L29.4349 13.0653L29.438 13.0667C29.5884 13.1348 29.7545 13.0918 29.8346 12.9641L29.8368 12.9608L29.8456 12.9472C29.8537 12.9349 29.866 12.9166 29.8818 12.894C29.9138 12.8485 29.9593 12.7867 30.0137 12.7215C30.132 12.5798 30.2575 12.465 30.3529 12.4253C30.4621 12.3798 30.6399 12.3818 30.8559 12.4551ZM28.1007 13.7321C28.0524 13.8854 27.8931 13.9668 27.7284 13.9222L28.1007 13.7321Z" fill="black" fill-opacity="0.88"/>
</svg>
