<svg width="51" height="50" viewBox="0 0 51 50" fill="none" xmlns="http://www.w3.org/2000/svg">
<path d="M26.0833 48.083C15.7492 34.076 10.5833 24.1101 10.5833 18.183C10.5833 13.913 12.2163 9.81794 15.1232 6.79861C18.03 3.77927 21.9725 2.08303 26.0833 2.08303C30.1942 2.08303 34.1367 3.77927 37.0435 6.79861C39.9503 9.81794 41.5833 13.913 41.5833 18.183C41.5833 24.1101 36.4174 34.076 26.0833 48.083ZM26.0833 27.383C28.4324 27.383 30.6852 26.4137 32.3463 24.6884C34.0073 22.9631 34.9405 20.623 34.9405 18.183C34.9405 15.743 34.0073 13.403 32.3463 11.6776C30.6852 9.95231 28.4324 8.98303 26.0833 8.98303C23.7343 8.98303 21.4814 9.95231 19.8204 11.6776C18.1593 13.403 17.2262 15.743 17.2262 18.183C17.2262 20.623 18.1593 22.9631 19.8204 24.6884C21.4814 26.4137 23.7343 27.383 26.0833 27.383Z" fill="#FFC069"/>
<circle cx="26.0833" cy="17.9991" r="11" fill="white"/>
<path fill-rule="evenodd" clip-rule="evenodd" d="M23.1413 23.7459C25.4916 24.7194 28.7787 23.3038 30.2383 20.2604C31.6979 17.2169 30.6186 14.028 28.2683 13.0545C25.918 12.081 22.5936 13.4691 21.134 16.5125C19.6745 19.5559 20.7911 22.7724 23.1413 23.7459ZM22.855 24.3051C25.7095 25.4875 29.2929 23.7992 30.8588 20.5341C32.4246 17.2691 31.38 13.6637 28.5255 12.4813C25.671 11.2989 22.0875 12.9873 20.5217 16.2523C18.9558 19.5174 20.0005 23.1227 22.855 24.3051Z" fill="black" fill-opacity="0.88"/>
<path fill-rule="evenodd" clip-rule="evenodd" d="M26.938 18.2668C26.938 18.2668 26.9382 18.2668 26.8398 17.9836C26.766 17.642 26.7662 17.642 26.7662 17.642L26.7676 17.6417L26.7703 17.6412L26.7788 17.6397C26.7859 17.6385 26.7956 17.6368 26.8078 17.6348C26.8322 17.6309 26.8665 17.6256 26.9087 17.62C26.9926 17.6089 27.1097 17.596 27.2425 17.5894C27.492 17.5769 27.8608 17.5822 28.1636 17.7076C28.4663 17.833 28.7171 18.0844 28.8739 18.2651C28.9574 18.3614 29.0254 18.4509 29.0726 18.5163C29.0963 18.5492 29.115 18.5764 29.1282 18.5959C29.1347 18.6057 29.1399 18.6136 29.1437 18.6193L29.1481 18.6262L29.1495 18.6283L29.15 18.6291C29.15 18.6291 29.1504 18.6296 28.8277 18.807C28.5296 18.926 28.5297 18.9261 28.5297 18.9261L28.5275 18.9228L28.5172 18.9073C28.5077 18.8932 28.4932 18.8721 28.4742 18.8458C28.4361 18.7928 28.3812 18.7207 28.3148 18.6441C28.1717 18.4792 28.0141 18.34 27.8829 18.2857C27.7517 18.2313 27.5349 18.2155 27.3073 18.2268C27.2017 18.2321 27.1073 18.2424 27.0394 18.2514C27.0057 18.2559 26.979 18.26 26.9614 18.2629L26.9421 18.2661L26.938 18.2668Z" fill="black" fill-opacity="0.88"/>
<path fill-rule="evenodd" clip-rule="evenodd" d="M22.4708 18.6259C22.4708 18.6259 22.4494 18.6905 22.3756 18.3489C22.3018 18.0073 22.3019 18.0073 22.3019 18.0073L22.3034 18.007L22.3061 18.0065L22.3146 18.005C22.3216 18.0038 22.3314 18.0021 22.3436 18.0001C22.368 17.9962 22.4023 17.9909 22.4445 17.9853C22.5284 17.9742 22.6454 17.9613 22.7783 17.9547C23.0278 17.9422 23.3966 17.9475 23.6993 18.0729C24.0021 18.1983 24.2529 18.4497 24.4097 18.6304C24.4932 18.7267 24.5612 18.8162 24.6084 18.8816C24.6321 18.9145 24.6508 18.9417 24.6639 18.9612C24.6705 18.971 24.6757 18.9789 24.6794 18.9846L24.6839 18.9915L24.6853 18.9936L24.6858 18.9944C24.6858 18.9944 24.6862 18.9949 24.3635 19.1723C24.0408 19.3497 24.0624 19.2852 24.0624 19.2852L24.0602 19.2819L24.05 19.2664C24.0405 19.2523 24.0259 19.2311 24.007 19.2048C23.9688 19.1519 23.914 19.0798 23.8475 19.0032C23.7045 18.8383 23.5469 18.6991 23.4156 18.6447C23.2844 18.5904 23.0677 18.5745 22.8401 18.5859C22.7344 18.5912 22.64 18.6015 22.5721 18.6105C22.5384 18.615 22.5118 18.6191 22.4941 18.622L22.4749 18.6252L22.4708 18.6259Z" fill="black" fill-opacity="0.88"/>
<path fill-rule="evenodd" clip-rule="evenodd" d="M24.4512 15.1626C24.4512 15.1626 24.4514 15.1626 24.3635 14.8775C24.2897 14.5359 24.2898 14.5359 24.2898 14.5359L24.2913 14.5356L24.294 14.5351L24.3025 14.5336C24.3095 14.5324 24.3193 14.5307 24.3315 14.5287C24.3559 14.5248 24.3902 14.5195 24.4324 14.5139C24.5163 14.5028 24.6333 14.4899 24.7662 14.4833C25.0157 14.4708 25.3845 14.4761 25.6872 14.6015C25.99 14.7269 26.2408 14.9783 26.3976 15.159C26.4811 15.2553 26.5491 15.3448 26.5963 15.4102C26.62 15.4431 26.6387 15.4704 26.6518 15.4899C26.6584 15.4996 26.6636 15.5075 26.6673 15.5132L26.6718 15.5201L26.6732 15.5222L26.6737 15.523C26.6737 15.523 26.6881 15.467 26.3655 15.6444C26.0428 15.8218 26.0429 15.8219 26.0429 15.8219L26.0407 15.8185L26.0304 15.8031C26.0209 15.789 26.0064 15.7678 25.9874 15.7415C25.9493 15.6886 25.8944 15.6164 25.828 15.5399C25.6849 15.375 25.5273 15.2358 25.3961 15.1814C25.2649 15.1271 25.0481 15.1112 24.8205 15.1226C24.7149 15.1278 24.6205 15.1382 24.5526 15.1472C24.5189 15.1517 24.4922 15.1558 24.4746 15.1586L24.4553 15.1619L24.4512 15.1626Z" fill="black" fill-opacity="0.88"/>
<path fill-rule="evenodd" clip-rule="evenodd" d="M25.1639 21.9572C25.1639 21.9572 25.1416 22.0201 25.0678 21.6785C24.994 21.3369 24.9941 21.3369 24.9941 21.3369L24.9956 21.3366L24.9983 21.3361L25.0068 21.3346C25.0138 21.3334 25.0236 21.3317 25.0358 21.3298C25.0602 21.3258 25.0945 21.3205 25.1367 21.3149C25.2206 21.3038 25.3376 21.291 25.4705 21.2843C25.72 21.2719 26.0888 21.2771 26.3916 21.4025C26.6943 21.5279 26.9451 21.7793 27.1019 21.9601C27.1854 22.0563 27.2534 22.1458 27.3006 22.2113C27.3243 22.2441 27.343 22.2714 27.3561 22.2909C27.3627 22.3006 27.3679 22.3085 27.3716 22.3142L27.3761 22.3211L27.3775 22.3233L27.378 22.324C27.378 22.324 27.3784 22.3246 27.0557 22.5019C26.733 22.6793 26.7556 22.6165 26.7556 22.6165L26.7534 22.6132L26.7431 22.5977C26.7336 22.5836 26.7191 22.5624 26.7001 22.5361C26.662 22.4832 26.6071 22.4111 26.5407 22.3345C26.3976 22.1696 26.24 22.0304 26.1088 21.976C25.9776 21.9217 25.7608 21.9058 25.5332 21.9172C25.4275 21.9225 25.3331 21.9328 25.2653 21.9418C25.2316 21.9463 25.2049 21.9504 25.1873 21.9532L25.168 21.9565L25.1639 21.9572Z" fill="black" fill-opacity="0.88"/>
</svg>
