<svg width="51" height="50" viewBox="0 0 51 50" fill="none" xmlns="http://www.w3.org/2000/svg">
<path d="M26.0833 48.083C15.7493 34.076 10.5833 24.1101 10.5833 18.183C10.5833 13.913 12.2164 9.81794 15.1232 6.79861C18.03 3.77927 21.9725 2.08303 26.0833 2.08303C30.1942 2.08303 34.1367 3.77927 37.0435 6.79861C39.9503 9.81794 41.5833 13.913 41.5833 18.183C41.5833 24.1101 36.4174 34.076 26.0833 48.083ZM26.0833 27.383C28.4324 27.383 30.6852 26.4137 32.3463 24.6884C34.0073 22.9631 34.9405 20.623 34.9405 18.183C34.9405 15.743 34.0073 13.403 32.3463 11.6776C30.6852 9.95231 28.4324 8.98303 26.0833 8.98303C23.7343 8.98303 21.4814 9.95231 19.8204 11.6776C18.1593 13.403 17.2262 15.743 17.2262 18.183C17.2262 20.623 18.1593 22.9631 19.8204 24.6884C21.4814 26.4137 23.7343 27.383 26.0833 27.383Z" fill="#D3F261"/>
<circle cx="26.0833" cy="17.9991" r="11" fill="white"/>
<path fill-rule="evenodd" clip-rule="evenodd" d="M28.9324 15.9001C28.736 15.7037 28.6667 15.1415 29.1886 14.6196C29.7105 14.0977 30.2727 14.1669 30.4691 14.3633C30.6655 14.5598 30.7348 15.1219 30.2128 15.6438C29.6909 16.1658 29.1288 16.0965 28.9324 15.9001ZM28.5396 16.2928C28.0392 15.7923 28.1533 14.8668 28.7945 14.2255C29.4358 13.5842 30.3613 13.4701 30.8618 13.9706C31.3623 14.4711 31.2482 15.3967 30.6069 16.0379C29.9657 16.6792 29.0401 16.7933 28.5396 16.2928Z" fill="black" fill-opacity="0.88"/>
<path fill-rule="evenodd" clip-rule="evenodd" d="M25.6202 19.2122C25.4238 19.0158 25.3545 18.4537 25.8764 17.9318C26.3984 17.4098 26.9605 17.4791 27.1569 17.6755C27.3533 17.8719 27.4226 18.4341 26.9007 18.956C26.3788 19.4779 25.8166 19.4086 25.6202 19.2122ZM25.2275 19.605C24.727 19.1045 24.8411 18.1789 25.4823 17.5377C26.1236 16.8964 27.0492 16.7823 27.5496 17.2828C28.0501 17.7833 27.936 18.7088 27.2948 19.3501C26.6535 19.9913 25.728 20.1055 25.2275 19.605Z" fill="black" fill-opacity="0.88"/>
<path fill-rule="evenodd" clip-rule="evenodd" d="M22.2659 22.5665C22.0695 22.3701 22.0003 21.8079 22.5222 21.286C23.0441 20.7641 23.6063 20.8334 23.8027 21.0298C23.9991 21.2262 24.0683 21.7883 23.5464 22.3103C23.0245 22.8322 22.4623 22.7629 22.2659 22.5665ZM21.8732 22.9592C21.3727 22.4587 21.4868 21.5332 22.1281 20.8919C22.7693 20.2507 23.6949 20.1366 24.1954 20.637C24.6959 21.1375 24.5818 22.0631 23.9405 22.7043C23.2993 23.3456 22.3737 23.4597 21.8732 22.9592Z" fill="black" fill-opacity="0.88"/>
<path fill-rule="evenodd" clip-rule="evenodd" d="M30.6858 12.2486C29.7951 12.2275 28.6532 12.3566 27.9262 13.0593C27.4854 13.4853 27.1712 14.1508 26.9706 14.6786C26.8682 14.9478 26.7915 15.1919 26.7404 15.3688C26.7272 15.4143 26.7157 15.4554 26.7059 15.4915C26.6743 15.4992 26.6388 15.5081 26.6001 15.5182C26.4326 15.5616 26.2015 15.6275 25.9462 15.7171C25.4466 15.8925 24.8123 16.1731 24.4013 16.5842C23.9902 16.9952 23.7096 17.6295 23.5342 18.1292C23.4446 18.3844 23.3787 18.6156 23.3352 18.783C23.3253 18.8212 23.3165 18.8562 23.3089 18.8875C23.2787 18.8955 23.2451 18.9046 23.2083 18.9148C23.0437 18.9606 22.816 19.0292 22.5635 19.1205C22.0679 19.2996 21.4399 19.5787 21.0182 19.9675C20.2343 20.6903 20.0353 21.8995 20.0094 22.8541C19.9961 23.3424 20.0278 23.7877 20.0625 24.1105C20.0799 24.2722 20.0982 24.4039 20.1122 24.4958C20.1192 24.5418 20.1252 24.5778 20.1294 24.6027L20.1345 24.6316L20.1359 24.6394L20.1363 24.6417L20.1673 24.7071L20.6374 24.237C20.6439 24.2794 20.6337 24.2153 20.6374 24.237C20.6245 24.1522 20.6321 24.2055 20.6157 24.0529C20.5828 23.7472 20.5532 23.3278 20.5655 22.8712C20.5909 21.9362 20.7905 20.9355 21.3961 20.3772C21.7324 20.0671 22.2719 19.8181 22.7542 19.6438C22.9906 19.5583 23.2045 19.4939 23.3592 19.4508C23.4364 19.4294 23.4986 19.4133 23.5411 19.4027C23.5623 19.3974 23.5786 19.3934 23.5893 19.3909L23.6012 19.3881L23.6039 19.3875C23.6039 19.3875 23.6761 19.3761 23.7482 19.304C23.8034 19.2488 23.8146 19.1726 23.8146 19.1726L23.8153 19.1694L23.8178 19.1574C23.8201 19.1465 23.8238 19.13 23.8287 19.1085C23.8385 19.0656 23.8535 19.0027 23.8738 18.9246C23.9144 18.7682 23.9759 18.5524 24.0592 18.3151C24.2296 17.8296 24.4771 17.2965 24.7953 16.9783C25.1136 16.6601 25.6467 16.4125 26.1321 16.2421C26.3694 16.1588 26.5853 16.0973 26.7417 16.0567C26.8197 16.0364 26.8827 16.0214 26.9256 16.0116C26.9471 16.0067 26.9636 16.0031 26.9744 16.0007L26.9864 15.9982C26.9864 15.9982 27.0859 15.9677 27.1333 15.9189C27.18 15.8707 27.208 15.7728 27.208 15.7728C27.2108 15.7612 27.2152 15.7436 27.2211 15.7208C27.2329 15.675 27.2509 15.6081 27.2749 15.5251C27.3229 15.3589 27.395 15.1297 27.4907 14.8779C27.6862 14.3636 27.9654 13.7965 28.3135 13.46C28.8688 12.9234 29.8063 12.7843 30.6746 12.8048C31.0984 12.8148 31.485 12.8623 31.7661 12.9074C31.9064 12.93 31.8596 12.9217 31.9372 12.9377L32.3975 12.4775L32.3438 12.453L32.3429 12.4528L32.3408 12.4523L32.3334 12.4505L32.3068 12.4444C32.2838 12.4392 32.2505 12.4318 32.2082 12.4231C32.1234 12.4055 32.0019 12.3821 31.8525 12.3581C31.5541 12.3102 31.1415 12.2594 30.6858 12.2486Z" fill="black" fill-opacity="0.88"/>
<path fill-rule="evenodd" clip-rule="evenodd" d="M32.6258 14.1886C32.6469 15.0793 32.5178 16.2212 31.8151 16.9483C31.3891 17.389 30.7236 17.7032 30.1958 17.9038C29.9266 18.0062 29.6825 18.0829 29.5056 18.134C29.4601 18.1472 29.419 18.1587 29.3829 18.1685C29.3752 18.2001 29.3663 18.2356 29.3563 18.2744C29.3128 18.4418 29.2469 18.6729 29.1573 18.9282C28.9819 19.4278 28.7013 20.0621 28.2902 20.4732C27.8792 20.8842 27.2449 21.1649 26.7453 21.3402C26.49 21.4299 26.2589 21.4957 26.0914 21.5392C26.0532 21.5491 26.0182 21.5579 25.9869 21.5655C25.9789 21.5957 25.9698 21.6293 25.9596 21.6661C25.9138 21.8307 25.8452 22.0584 25.7539 22.3109C25.5748 22.8065 25.2957 23.4345 24.9069 23.8562C24.1841 24.6401 22.9749 24.8391 22.0203 24.865C21.5321 24.8783 21.0867 24.8467 20.7639 24.8119C20.6022 24.7945 20.4705 24.7763 20.3786 24.7622C20.3326 24.7552 20.2966 24.7493 20.2717 24.745L20.2429 24.7399L20.1673 24.7071L20.2327 24.7381C20.2327 24.7381 20.1752 24.7085 20.1673 24.7071L20.6374 24.237C20.6591 24.2407 20.595 24.2306 20.6374 24.237C20.7222 24.25 20.669 24.2423 20.8215 24.2588C21.1272 24.2916 21.5466 24.3213 22.0032 24.3089C22.9382 24.2835 23.9389 24.0839 24.4973 23.4783C24.8073 23.142 25.0563 22.6026 25.2306 22.1202C25.3161 21.8838 25.3805 21.6699 25.4236 21.5152C25.4451 21.438 25.4611 21.3758 25.4717 21.3333C25.477 21.3121 25.481 21.2958 25.4835 21.2851L25.4863 21.2732L25.4869 21.2705C25.4869 21.2705 25.4983 21.1984 25.5704 21.1263C25.6256 21.071 25.7019 21.0598 25.7019 21.0598L25.7051 21.0592L25.7171 21.0566C25.7279 21.0543 25.7444 21.0506 25.7659 21.0457C25.8088 21.0359 25.8718 21.0209 25.9498 21.0006C26.1062 20.96 26.322 20.8985 26.5593 20.8152C27.0448 20.6448 27.5779 20.3973 27.8961 20.0791C28.2144 19.7609 28.4619 19.2277 28.6323 18.7423C28.7156 18.505 28.7771 18.2891 28.8177 18.1327C28.838 18.0547 28.853 17.9918 28.8628 17.9488C28.8677 17.9273 28.8713 17.9108 28.8737 17.9L28.8762 17.888C28.8762 17.888 28.9067 17.7885 28.9555 17.7411C29.0037 17.6944 29.1016 17.6664 29.1016 17.6664C29.1132 17.6636 29.1308 17.6592 29.1536 17.6533C29.1994 17.6415 29.2663 17.6235 29.3493 17.5995C29.5155 17.5515 29.7447 17.4794 29.9965 17.3837C30.5108 17.1882 31.0779 16.909 31.4144 16.5609C31.951 16.0056 32.0901 15.0681 32.0696 14.1998C32.0596 13.7761 32.0121 13.3894 31.967 13.1083C31.9444 12.9681 31.9533 13.0153 31.9372 12.9377L32.3975 12.4775L32.4214 12.5306L32.4216 12.5315L32.4221 12.5337L32.4239 12.541L32.43 12.5676C32.4352 12.5906 32.4426 12.6239 32.4513 12.6663C32.4689 12.751 32.4923 12.8725 32.5163 13.0219C32.5642 13.3203 32.615 13.733 32.6258 14.1886Z" fill="black" fill-opacity="0.88"/>
</svg>
