<svg width="24" height="25" viewBox="0 0 24 25" fill="none" xmlns="http://www.w3.org/2000/svg">
<path fill-rule="evenodd" clip-rule="evenodd" d="M16.2737 17.7114C16.792 17.0203 17.0325 16.453 17.0325 16.0428C17.0325 13.9428 14.9084 12.0363 12.0049 12.0363C9.1014 12.0363 6.97727 13.9428 6.97727 16.0428C6.97727 16.453 7.21774 17.0203 7.73606 17.7114C8.23768 18.3802 8.92257 19.0643 9.63184 19.6888C10.3372 20.3099 11.0459 20.8538 11.58 21.2434C11.7393 21.3596 11.8825 21.4617 12.0049 21.5476C12.1272 21.4617 12.2705 21.3596 12.4298 21.2434C12.9639 20.8538 13.6725 20.3099 14.3779 19.6888C15.0872 19.0643 15.7721 18.3802 16.2737 17.7114ZM12.0049 22.5C12.0049 22.5 17.8386 18.6845 17.8386 16.0428C17.8386 13.4012 15.2268 11.2597 12.0049 11.2597C8.783 11.2597 6.17115 13.4012 6.17115 16.0428C6.17115 18.6845 12.0049 22.5 12.0049 22.5Z" fill="black" fill-opacity="0.88"/>
<path fill-rule="evenodd" clip-rule="evenodd" d="M12.3063 2.82723L12.0049 3.08498L11.7034 2.82723L12.0049 2.5L12.3063 2.82723ZM12.0049 9.21604C11.7034 9.47379 11.7033 9.47366 11.7033 9.47366L11.7027 9.47303L11.7015 9.47164L11.6972 9.467L11.6822 9.45037C11.6694 9.4361 11.6511 9.41551 11.628 9.38913C11.582 9.3364 11.517 9.26037 11.4394 9.16522C11.2845 8.97533 11.0775 8.7072 10.8698 8.39443C10.4679 7.78902 10.0108 6.94025 10.0108 6.15051C10.0108 5.36077 10.4679 4.512 10.8698 3.90659C11.0775 3.59382 11.2845 3.32569 11.4394 3.1358C11.517 3.04065 11.582 2.96462 11.628 2.91189C11.6511 2.88551 11.6694 2.86492 11.6822 2.85065L11.6972 2.83402L11.7015 2.82938L11.7027 2.82799L11.7034 2.82723C11.7034 2.82723 11.7034 2.82723 12.0049 3.08498C12.3063 2.82723 12.3063 2.82723 12.3063 2.82723L12.307 2.82799L12.3083 2.82938L12.3125 2.83402L12.3276 2.85065C12.3404 2.86492 12.3587 2.88551 12.3817 2.91189C12.4278 2.96462 12.4927 3.04065 12.5704 3.1358C12.7253 3.32569 12.9323 3.59382 13.1399 3.90659C13.5419 4.512 13.999 5.36077 13.999 6.15051C13.999 6.94025 13.5419 7.78902 13.1399 8.39443C12.9323 8.7072 12.7253 8.97533 12.5704 9.16522C12.4927 9.26037 12.4278 9.3364 12.3817 9.38913C12.3587 9.41551 12.3404 9.4361 12.3276 9.45037L12.3125 9.467L12.3083 9.47164L12.3065 9.47366C12.3065 9.47366 12.3063 9.47379 12.0049 9.21604ZM12.0049 9.21604L11.7033 9.47366L12.0049 9.80102L12.3065 9.47366L12.0049 9.21604ZM12.0049 8.60059C12.1378 8.43371 12.2996 8.21889 12.4608 7.97597C12.8544 7.38323 13.1928 6.69924 13.1928 6.15051C13.1928 5.60178 12.8544 4.91778 12.4608 4.32505C12.2996 4.08213 12.1378 3.86731 12.0049 3.70043C11.872 3.86731 11.7102 4.08213 11.5489 4.32505C11.1554 4.91778 10.8169 5.60178 10.8169 6.15051C10.8169 6.69924 11.1554 7.38323 11.5489 7.97597C11.7102 8.21889 11.872 8.43371 12.0049 8.60059Z" fill="black" fill-opacity="0.88"/>
<path fill-rule="evenodd" clip-rule="evenodd" d="M18.5504 6.72594L18.4936 7.11038L18.8831 7.21031L19 6.78752L18.5504 6.72594ZM13.1867 10.4942C13.1299 10.8786 13.1301 10.8787 13.1301 10.8787L13.131 10.8788L13.1329 10.879L13.1392 10.8799L13.1619 10.8828C13.1813 10.8852 13.2093 10.8885 13.2448 10.8925C13.3159 10.9004 13.4175 10.9106 13.5427 10.9205C13.7926 10.9401 14.1389 10.9584 14.5243 10.9526C15.2702 10.9414 16.2571 10.8401 16.9407 10.4043C17.6243 9.9684 18.1067 9.13276 18.4089 8.4757C18.565 8.13625 18.6829 7.82198 18.7618 7.59272C18.8013 7.47784 18.8312 7.38368 18.8515 7.31759C18.8616 7.28453 18.8693 7.25846 18.8746 7.24028L18.8807 7.21904L18.8824 7.21307L18.8829 7.21128L18.8831 7.21031C18.8831 7.21031 18.8831 7.21031 18.4936 7.11038C18.5504 6.72594 18.5504 6.72594 18.5504 6.72594L18.5493 6.7258L18.5474 6.72555L18.5411 6.72471L18.5184 6.72182C18.499 6.7194 18.471 6.71604 18.4355 6.7121C18.3644 6.70423 18.2628 6.69398 18.1376 6.68413C17.8877 6.66448 17.5414 6.64618 17.156 6.65198C16.4101 6.66319 15.4232 6.76445 14.7396 7.20032C14.056 7.63619 13.5736 8.47183 13.2714 9.12889C13.1153 9.46834 12.9974 9.78261 12.9185 10.0119C12.879 10.1267 12.8491 10.2209 12.8288 10.287C12.8187 10.3201 12.811 10.3461 12.8057 10.3643L12.7996 10.3856L12.7979 10.3915L12.7972 10.3941C12.7972 10.3941 12.7972 10.3943 13.1867 10.4942ZM13.1867 10.4942L13.1301 10.8787L12.6803 10.8171L12.7972 10.3941L13.1867 10.4942ZM13.7194 10.1545C13.7905 9.95565 13.8871 9.70713 14.0084 9.44349C14.3043 8.80018 14.7095 8.15078 15.1845 7.84793C15.6595 7.54507 16.4383 7.43946 17.1686 7.42848C17.4679 7.42398 17.7431 7.43538 17.9609 7.45005C17.8898 7.64894 17.7932 7.89747 17.6719 8.16111C17.376 8.80441 16.9708 9.45381 16.4958 9.75666C16.0208 10.0595 15.242 10.1651 14.5117 10.1761C14.2124 10.1806 13.9372 10.1692 13.7194 10.1545Z" fill="black" fill-opacity="0.88"/>
<path fill-rule="evenodd" clip-rule="evenodd" d="M5.44963 6.72494L5.50635 7.10938L5.11687 7.2093L5 6.78652L5.44963 6.72494ZM10.8133 10.4932C10.8701 10.8776 10.8699 10.8777 10.8699 10.8777L10.869 10.8778L10.8671 10.878L10.8608 10.8789L10.8381 10.8818C10.8187 10.8842 10.7907 10.8875 10.7552 10.8915C10.6841 10.8994 10.5825 10.9096 10.4573 10.9195C10.2074 10.9391 9.86106 10.9574 9.47572 10.9516C8.72983 10.9404 7.74288 10.8391 7.05929 10.4033C6.3757 9.9674 5.89327 9.13176 5.59108 8.4747C5.43496 8.13525 5.3171 7.82098 5.23824 7.59172C5.19872 7.47684 5.16878 7.38267 5.14854 7.31659C5.13842 7.28353 5.1307 7.25745 5.12542 7.23928L5.11932 7.21804L5.11764 7.21206L5.11714 7.21028L5.11687 7.2093C5.11687 7.2093 5.11687 7.2093 5.50635 7.10938C5.44963 6.72494 5.44963 6.72494 5.44963 6.72494L5.45067 6.7248L5.45257 6.72454L5.45893 6.7237L5.48161 6.72081C5.50104 6.71839 5.52897 6.71504 5.56451 6.7111C5.63556 6.70322 5.73724 6.69298 5.86244 6.68313C6.11231 6.66347 6.45864 6.64518 6.84398 6.65097C7.58987 6.66219 8.57682 6.76345 9.26041 7.19932C9.944 7.63519 10.4264 8.47083 10.7286 9.12789C10.8847 9.46733 11.0026 9.7816 11.0815 10.0109C11.121 10.1257 11.1509 10.2199 11.1712 10.286C11.1813 10.3191 11.189 10.3451 11.1943 10.3633L11.2004 10.3845L11.2021 10.3905L11.2028 10.3931C11.2028 10.3931 11.2028 10.3933 10.8133 10.4932ZM10.8133 10.4932L10.8699 10.8777L11.3197 10.8161L11.2028 10.3931L10.8133 10.4932ZM10.2806 10.1535C10.2095 9.95465 10.1129 9.70612 9.99161 9.44248C9.69575 8.79918 9.29048 8.14978 8.8155 7.84692C8.34053 7.54407 7.56167 7.43846 6.8314 7.42748C6.53212 7.42298 6.25689 7.43438 6.03908 7.44905C6.11018 7.64793 6.20684 7.89646 6.32809 8.1601C6.62395 8.8034 7.02922 9.45281 7.5042 9.75566C7.97917 10.0585 8.75803 10.1641 9.4883 10.1751C9.78758 10.1796 10.0628 10.1682 10.2806 10.1535Z" fill="black" fill-opacity="0.88"/>
</svg>
