<svg width="24" height="25" viewBox="0 0 24 25" fill="none" xmlns="http://www.w3.org/2000/svg">
<path fill-rule="evenodd" clip-rule="evenodd" d="M19.4754 3.95035L19.1368 3.99058L19.1771 3.65205L19.4454 3.68198L19.4754 3.95035ZM15.2934 7.83398C14.9549 7.8742 14.9549 7.874 14.9549 7.874L14.9548 7.87311L14.9546 7.87127L14.954 7.86536L14.952 7.84487C14.9503 7.82745 14.9482 7.80262 14.9458 7.77116C14.9412 7.70827 14.9359 7.61864 14.9328 7.50844C14.9267 7.28862 14.9295 6.98395 14.9657 6.64473C15.0365 5.98231 15.2417 5.11669 15.8306 4.52776C16.4196 3.93884 17.2852 3.73364 17.9476 3.66289C18.2868 3.62665 18.5915 3.62381 18.8113 3.62992C18.9215 3.63299 19.0111 3.63832 19.074 3.64298C19.1055 3.64531 19.1303 3.64747 19.1477 3.6491L19.1682 3.65111L19.1741 3.65173L19.176 3.65193L19.1771 3.65205C19.1771 3.65205 19.1771 3.65205 19.1368 3.99058C19.4754 3.95035 19.4754 3.95035 19.4754 3.95035L19.4755 3.95144L19.4757 3.95329L19.4763 3.9592L19.4783 3.97969C19.48 3.99711 19.4821 4.02193 19.4844 4.0534C19.4891 4.11628 19.4944 4.20592 19.4975 4.31612C19.5036 4.53594 19.5008 4.84061 19.4645 5.17983C19.3938 5.84225 19.1886 6.70787 18.5997 7.29679C18.0107 7.88572 17.1451 8.09092 16.4827 8.16167C16.1435 8.1979 15.8388 8.20074 15.619 8.19463C15.5088 8.19157 15.4191 8.18624 15.3563 8.18158C15.3248 8.17925 15.3 8.17709 15.2826 8.17546L15.2621 8.17345L15.2562 8.17283L15.2543 8.17263L15.2534 8.17253C15.2534 8.17253 15.2532 8.17251 15.2934 7.83398ZM15.2934 7.83398L14.9549 7.874L14.9848 8.14258L15.2534 8.17253L15.2934 7.83398ZM15.6146 7.51278C15.6239 7.51309 15.6333 7.51337 15.6429 7.51364C15.8407 7.51914 16.1138 7.51648 16.4153 7.48427C17.0343 7.41816 17.7018 7.23479 18.1197 6.81685C18.5377 6.39892 18.721 5.73141 18.7871 5.11243C18.8193 4.81094 18.822 4.53784 18.8165 4.34006C18.8162 4.33045 18.816 4.32101 18.8156 4.31177C18.8064 4.31147 18.797 4.31118 18.7874 4.31092C18.5896 4.30542 18.3165 4.30808 18.015 4.34028C17.396 4.40639 16.7285 4.58977 16.3106 5.0077C15.8926 5.42564 15.7093 6.09314 15.6431 6.71213C15.6109 7.01362 15.6083 7.28671 15.6138 7.48449C15.614 7.49411 15.6143 7.50354 15.6146 7.51278Z" fill="black" fill-opacity="0.88"/>
<path fill-rule="evenodd" clip-rule="evenodd" d="M12.5928 4.70575L12.3845 4.95636L12.1728 4.6719L12.3818 4.52275L12.5928 4.70575ZM12.4193 10.6254C12.211 10.876 12.2108 10.8758 12.2108 10.8758L12.2101 10.8752L12.2086 10.8739L12.2038 10.8697L12.187 10.8548C12.1728 10.8421 12.1527 10.8238 12.1275 10.8004C12.0771 10.7536 12.0061 10.6859 11.9214 10.6003C11.7525 10.4295 11.5266 10.1852 11.2997 9.89088C10.8562 9.31571 10.3617 8.48984 10.3564 7.62601C10.3511 6.76219 10.8359 6.01525 11.2728 5.51102C11.4963 5.253 11.7194 5.04485 11.8864 4.90116C11.9701 4.82914 12.0403 4.77284 12.0902 4.73409C12.1152 4.7147 12.1351 4.69968 12.1491 4.68925L12.1657 4.67706L12.1705 4.67359L12.172 4.67252L12.1728 4.6719C12.1728 4.6719 12.1728 4.6719 12.3845 4.95636C12.5928 4.70575 12.5928 4.70575 12.5928 4.70575L12.5937 4.70651L12.5952 4.70782L12.6 4.71206L12.6168 4.72693C12.631 4.73964 12.6511 4.75789 12.6763 4.78132C12.7267 4.82815 12.7977 4.89583 12.8824 4.98143C13.0513 5.15219 13.2771 5.39651 13.5041 5.69084C13.9476 6.26602 14.4421 7.09189 14.4474 7.95571C14.4527 8.81953 13.9679 9.56647 13.531 10.0707C13.3075 10.3287 13.0844 10.5369 12.9174 10.6806C12.8337 10.7526 12.7635 10.8089 12.7136 10.8476C12.6886 10.867 12.6687 10.882 12.6547 10.8925L12.6381 10.9047L12.6333 10.9081L12.6318 10.9092L12.6311 10.9097C12.6311 10.9097 12.631 10.9098 12.4193 10.6254ZM12.4193 10.6254L12.2108 10.8758L12.422 11.059L12.6311 10.9097L12.4193 10.6254ZM12.4165 10.1749C12.4279 10.1653 12.4395 10.1554 12.4515 10.145C12.6026 10.0151 12.8035 9.82745 13.0033 9.59687C13.4131 9.12387 13.7726 8.52232 13.7688 7.90102C13.765 7.27972 13.3977 6.61959 12.9816 6.08004C12.7788 5.81701 12.5755 5.59679 12.4226 5.44235C12.4105 5.43008 12.3987 5.41824 12.3872 5.40684C12.3759 5.4164 12.3643 5.42635 12.3523 5.43668C12.2012 5.56663 12.0003 5.75427 11.8005 5.98486C11.3907 6.45785 11.0312 7.05941 11.035 7.6807C11.0388 8.302 11.4061 8.96213 11.8221 9.50168C12.025 9.76471 12.2283 9.98493 12.3812 10.1394C12.3933 10.1516 12.4051 10.1635 12.4165 10.1749Z" fill="black" fill-opacity="0.88"/>
<path fill-rule="evenodd" clip-rule="evenodd" d="M18.4217 10.5346L18.1711 10.7429L18.4555 10.9546L18.6047 10.7456L18.4217 10.5346ZM12.5021 10.7081C12.2514 10.9165 12.2516 10.9166 12.2516 10.9166L12.2522 10.9173L12.2535 10.9188L12.2578 10.9237L12.2726 10.9404C12.2853 10.9546 12.3036 10.9747 12.327 10.9999C12.3738 11.0504 12.4415 11.1213 12.5271 11.206C12.6979 11.375 12.9422 11.6008 13.2365 11.8277C13.8117 12.2712 14.6376 12.7657 15.5014 12.7711C16.3652 12.7764 17.1122 12.2915 17.6164 11.8546C17.8744 11.6311 18.0826 11.408 18.2263 11.241C18.2983 11.1573 18.3546 11.0871 18.3933 11.0372C18.4127 11.0122 18.4277 10.9923 18.4382 10.9783L18.4504 10.9617L18.4538 10.9569L18.4549 10.9554L18.4555 10.9546C18.4555 10.9546 18.4555 10.9546 18.1711 10.7429C18.4217 10.5346 18.4217 10.5346 18.4217 10.5346L18.4209 10.5337L18.4196 10.5322L18.4154 10.5274L18.4005 10.5107C18.3878 10.4965 18.3695 10.4763 18.3461 10.4511C18.2993 10.4007 18.2316 10.3297 18.146 10.245C17.9752 10.0761 17.7309 9.85027 17.4366 9.62332C16.8614 9.17981 16.0355 8.68529 15.1717 8.67998C14.3079 8.67468 13.5609 9.15953 13.0567 9.5964C12.7987 9.81996 12.5905 10.043 12.4469 10.21C12.3748 10.2937 12.3185 10.3639 12.2798 10.4138C12.2604 10.4388 12.2454 10.4587 12.2349 10.4728L12.2228 10.4893L12.2193 10.4941L12.2182 10.4956L12.2177 10.4963C12.2177 10.4963 12.2176 10.4965 12.5021 10.7081ZM12.5021 10.7081L12.2516 10.9166L12.0684 10.7054L12.2177 10.4963L12.5021 10.7081ZM12.9525 10.7109C12.9621 10.6996 12.972 10.6879 12.9824 10.6759C13.1123 10.5248 13.3 10.3239 13.5306 10.1242C14.0035 9.71435 14.6051 9.3548 15.2264 9.35862C15.8477 9.36244 16.5078 9.72974 17.0474 10.1458C17.3104 10.3486 17.5306 10.552 17.6851 10.7048C17.6973 10.7169 17.7092 10.7287 17.7206 10.7402C17.711 10.7515 17.7011 10.7632 17.6907 10.7752C17.5608 10.9262 17.3731 11.1271 17.1426 11.3269C16.6696 11.7367 16.068 12.0962 15.4467 12.0924C14.8254 12.0886 14.1653 11.7213 13.6257 11.3053C13.3627 11.1025 13.1425 10.8991 12.988 10.7463C12.9758 10.7341 12.9639 10.7223 12.9525 10.7109Z" fill="black" fill-opacity="0.88"/>
<path fill-rule="evenodd" clip-rule="evenodd" d="M9.37781 7.92077L9.16946 8.17138L8.95782 7.88692L9.16679 7.73777L9.37781 7.92077ZM9.2043 13.8404C8.99594 14.091 8.99578 14.0909 8.99578 14.0909L8.99507 14.0902L8.99357 14.0889L8.98874 14.0847L8.97201 14.0698C8.95782 14.0571 8.9377 14.0389 8.91247 14.0154C8.86204 13.9686 8.79108 13.9009 8.70639 13.8153C8.53744 13.6446 8.31163 13.4002 8.08467 13.1059C7.64117 12.5307 7.14665 11.7049 7.14134 10.841C7.13603 9.97722 7.62089 9.23027 8.05776 8.72604C8.28132 8.46802 8.50435 8.25987 8.67137 8.11619C8.75509 8.04416 8.82529 7.98786 8.87519 7.94911C8.90015 7.92973 8.92008 7.9147 8.93412 7.90427L8.95068 7.89208L8.95547 7.88861L8.95695 7.88754L8.95782 7.88692C8.95782 7.88692 8.95782 7.88692 9.16946 8.17138C9.37781 7.92077 9.37781 7.92077 9.37781 7.92077L9.37868 7.92153L9.38018 7.92284L9.38502 7.92708L9.40174 7.94196C9.41593 7.95466 9.43606 7.97291 9.46128 7.99634C9.51171 8.04318 9.58267 8.11085 9.66736 8.19645C9.83631 8.36721 10.0621 8.61153 10.2891 8.90586C10.7326 9.48104 11.2271 10.3069 11.2324 11.1707C11.2377 12.0346 10.7529 12.7815 10.316 13.2857C10.0924 13.5437 9.8694 13.7519 9.70239 13.8956C9.61866 13.9676 9.54846 14.0239 9.49856 14.0627C9.4736 14.082 9.45368 14.0971 9.43963 14.1075L9.42307 14.1197L9.41829 14.1232L9.4168 14.1242L9.41609 14.1247C9.41609 14.1247 9.41594 14.1248 9.2043 13.8404ZM9.2043 13.8404L8.99578 14.0909L9.20696 14.274L9.41609 14.1247L9.2043 13.8404ZM9.20153 13.3899C9.21285 13.3803 9.22452 13.3704 9.23652 13.3601C9.38758 13.2301 9.58846 13.0425 9.78824 12.8119C10.198 12.3389 10.5576 11.7373 10.5538 11.116C10.55 10.4947 10.1827 9.83461 9.76663 9.29506C9.56381 9.03204 9.36043 8.81182 9.20762 8.65737C9.19548 8.6451 9.18367 8.63326 9.17222 8.62186C9.16091 8.63143 9.14923 8.64138 9.13723 8.6517C8.98617 8.78166 8.7853 8.9693 8.58551 9.19988C8.1757 9.67287 7.81616 10.2744 7.81998 10.8957C7.82379 11.517 8.19109 12.1772 8.60713 12.7167C8.80994 12.9797 9.01332 13.2 9.16613 13.3544C9.17827 13.3667 9.19008 13.3785 9.20153 13.3899Z" fill="black" fill-opacity="0.88"/>
<path fill-rule="evenodd" clip-rule="evenodd" d="M15.2066 13.7496L14.956 13.958L15.2405 14.1696L15.3896 13.9606L15.2066 13.7496ZM9.28703 13.9231C9.03642 14.1315 9.03656 14.1316 9.03656 14.1316L9.03718 14.1324L9.03849 14.1339L9.04273 14.1387L9.05761 14.1554C9.07031 14.1696 9.08857 14.1897 9.112 14.215C9.15883 14.2654 9.22651 14.3363 9.3121 14.421C9.48286 14.59 9.72718 14.8158 10.0215 15.0427C10.5967 15.4863 11.4226 15.9808 12.2864 15.9861C13.1502 15.9914 13.8971 15.5065 14.4014 15.0697C14.6594 14.8461 14.8676 14.6231 15.0112 14.4561C15.0833 14.3723 15.1396 14.3021 15.1783 14.2522C15.1977 14.2273 15.2127 14.2073 15.2231 14.1933L15.2353 14.1767L15.2388 14.172L15.2399 14.1705L15.2405 14.1696C15.2405 14.1696 15.2405 14.1696 14.956 13.958C15.2066 13.7496 15.2066 13.7496 15.2066 13.7496L15.2059 13.7487L15.2046 13.7472L15.2003 13.7424L15.1855 13.7257C15.1728 13.7115 15.1545 13.6914 15.1311 13.6661C15.0842 13.6157 15.0166 13.5447 14.931 13.4601C14.7602 13.2911 14.5159 13.0653 14.2216 12.8383C13.6464 12.3948 12.8205 11.9003 11.9567 11.895C11.0929 11.8897 10.3459 12.3746 9.8417 12.8114C9.58367 13.035 9.37552 13.258 9.23184 13.425C9.15981 13.5088 9.10351 13.579 9.06476 13.6289C9.04538 13.6538 9.03035 13.6737 9.01992 13.6878L9.00773 13.7043L9.00426 13.7091L9.0032 13.7106L9.00269 13.7113C9.00269 13.7113 9.00258 13.7115 9.28703 13.9231ZM9.28703 13.9231L9.03656 14.1316L8.85342 13.9205L9.00269 13.7113L9.28703 13.9231ZM9.73751 13.9259C9.74708 13.9146 9.75703 13.9029 9.76735 13.8909C9.89731 13.7398 10.0849 13.539 10.3155 13.3392C10.7885 12.9294 11.3901 12.5698 12.0114 12.5736C12.6327 12.5775 13.2928 12.9448 13.8324 13.3608C14.0954 13.5636 14.3156 13.767 14.47 13.9198C14.4823 13.9319 14.4942 13.9437 14.5056 13.9552C14.496 13.9665 14.486 13.9782 14.4757 13.9902C14.3458 14.1412 14.1581 14.3421 13.9275 14.5419C13.4545 14.9517 12.853 15.3113 12.2317 15.3074C11.6104 15.3036 10.9503 14.9363 10.4107 14.5203C10.1477 14.3175 9.92747 14.1141 9.77303 13.9613C9.76075 13.9491 9.74891 13.9373 9.73751 13.9259Z" fill="black" fill-opacity="0.88"/>
<path fill-rule="evenodd" clip-rule="evenodd" d="M6.20763 11.091L5.99927 11.3416L5.78763 11.0571L5.99661 10.908L6.20763 11.091ZM6.03411 17.0106C5.82576 17.2612 5.8256 17.261 5.8256 17.261L5.82489 17.2604L5.82339 17.2591L5.81855 17.2549L5.80183 17.24C5.78764 17.2273 5.76751 17.209 5.74229 17.1856C5.69186 17.1388 5.6209 17.0711 5.53621 16.9855C5.36726 16.8147 5.14144 16.5704 4.91449 16.2761C4.47099 15.7009 3.97647 14.875 3.97116 14.0112C3.96585 13.1474 4.4507 12.4005 4.88757 11.8962C5.11113 11.6382 5.33417 11.4301 5.50118 11.2864C5.58491 11.2143 5.65511 11.158 5.70501 11.1193C5.72997 11.0999 5.74989 11.0849 5.76394 11.0745L5.7805 11.0623L5.78528 11.0588L5.78677 11.0577L5.78763 11.0571C5.78763 11.0571 5.78763 11.0571 5.99927 11.3416C6.20763 11.091 6.20763 11.091 6.20763 11.091L6.2085 11.0917L6.21 11.093L6.21483 11.0973L6.23156 11.1121C6.24575 11.1248 6.26587 11.1431 6.2911 11.1665C6.34153 11.2134 6.41249 11.281 6.49718 11.3666C6.66613 11.5374 6.89194 11.7817 7.1189 12.076C7.5624 12.6512 8.05692 13.4771 8.06223 14.3409C8.06754 15.2047 7.58268 15.9517 7.14581 16.4559C6.92225 16.7139 6.69922 16.9221 6.5322 17.0658C6.44848 17.1378 6.37828 17.1941 6.32838 17.2328C6.30342 17.2522 6.28349 17.2672 6.26945 17.2777L6.25289 17.2899L6.24811 17.2933L6.24662 17.2944L6.24591 17.2949C6.24591 17.2949 6.24575 17.295 6.03411 17.0106ZM6.03411 17.0106L5.8256 17.261L6.03678 17.4442L6.24591 17.2949L6.03411 17.0106ZM6.03134 16.5601C6.04266 16.5505 6.05434 16.5406 6.06634 16.5302C6.2174 16.4003 6.41827 16.2127 6.61806 15.9821C7.02787 15.5091 7.38741 14.9075 7.38359 14.2862C7.37978 13.6649 7.01248 13.0048 6.59645 12.4652C6.39363 12.2022 6.19025 11.982 6.03744 11.8276C6.0253 11.8153 6.01349 11.8034 6.00204 11.792C5.99072 11.8016 5.97905 11.8116 5.96705 11.8219C5.81599 11.9518 5.61511 12.1395 5.41533 12.3701C5.00552 12.8431 4.64598 13.4446 4.64979 14.0659C4.65361 14.6872 5.02091 15.3473 5.43694 15.8869C5.63976 16.1499 5.84314 16.3701 5.99595 16.5246C6.00809 16.5368 6.0199 16.5487 6.03134 16.5601Z" fill="black" fill-opacity="0.88"/>
<path fill-rule="evenodd" clip-rule="evenodd" d="M12.0365 16.9198L11.7859 17.1281L12.0703 17.3398L12.2195 17.1308L12.0365 16.9198ZM6.11685 17.0933C5.86624 17.3017 5.86638 17.3018 5.86638 17.3018L5.867 17.3025L5.86831 17.304L5.87255 17.3089L5.88742 17.3256C5.90013 17.3398 5.91838 17.3599 5.94181 17.3851C5.98865 17.4356 6.05632 17.5065 6.14192 17.5912C6.31268 17.7602 6.557 17.986 6.85133 18.2129C7.42651 18.6564 8.25238 19.151 9.1162 19.1563C9.98002 19.1616 10.727 18.6767 11.2312 18.2398C11.4892 18.0163 11.6974 17.7933 11.8411 17.6262C11.9131 17.5425 11.9694 17.4723 12.0081 17.4224C12.0275 17.3974 12.0425 17.3775 12.053 17.3635L12.0652 17.3469L12.0686 17.3421L12.0697 17.3407L12.0703 17.3398C12.0703 17.3398 12.0703 17.3398 11.7859 17.1281C12.0365 16.9198 12.0365 16.9198 12.0365 16.9198L12.0357 16.9189L12.0344 16.9174L12.0302 16.9126L12.0153 16.8959C12.0026 16.8817 11.9843 16.8615 11.9609 16.8363C11.9141 16.7859 11.8464 16.7149 11.7608 16.6302C11.59 16.4613 11.3457 16.2355 11.0514 16.0085C10.4762 15.565 9.65033 15.0705 8.78651 15.0652C7.92269 15.0599 7.17574 15.5447 6.67151 15.9816C6.41349 16.2052 6.20534 16.4282 6.06166 16.5952C5.98963 16.6789 5.93333 16.7491 5.89458 16.799C5.8752 16.824 5.86017 16.8439 5.84974 16.858L5.83755 16.8745L5.83408 16.8793L5.83302 16.8808L5.83251 16.8815C5.83251 16.8815 5.83239 16.8817 6.11685 17.0933ZM6.11685 17.0933L5.86638 17.3018L5.68324 17.0906L5.83251 16.8815L6.11685 17.0933ZM6.56733 17.0961C6.5769 17.0848 6.58685 17.0731 6.59717 17.0611C6.72713 16.91 6.91477 16.7091 7.14535 16.5094C7.61834 16.0996 8.2199 15.74 8.8412 15.7438C9.4625 15.7476 10.1226 16.1149 10.6622 16.531C10.9252 16.7338 11.1454 16.9372 11.2999 17.09C11.3121 17.1021 11.324 17.1139 11.3354 17.1254C11.3258 17.1367 11.3159 17.1484 11.3055 17.1604C11.1756 17.3114 10.9879 17.5123 10.7574 17.7121C10.2844 18.1219 9.68281 18.4814 9.06151 18.4776C8.44021 18.4738 7.78008 18.1065 7.24053 17.6905C6.9775 17.4877 6.75729 17.2843 6.60284 17.1315C6.59057 17.1193 6.57873 17.1075 6.56733 17.0961Z" fill="black" fill-opacity="0.88"/>
<path fill-rule="evenodd" clip-rule="evenodd" d="M5.82932 16.8182L6.30926 17.2981L5.44376 18.1636L5.4385 18.1714C5.42369 18.1937 5.402 18.2267 5.37543 18.2684C5.32216 18.3521 5.24987 18.4701 5.17415 18.6063C5.01775 18.8877 4.86572 19.2139 4.81538 19.4722C4.77011 19.7045 4.77679 20.036 4.80071 20.3321C4.81229 20.4754 4.82717 20.6024 4.83915 20.6934C4.84512 20.7388 4.85034 20.7749 4.85402 20.7995L4.85825 20.8271L4.85931 20.8337L4.85954 20.8351L4.52345 20.8931C4.18735 20.9509 4.18733 20.9508 4.18733 20.9508L4.18715 20.9496L4.18673 20.9471L4.18529 20.938L4.18026 20.9053C4.17605 20.8772 4.17026 20.837 4.16371 20.7872C4.15062 20.6878 4.13437 20.5492 4.12166 20.3919C4.097 20.0867 4.08248 19.6763 4.14674 19.3466C4.21886 18.9766 4.41655 18.5715 4.57926 18.2787C4.66308 18.1279 4.7427 17.998 4.80144 17.9057C4.83087 17.8595 4.85522 17.8224 4.87244 17.7966L4.89271 17.7664L4.89838 17.7581L4.90002 17.7557L4.90053 17.755C4.90053 17.755 4.90083 17.7545 5.1805 17.9469L4.90053 17.755L4.91853 17.729L5.82932 16.8182Z" fill="black" fill-opacity="0.88"/>
</svg>
