<svg width="24" height="25" viewBox="0 0 24 25" fill="none" xmlns="http://www.w3.org/2000/svg">
<path fill-rule="evenodd" clip-rule="evenodd" d="M10.4785 7.17155L10.0583 7.325L9.90617 6.87067L10.2991 6.77897L10.4785 7.17155ZM4.01168 19.7938C3.57908 19.9178 3.57889 19.9172 3.57889 19.9172L3.57814 19.9153L3.57676 19.9116L3.57271 19.9007C3.56947 19.8919 3.56515 19.8799 3.5599 19.8648C3.5494 19.8347 3.53517 19.7922 3.51833 19.738C3.48466 19.6295 3.44055 19.4739 3.39509 19.2756C3.30418 18.879 3.20776 18.3111 3.17881 17.608C3.12083 16.1998 3.33398 14.2561 4.39507 12.068C5.45616 9.87992 6.81447 8.58314 7.91963 7.83199C8.47138 7.45698 8.95866 7.21888 9.31241 7.07348C9.4893 7.00077 9.63292 6.9512 9.73468 6.91925C9.78557 6.90327 9.82601 6.89169 9.85494 6.88383C9.86941 6.87989 9.881 6.87689 9.88958 6.87472L9.90018 6.8721L9.90376 6.87124L9.90511 6.87092L9.90617 6.87067C9.90617 6.87067 9.90617 6.87067 10.0583 7.325C10.4785 7.17155 10.4785 7.17155 10.4785 7.17155L10.4791 7.17278L10.4798 7.17428L10.4815 7.17813L10.4863 7.18914C10.4902 7.19795 10.4952 7.2097 10.5012 7.22434C10.5133 7.25362 10.5295 7.29446 10.5485 7.34649C10.5866 7.45055 10.6362 7.59942 10.6874 7.7901C10.79 8.17156 10.8992 8.72011 10.9363 9.41139C11.0107 10.7968 10.7948 12.7415 9.67494 15.0508C8.55509 17.36 7.19758 18.6598 6.10043 19.3834C5.55299 19.7444 5.07316 19.9602 4.72431 20.0867C4.54992 20.1499 4.40832 20.1907 4.3074 20.2163C4.25693 20.229 4.21663 20.238 4.18746 20.2439C4.17288 20.2469 4.16108 20.2492 4.15219 20.2508L4.14104 20.2528L4.13713 20.2535L4.1356 20.2537C4.1356 20.2537 4.13435 20.2539 4.01168 19.7938ZM4.01168 19.7938L3.57889 19.9172L3.73323 20.3185L4.13434 20.2539L4.01168 19.7938ZM4.31289 19.2105C4.31665 19.2091 4.32043 19.2078 4.32424 19.2064C4.61771 19.1 5.03964 18.9119 5.53003 18.5885C6.50852 17.9431 7.77086 16.7517 8.8278 14.5722C9.88474 12.3927 10.0724 10.5941 10.006 9.35853C9.97277 8.73929 9.87553 8.25785 9.78927 7.93696C9.78815 7.9328 9.78703 7.92867 9.78592 7.92456C9.77256 7.92992 9.75894 7.93545 9.74505 7.94116C9.43759 8.06753 9.00041 8.28011 8.49923 8.62075C7.49851 9.30091 6.23697 10.4953 5.24221 12.5466C4.24744 14.5979 4.05712 16.3974 4.10962 17.6726C4.13592 18.3112 4.22322 18.8201 4.30224 19.1648C4.30581 19.1803 4.30936 19.1956 4.31289 19.2105Z" fill="black" fill-opacity="0.88"/>
<path fill-rule="evenodd" clip-rule="evenodd" d="M16.841 13.5322L16.6842 13.9509L17.1385 14.103L17.2295 13.7131L16.841 13.5322ZM16.0858 14.2204C16.0818 14.2193 16.0779 14.2182 16.0739 14.2171C15.7558 14.1299 15.2781 14.0311 14.6625 13.9963C13.4344 13.9269 11.6429 14.1109 9.46338 15.1679L8.9848 14.3207C11.2941 13.2009 13.2326 12.9882 14.6123 13.0662C15.3007 13.1052 15.8464 13.2162 16.2257 13.3203C16.4153 13.3724 16.5633 13.4226 16.6668 13.4612C16.7186 13.4805 16.7592 13.4969 16.7883 13.5091C16.8029 13.5153 16.8146 13.5204 16.8234 13.5243L16.8344 13.5292L16.8383 13.5309L16.8398 13.5316C16.8398 13.5316 16.841 13.5322 16.6842 13.9509C17.1385 14.103 17.1385 14.103 17.1385 14.103L17.1383 14.1041L17.138 14.1054L17.1371 14.109L17.1345 14.1196C17.1323 14.1282 17.1293 14.1398 17.1254 14.1542C17.1175 14.1832 17.1059 14.2236 17.0899 14.2745C17.058 14.3763 17.0084 14.5199 16.9357 14.6968C16.7903 15.0505 16.5522 15.5378 16.1772 16.0896C15.4261 17.1947 14.1293 18.553 11.9412 19.6141C9.74579 20.6788 7.72287 20.8489 6.24157 20.7487C5.50181 20.6987 4.92834 20.5789 4.47324 20.4969C4.23429 20.4539 4.10937 20.4143 3.93615 20.3725C3.87826 20.3535 3.76514 20.3302 3.73323 20.3185C3.71728 20.3127 3.74244 20.3221 3.73323 20.3185C3.73323 20.3185 3.73323 20.3185 3.92093 19.8356C4.05064 19.4052 4.05025 19.4051 4.05025 19.4051L4.05394 19.4065L4.07719 19.4151C4.09923 19.4231 4.13421 19.4355 4.18144 19.451C4.27593 19.4821 4.41931 19.5258 4.60609 19.5728C4.97979 19.6667 5.52617 19.7736 6.20173 19.8193C7.55108 19.9105 9.41865 19.7582 11.4626 18.767C13.5139 17.7722 14.7083 16.5107 15.3884 15.51C15.7291 15.0088 15.9417 14.5716 16.068 14.2641C16.0741 14.2493 16.0801 14.2347 16.0858 14.2204Z" fill="black" fill-opacity="0.88"/>
<path fill-rule="evenodd" clip-rule="evenodd" d="M19.2265 6.1025C19.135 5.83294 18.9766 5.58042 18.8121 5.41929C18.6359 5.24667 18.618 4.97852 18.7721 4.82036C18.9263 4.66219 19.1941 4.67391 19.3703 4.84653C19.6591 5.12944 19.8933 5.51926 20.0266 5.91183C20.1582 6.29923 20.2128 6.75494 20.0528 7.13924C19.929 7.43655 19.6615 7.69046 19.4719 7.84881C19.4255 7.88755 19.3804 7.92321 19.3385 7.9552C19.3644 8.03375 19.3911 8.12347 19.4152 8.22004C19.4911 8.5253 19.566 8.99975 19.3884 9.38685C19.2121 9.77107 18.8026 10.0269 18.5198 10.1731C18.4244 10.2224 18.3327 10.2644 18.2517 10.299C18.2675 10.3934 18.2829 10.5025 18.2937 10.6197C18.3263 10.9701 18.3291 11.4844 18.1017 11.8716C17.9008 12.2136 17.5145 12.4618 17.2367 12.6121C17.0886 12.6922 16.9515 12.7548 16.8513 12.7974C16.8011 12.8188 16.7596 12.8354 16.7301 12.8469C16.7153 12.8526 16.7035 12.8571 16.6951 12.8602L16.6849 12.864L16.6818 12.8651L16.6808 12.8655C16.6808 12.8655 16.6801 12.8657 16.4992 12.4648L16.6808 12.8655C16.4691 12.9415 16.2158 12.8238 16.1158 12.6024C16.0159 12.381 16.1064 12.14 16.3179 12.0639L16.3188 12.0636L16.3245 12.0615L16.3499 12.0518C16.3728 12.0429 16.4068 12.0293 16.449 12.0114C16.5337 11.9753 16.6491 11.9226 16.772 11.8561C17.0361 11.7132 17.2652 11.543 17.3583 11.3845C17.4569 11.2166 17.4791 10.9233 17.4496 10.6049C17.4358 10.457 17.4129 10.3231 17.3933 10.2263C17.3836 10.1781 17.3748 10.1399 17.3687 10.1145C17.3657 10.1018 17.3633 10.0924 17.3619 10.0866L17.3603 10.0807L17.6022 9.60711L17.6086 9.60504L17.6349 9.59612C17.6587 9.58791 17.694 9.57527 17.7375 9.55842C17.8252 9.5245 17.9436 9.47457 18.0675 9.41053C18.3398 9.26981 18.5457 9.10733 18.6107 8.96558C18.6697 8.83694 18.6607 8.60718 18.5935 8.33717C18.5629 8.21435 18.5256 8.10378 18.4958 8.02377C18.481 7.9841 18.4683 7.9528 18.4597 7.93225L18.4503 7.91002L18.4486 7.90612C18.362 7.71485 18.4166 7.50347 18.5791 7.40158L18.5833 7.39887L18.6006 7.38763C18.6162 7.37736 18.6394 7.36174 18.6682 7.34155C18.7261 7.30094 18.8048 7.24297 18.8877 7.17376C19.0679 7.02326 19.2139 6.86368 19.2644 6.74239C19.3223 6.60344 19.3198 6.37722 19.2265 6.1025ZM17.6022 9.60711C17.4072 9.66863 17.3036 9.87122 17.3603 10.0807L17.6022 9.60711Z" fill="black" fill-opacity="0.88"/>
<path fill-rule="evenodd" clip-rule="evenodd" d="M18.0707 4.94671C18.3403 5.03825 18.5928 5.19667 18.7539 5.36116C18.9266 5.53738 19.1947 5.55527 19.3529 5.40113C19.511 5.24699 19.4993 4.97918 19.3267 4.80296C19.0438 4.51415 18.654 4.27994 18.2614 4.14664C17.874 4.01508 17.4183 3.96047 17.034 4.12045C16.7367 4.24422 16.4828 4.5117 16.3244 4.70137C16.2857 4.74778 16.25 4.79282 16.218 4.83471C16.1395 4.80888 16.0498 4.78209 15.9532 4.75806C15.6479 4.68211 15.1735 4.6072 14.7864 4.78484C14.4022 4.96116 14.1463 5.37065 14.0002 5.65342C13.9509 5.7488 13.9088 5.8405 13.8742 5.92155C13.7798 5.9057 13.6707 5.89039 13.5536 5.8795C13.2031 5.84695 12.6889 5.84411 12.3016 6.07158C11.9596 6.27246 11.7115 6.65875 11.5611 6.93655C11.481 7.0846 11.4184 7.22177 11.3758 7.32191C11.3544 7.37218 11.3378 7.41366 11.3263 7.44316C11.3206 7.45792 11.3162 7.46973 11.313 7.47818L11.3093 7.4883L11.3081 7.49139L11.3078 7.49243C11.3078 7.49243 11.3075 7.49312 11.7085 7.67406L11.3078 7.49243C11.2318 7.70415 11.3494 7.95749 11.5709 8.05742C11.7922 8.1573 12.0332 8.06682 12.1093 7.85533L12.1096 7.85443L12.1117 7.84876L12.1214 7.8233C12.1303 7.80042 12.1439 7.76641 12.1619 7.72427C12.1979 7.63956 12.2507 7.52416 12.3172 7.40125C12.4601 7.13715 12.6303 6.90805 12.7887 6.81498C12.9566 6.71634 13.25 6.6941 13.5683 6.72367C13.7162 6.73741 13.8501 6.76033 13.947 6.77992C13.9951 6.78965 14.0334 6.79839 14.0588 6.80449C14.0714 6.80753 14.0808 6.8099 14.0866 6.81138L14.0925 6.8129L14.5661 6.57102L14.5682 6.56466L14.5771 6.53831C14.5853 6.51457 14.598 6.47928 14.6148 6.43572C14.6487 6.34806 14.6987 6.22968 14.7627 6.10577C14.9034 5.83348 15.0659 5.62759 15.2077 5.56254C15.3363 5.5035 15.5661 5.51256 15.8361 5.57974C15.9589 5.6103 16.0695 5.64762 16.1495 5.67747C16.1891 5.69228 16.2204 5.70492 16.241 5.71349L16.2632 5.72295L16.2671 5.72466C16.4584 5.81126 16.6698 5.75666 16.7717 5.59418L16.7744 5.58992L16.7856 5.57266C16.7959 5.55707 16.8115 5.53381 16.8317 5.50502C16.8723 5.44711 16.9303 5.36848 16.9995 5.28558C17.15 5.10532 17.3096 4.95932 17.4308 4.90882C17.5698 4.85098 17.796 4.85342 18.0707 4.94671ZM14.5661 6.57102C14.5046 6.76609 14.302 6.86961 14.0925 6.8129L14.5661 6.57102Z" fill="black" fill-opacity="0.88"/>
</svg>
