<svg width="24" height="25" viewBox="0 0 24 25" fill="none" xmlns="http://www.w3.org/2000/svg">
<path fill-rule="evenodd" clip-rule="evenodd" d="M12.2541 8.9949L11.9322 9.28852L11.6134 8.99163L11.9355 8.66779L12.2541 8.9949ZM14.2502 11.7854C14.2183 11.7199 14.1826 11.6477 14.1442 11.5712C13.9881 11.261 13.7774 10.8648 13.5764 10.5638C13.3458 10.2184 13.0109 9.823 12.7436 9.5232C12.608 9.37117 12.4862 9.2397 12.3982 9.14613C12.3542 9.09931 12.3185 9.06186 12.2937 9.03595L12.2649 9.00599L12.2571 8.99799L12.2541 8.9949L11.9322 9.28852L11.6134 8.99163L11.6104 8.99474L11.6024 9.00275L11.5731 9.03267C11.5478 9.05853 11.5115 9.0959 11.4667 9.14264C11.3772 9.23603 11.2534 9.36732 11.1158 9.51932C10.8446 9.8188 10.5046 10.2153 10.2724 10.5645C10.0719 10.8661 9.8646 11.2636 9.71189 11.5741C9.67507 11.649 9.64093 11.7198 9.61027 11.7843C9.57156 11.7735 9.53083 11.7623 9.48852 11.7509C9.20783 11.6752 8.83736 11.5847 8.5295 11.5445C8.15606 11.4956 7.69258 11.4969 7.33912 11.508C7.15889 11.5136 7.0005 11.5221 6.88701 11.5292C6.83019 11.5327 6.78443 11.5359 6.7526 11.5382L6.7156 11.541L6.70556 11.5418L6.7017 11.5421L6.24471 11.5799L6.29998 12.0203L6.73913 11.9687C6.29998 12.0203 6.29998 12.0203 6.29998 12.0203L6.30011 12.0214L6.30036 12.0233L6.30121 12.0298L6.30435 12.0531C6.3071 12.0731 6.31119 12.1018 6.31673 12.1384C6.32781 12.2116 6.34472 12.3163 6.36839 12.4453C6.41566 12.7031 6.49028 13.06 6.6 13.4577C6.81518 14.2377 7.18131 15.2359 7.78561 15.9299C8.345 16.5723 8.93965 17.0361 9.62896 17.3355C10.1953 17.5815 10.8067 17.7083 11.4852 17.7454C11.4869 17.91 11.4924 18.112 11.5061 18.3331C11.5406 18.8897 11.6296 19.6219 11.8705 20.1755C12.1556 20.8308 12.7451 21.3879 13.2179 21.7625C13.4608 21.955 13.6871 22.1103 13.8528 22.2176C13.9359 22.2714 14.0043 22.3134 14.0526 22.3425C14.0768 22.357 14.096 22.3683 14.1096 22.3761L14.1256 22.3854L14.1302 22.388L14.1317 22.3889C14.1317 22.3889 14.1326 22.3894 14.3553 22.0195C14.5781 21.6496 14.5782 21.6497 14.5782 21.6497L14.5759 21.6484L14.5651 21.6421C14.5551 21.6363 14.5396 21.6272 14.5192 21.615C14.4785 21.5905 14.4187 21.5537 14.3448 21.5059C14.1966 21.41 13.9943 21.2711 13.7784 21.1001C13.3336 20.7475 12.8845 20.2996 12.6859 19.8432C12.507 19.4321 12.4229 18.8243 12.3893 18.2818C12.3769 18.0816 12.3717 17.8978 12.37 17.7468C13.0402 17.7132 13.6298 17.596 14.1865 17.3531C14.8598 17.0594 15.4507 16.5967 16.0671 15.9425C16.6776 15.2947 17.045 14.2847 17.2602 13.4964C17.3706 13.0919 17.4463 12.725 17.4944 12.4593C17.5185 12.3262 17.5357 12.2178 17.5471 12.1421C17.5528 12.1042 17.5569 12.0745 17.5598 12.0538L17.563 12.0297L17.5639 12.023L17.5642 12.0202C17.5642 12.0202 17.5642 12.02 17.125 11.9687L17.5642 12.0202L17.6191 11.5799L17.1626 11.5422L17.1614 11.5421L17.1586 11.5418L17.1486 11.541L17.1116 11.5382C17.0797 11.5359 17.034 11.5327 16.9772 11.5292C16.8637 11.5221 16.7053 11.5136 16.5251 11.508C16.1717 11.4969 15.7082 11.4956 15.3348 11.5445C15.027 11.5847 14.6565 11.6752 14.3758 11.7509C14.3321 11.7627 14.2901 11.7743 14.2502 11.7854ZM13.6045 12.4763L13.6035 12.4742L13.6001 12.4668L13.5864 12.4371C13.5743 12.4109 13.5564 12.3727 13.5338 12.325C13.4885 12.2294 13.4242 12.0962 13.3487 11.9461C13.1955 11.6416 13.0039 11.284 12.8333 11.0285C12.6376 10.7353 12.3362 10.3769 12.0737 10.0825C12.0231 10.0258 11.9746 9.97211 11.9291 9.92234C11.8826 9.97236 11.8329 10.0264 11.7812 10.0836C11.5153 10.3773 11.2115 10.7346 11.0165 11.0278C10.848 11.2812 10.6606 11.6375 10.5108 11.9421C10.4371 12.092 10.3745 12.2251 10.3305 12.3207C10.3085 12.3684 10.2911 12.4067 10.2794 12.4328L10.2661 12.4624L10.2628 12.4698L10.262 12.4715L10.1028 12.8323L9.71788 12.7108L9.71619 12.7102L9.70992 12.7083L9.68428 12.7004C9.66164 12.6934 9.6283 12.6833 9.58643 12.6708C9.50257 12.6459 9.38508 12.6119 9.25106 12.5757C8.97747 12.502 8.65556 12.425 8.41101 12.393C8.11449 12.3542 7.71241 12.3529 7.3678 12.3638C7.32835 12.365 7.29 12.3664 7.25303 12.3679C7.29729 12.6002 7.3629 12.9036 7.45483 13.2369C7.66264 13.9901 7.98889 14.8346 8.46219 15.3781C8.95546 15.9446 9.44807 16.3184 9.99125 16.5543C10.5357 16.7908 11.1591 16.901 11.932 16.901C12.7092 16.901 13.298 16.8016 13.8228 16.5726C14.3492 16.3429 14.8456 15.9681 15.4134 15.3655C15.8692 14.8818 16.1942 14.0491 16.4048 13.2777C16.4998 12.9299 16.5674 12.6105 16.6125 12.3679C16.5751 12.3664 16.5363 12.365 16.4964 12.3638C16.1518 12.353 15.7498 12.3542 15.4533 12.393C15.2088 12.425 14.8869 12.502 14.6133 12.5757C14.4793 12.6119 14.3618 12.6459 14.2779 12.6708C14.236 12.6833 14.2027 12.6934 14.1801 12.7004L14.1544 12.7083L14.1482 12.7102L14.1467 12.7107L13.7659 12.8309L13.6045 12.4763Z" fill="black" fill-opacity="0.88"/>
<path fill-rule="evenodd" clip-rule="evenodd" d="M8.34752 5.62221C8.98548 4.59372 10.1113 3.5 11.9696 3.5C13.8279 3.5 14.9536 4.59372 15.5916 5.62221C15.9106 6.13654 16.1172 6.64716 16.2441 7.02705C16.2829 7.14312 16.3145 7.24773 16.3397 7.3374C16.3746 7.33988 16.4116 7.34292 16.4505 7.34665C16.7355 7.37394 17.1272 7.43827 17.5574 7.5872C18.4253 7.88763 19.4476 8.53358 20.0489 9.885C20.8979 11.7934 20.4145 13.266 19.6997 14.2475C19.3488 14.7294 18.947 15.088 18.6349 15.3256C18.4783 15.445 18.3424 15.5352 18.2441 15.5965C18.1948 15.6271 18.1549 15.6507 18.1262 15.667C18.119 15.6711 18.1125 15.6748 18.1068 15.678C18.1011 15.6812 18.0961 15.684 18.0918 15.6863L18.0815 15.6919L18.0781 15.6938L18.0768 15.6944C18.0768 15.6944 18.0759 15.6949 17.8642 15.319L18.0759 15.6949C17.8613 15.808 17.5926 15.7314 17.4757 15.5238C17.359 15.3165 17.4378 15.0569 17.6516 14.9435L17.6525 14.9431L17.6556 14.9414L17.6764 14.9297C17.6959 14.9186 17.7261 14.9009 17.7651 14.8766C17.8432 14.8279 17.9559 14.7532 18.0877 14.6528C18.3528 14.4509 18.6879 14.1505 18.9765 13.7543C19.5407 12.9796 19.9464 11.8199 19.2362 10.2236C18.7515 9.13411 17.9469 8.6314 17.2594 8.3934C16.9119 8.27311 16.5938 8.22078 16.3634 8.19872C16.2486 8.18773 16.1569 8.18437 16.0959 8.18366C16.0654 8.1833 16.0427 8.18361 16.0288 8.18394L16.0145 8.18438L16.0135 8.18442L16.0126 8.18447L15.6246 8.20617L15.5538 7.83537L15.5526 7.82919L15.547 7.80293C15.5417 7.77882 15.5332 7.74189 15.5211 7.69397C15.497 7.59803 15.4584 7.45864 15.4022 7.29039C15.2893 6.95237 15.1077 6.50576 14.833 6.06288C14.2835 5.17694 13.3997 4.35623 11.9696 4.35623C10.5394 4.35623 9.65564 5.17694 9.10611 6.06288C8.8314 6.50576 8.64978 6.95237 8.53688 7.29039C8.48069 7.45864 8.44216 7.59803 8.41797 7.69397C8.40588 7.74189 8.39741 7.77882 8.39212 7.80293L8.38652 7.82919L8.38542 7.83464L8.31853 8.18509H7.95147L7.94934 8.18512L7.93415 8.18546C7.91947 8.18589 7.8959 8.18679 7.86444 8.18872C7.80143 8.19258 7.70721 8.2005 7.58963 8.21671C7.35363 8.24924 7.02839 8.31448 6.6745 8.44441C5.96953 8.70327 5.16592 9.21148 4.70109 10.2276C4.08185 11.5813 4.46957 12.7424 5.04247 13.6001C5.3303 14.031 5.6607 14.3768 5.92074 14.6154C6.05021 14.7343 6.16077 14.8252 6.23768 14.8855C6.27609 14.9156 6.30599 14.938 6.3255 14.9523L6.34672 14.9677L6.35088 14.9706C6.54942 15.1081 6.59562 15.3756 6.45367 15.5679C6.31164 15.7602 6.03535 15.8048 5.83655 15.6673L6.09371 15.319C5.83655 15.6673 5.83655 15.6673 5.83655 15.6673L5.83579 15.6668L5.83475 15.6661L5.83179 15.664L5.82246 15.6574C5.81477 15.6519 5.80415 15.6443 5.79084 15.6345C5.76424 15.615 5.72686 15.587 5.68064 15.5507C5.58828 15.4783 5.46016 15.3728 5.31194 15.2367C5.0166 14.9657 4.63562 14.5682 4.29943 14.0649C3.62431 13.0542 3.11346 11.583 3.89206 9.88099C4.47815 8.5998 5.50144 7.95935 6.36064 7.64387C6.78884 7.48664 7.18 7.4083 7.46488 7.36904C7.51106 7.36267 7.55457 7.35732 7.59513 7.35281C7.62104 7.25979 7.65399 7.14983 7.695 7.02705C7.82189 6.64716 8.02849 6.13654 8.34752 5.62221Z" fill="black" fill-opacity="0.88"/>
</svg>
