<svg width="24" height="25" viewBox="0 0 24 25" fill="none" xmlns="http://www.w3.org/2000/svg">
<path fill-rule="evenodd" clip-rule="evenodd" d="M15.624 9.32874C15.3742 9.07891 15.286 8.36385 15.9499 7.69996C16.6138 7.03607 17.3289 7.1242 17.5787 7.37402C17.8285 7.62385 17.9166 8.33891 17.2528 9.0028C16.5889 9.66668 15.8738 9.57856 15.624 9.32874ZM15.1244 9.82828C14.4878 9.19166 14.633 8.01435 15.4486 7.19868C16.2643 6.38301 17.4416 6.23786 18.0782 6.87448C18.7149 7.5111 18.5697 8.68841 17.754 9.50408C16.9384 10.3198 15.7611 10.4649 15.1244 9.82828Z" fill="black" fill-opacity="0.88"/>
<path fill-rule="evenodd" clip-rule="evenodd" d="M11.4109 13.5418C11.1611 13.292 11.073 12.5769 11.7368 11.913C12.4007 11.2492 13.1158 11.3373 13.3656 11.5871C13.6154 11.8369 13.7036 12.552 13.0397 13.2159C12.3758 13.8798 11.6607 13.7916 11.4109 13.5418ZM10.9114 14.0414C10.2747 13.4047 10.4199 12.2274 11.2356 11.4118C12.0512 10.5961 13.2285 10.4509 13.8652 11.0876C14.5018 11.7242 14.3566 12.9015 13.541 13.7172C12.7253 14.5328 11.548 14.678 10.9114 14.0414Z" fill="black" fill-opacity="0.88"/>
<path fill-rule="evenodd" clip-rule="evenodd" d="M7.14429 17.8084C6.89447 17.5586 6.80635 16.8435 7.47023 16.1797C8.13412 15.5158 8.84918 15.6039 9.09901 15.8537C9.34883 16.1035 9.43695 16.8186 8.77307 17.4825C8.10918 18.1464 7.39412 18.0583 7.14429 17.8084ZM6.64475 18.308C6.00813 17.6714 6.15328 16.494 6.96895 15.6784C7.78462 14.8627 8.96193 14.7175 9.59855 15.3542C10.2352 15.9908 10.09 17.1681 9.27435 17.9838C8.45868 18.7994 7.28137 18.9446 6.64475 18.308Z" fill="black" fill-opacity="0.88"/>
<path fill-rule="evenodd" clip-rule="evenodd" d="M17.8543 4.68407C16.7214 4.65726 15.2689 4.82148 14.3441 5.71531C13.7834 6.25719 13.3838 7.1037 13.1286 7.775C12.9984 8.11742 12.9009 8.42793 12.8358 8.65295C12.819 8.7108 12.8044 8.76311 12.7919 8.80899C12.7517 8.81882 12.7066 8.83013 12.6573 8.84294C12.4443 8.89825 12.1503 8.98199 11.8256 9.09597C11.1901 9.31908 10.3833 9.67602 9.86041 10.1989C9.33753 10.7218 8.98057 11.5286 8.75747 12.1641C8.64349 12.4888 8.55975 12.7828 8.50444 12.9958C8.4918 13.0444 8.48063 13.089 8.47089 13.1287C8.43253 13.1389 8.38974 13.1505 8.34303 13.1635C8.13357 13.2218 7.84397 13.309 7.52276 13.4251C6.89237 13.6529 6.09359 14.008 5.55722 14.5025C4.56005 15.4219 4.30689 16.96 4.27395 18.1743C4.25711 18.7953 4.29732 19.3618 4.3415 19.7724C4.36364 19.9781 4.38687 20.1456 4.40471 20.2625C4.41363 20.321 4.42121 20.3668 4.42664 20.3985L4.43309 20.4352L4.43492 20.4452L4.43545 20.4481L4.47488 20.5312L5.07278 19.9333C5.081 19.9872 5.06804 19.9057 5.07278 19.9333C5.05632 19.8255 5.06601 19.8932 5.04514 19.6991C5.00329 19.3102 4.96563 18.7768 4.98139 18.196C5.01364 17.0067 5.26755 15.7338 6.0379 15.0236C6.46564 14.6292 7.15181 14.3125 7.76535 14.0907C8.06609 13.9821 8.3382 13.9001 8.53495 13.8453C8.63318 13.818 8.71225 13.7975 8.76626 13.784C8.79326 13.7773 8.81396 13.7723 8.82765 13.7691L8.84279 13.7655L8.84624 13.7647C8.84624 13.7647 8.93796 13.7503 9.02967 13.6585C9.09992 13.5883 9.11417 13.4913 9.11417 13.4913L9.11502 13.4873L9.11827 13.472C9.12125 13.4582 9.12585 13.4372 9.1321 13.4099C9.1446 13.3553 9.16366 13.2752 9.18945 13.1759C9.24112 12.977 9.31934 12.7025 9.4253 12.4006C9.64209 11.7831 9.95694 11.105 10.3617 10.7002C10.7665 10.2954 11.4446 9.98059 12.0621 9.7638C12.364 9.65784 12.6385 9.57962 12.8374 9.52795C12.9367 9.50216 13.0168 9.4831 13.0714 9.4706C13.0987 9.46435 13.1197 9.45975 13.1335 9.45677L13.1488 9.45352C13.1488 9.45352 13.2753 9.41477 13.3356 9.35264C13.395 9.29138 13.4305 9.16686 13.4305 9.16686C13.4342 9.15209 13.4397 9.12975 13.4473 9.10066C13.4623 9.04245 13.4851 8.95732 13.5156 8.85178C13.5768 8.64038 13.6685 8.34878 13.7902 8.02848C14.0389 7.37433 14.394 6.65294 14.8368 6.225C15.5431 5.54238 16.7357 5.36543 17.8401 5.39157C18.3791 5.40433 18.8709 5.46468 19.2285 5.52211C19.4069 5.55077 19.3475 5.5402 19.4462 5.56063L20.0316 4.97523L19.9633 4.94405L19.9622 4.94377L19.9595 4.94312L19.9501 4.94091L19.9162 4.93308C19.887 4.92645 19.8447 4.91715 19.7908 4.90599C19.683 4.88368 19.5285 4.85392 19.3384 4.82338C18.9589 4.76243 18.4339 4.69779 17.8543 4.68407Z" fill="black" fill-opacity="0.88"/>
<path fill-rule="evenodd" clip-rule="evenodd" d="M20.322 7.15177C20.3488 8.28469 20.1846 9.73722 19.2908 10.662C18.7489 11.2227 17.9024 11.6223 17.2311 11.8775C16.8887 12.0077 16.5782 12.1053 16.3532 12.1703C16.2953 12.1871 16.243 12.2017 16.1971 12.2142C16.1873 12.2544 16.176 12.2995 16.1632 12.3488C16.1079 12.5618 16.0241 12.8558 15.9101 13.1805C15.687 13.816 15.3301 14.6228 14.8072 15.1457C14.2843 15.6686 13.4775 16.0255 12.842 16.2486C12.5173 16.3626 12.2233 16.4464 12.0103 16.5017C11.9617 16.5143 11.9172 16.5255 11.8774 16.5352C11.8672 16.5736 11.8556 16.6164 11.8426 16.6631C11.7844 16.8725 11.6971 17.1621 11.581 17.4834C11.3532 18.1137 10.9981 18.9125 10.5036 19.4489C9.58425 20.4461 8.0461 20.6992 6.83179 20.7322C6.21079 20.749 5.64432 20.7088 5.2337 20.6646C5.028 20.6425 4.86046 20.6192 4.74359 20.6014C4.68514 20.5925 4.6393 20.5849 4.60763 20.5795L4.57093 20.573L4.47488 20.5312L4.55803 20.5707C4.55803 20.5707 4.48491 20.5331 4.47488 20.5312L5.07278 19.9333C5.10039 19.9381 5.01888 19.9251 5.07278 19.9333C5.18061 19.9498 5.11292 19.9401 5.30698 19.961C5.69586 20.0028 6.22934 20.0405 6.81015 20.0247C7.99945 19.9925 9.2723 19.7386 9.98253 18.9682C10.3769 18.5405 10.6936 17.8543 10.9154 17.2408C11.0241 16.94 11.106 16.6679 11.1608 16.4712C11.1881 16.3729 11.2086 16.2939 11.2221 16.2399C11.2288 16.2129 11.2338 16.1921 11.2371 16.1785L11.2406 16.1633L11.2414 16.1599C11.2414 16.1599 11.2559 16.0681 11.3476 15.9764C11.4178 15.9062 11.5148 15.8919 11.5148 15.8919L11.5188 15.8911L11.5341 15.8878C11.5479 15.8849 11.5689 15.8803 11.5962 15.874C11.6509 15.8615 11.7309 15.8425 11.8302 15.8167C12.0291 15.765 12.3037 15.6868 12.6055 15.5808C13.223 15.364 13.9012 15.0492 14.3059 14.6444C14.7107 14.2397 15.0255 13.5615 15.2423 12.944C15.3483 12.6422 15.4265 12.3676 15.4782 12.1687C15.504 12.0694 15.523 11.9894 15.5355 11.9347C15.5418 11.9074 15.5464 11.8864 15.5493 11.8726L15.5526 11.8573C15.5526 11.8573 15.5913 11.7308 15.6535 11.6705C15.7147 11.6111 15.8392 11.5756 15.8392 11.5756C15.854 11.5719 15.8764 11.5664 15.9055 11.5588C15.9637 11.5438 16.0488 11.521 16.1543 11.4905C16.3657 11.4293 16.6573 11.3377 16.9776 11.2159C17.6318 10.9672 18.3532 10.6121 18.7811 10.1693C19.4637 9.46302 19.6407 8.27046 19.6145 7.16605C19.6018 6.62699 19.5414 6.13519 19.484 5.77762C19.4553 5.5992 19.4666 5.65933 19.4462 5.56063L20.0316 4.97523L20.0621 5.04281L20.0623 5.04396L20.063 5.04665L20.0652 5.05597L20.073 5.08989C20.0797 5.11913 20.089 5.1614 20.1001 5.21531C20.1224 5.32309 20.1522 5.47764 20.1827 5.66776C20.2437 6.04724 20.3083 6.57216 20.322 7.15177Z" fill="black" fill-opacity="0.88"/>
</svg>
