<svg width="24" height="25" viewBox="0 0 24 25" fill="none" xmlns="http://www.w3.org/2000/svg">
<path fill-rule="evenodd" clip-rule="evenodd" d="M8.25781 19.3086C11.2474 20.5469 15.4286 18.7462 17.2852 14.875C19.1417 11.0038 17.7688 6.94748 14.7793 5.70916C11.7897 4.47085 7.56108 6.23655 5.70451 10.1078C3.84794 13.979 5.26826 18.0703 8.25781 19.3086ZM7.89357 20.0199C11.5245 21.5239 16.0826 19.3764 18.0744 15.2232C20.0662 11.0701 18.7374 6.48406 15.1064 4.98007C11.4755 3.47609 6.91738 5.62365 4.92561 9.77679C2.93383 13.9299 4.26264 18.5159 7.89357 20.0199Z" fill="black" fill-opacity="0.88"/>
<path fill-rule="evenodd" clip-rule="evenodd" d="M13.0872 12.3392C13.0872 12.3392 13.0874 12.3392 12.9623 11.9789C12.8684 11.5444 12.8686 11.5444 12.8686 11.5444L12.8704 11.5441L12.8738 11.5434L12.8847 11.5415C12.8936 11.54 12.906 11.5378 12.9216 11.5353C12.9526 11.5303 12.9963 11.5236 13.0499 11.5165C13.1567 11.5023 13.3055 11.486 13.4745 11.4775C13.7919 11.4617 14.261 11.4683 14.6461 11.6279C15.0312 11.7874 15.3502 12.1071 15.5496 12.3371C15.6559 12.4595 15.7423 12.5733 15.8023 12.6566C15.8325 12.6984 15.8563 12.7331 15.8731 12.7579C15.8814 12.7703 15.888 12.7803 15.8928 12.7875L15.8985 12.7963L15.9002 12.7991L15.9009 12.8C15.9009 12.8 15.9013 12.8007 15.4909 13.0263C15.1117 13.1777 15.1118 13.1778 15.1118 13.1778L15.109 13.1736L15.0959 13.1539C15.0839 13.136 15.0654 13.1091 15.0412 13.0756C14.9927 13.0083 14.923 12.9166 14.8385 12.8192C14.6565 12.6094 14.456 12.4323 14.2891 12.3632C14.1222 12.2941 13.8465 12.2739 13.557 12.2883C13.4225 12.2951 13.3025 12.3082 13.2162 12.3196C13.1733 12.3253 13.1393 12.3306 13.1169 12.3342L13.0924 12.3383L13.0872 12.3392Z" fill="black" fill-opacity="0.88"/>
<path fill-rule="evenodd" clip-rule="evenodd" d="M7.40484 12.796C7.40484 12.796 7.37763 12.8781 7.28376 12.4436C7.1899 12.0091 7.19008 12.0091 7.19008 12.0091L7.19194 12.0087L7.19535 12.0081L7.20618 12.0062C7.21514 12.0046 7.22755 12.0025 7.24308 12C7.27411 11.9949 7.31777 11.9883 7.3714 11.9811C7.47816 11.9669 7.62701 11.9506 7.79602 11.9422C8.11336 11.9263 8.58249 11.933 8.9676 12.0925C9.3527 12.252 9.67168 12.5718 9.87115 12.8017C9.97738 12.9242 10.0638 13.038 10.1239 13.1212C10.154 13.1631 10.1779 13.1977 10.1946 13.2225C10.2029 13.2349 10.2095 13.2449 10.2143 13.2522L10.22 13.261L10.2217 13.2637L10.2224 13.2647C10.2224 13.2647 10.2228 13.2654 9.81238 13.491C9.40195 13.7166 9.4294 13.6346 9.4294 13.6346L9.42666 13.6304L9.41357 13.6107C9.4015 13.5928 9.383 13.5658 9.35888 13.5324C9.31036 13.4651 9.24058 13.3733 9.15609 13.2759C8.97412 13.0662 8.77364 12.8891 8.60673 12.8199C8.43981 12.7508 8.16409 12.7306 7.87458 12.7451C7.74016 12.7518 7.62009 12.7649 7.53378 12.7764C7.49088 12.7821 7.45697 12.7873 7.43456 12.7909L7.41005 12.7951L7.40484 12.796Z" fill="black" fill-opacity="0.88"/>
<path fill-rule="evenodd" clip-rule="evenodd" d="M9.92401 8.39062C9.92401 8.39062 9.92416 8.39059 9.81237 8.028C9.71851 7.59351 9.71869 7.59347 9.71869 7.59347L9.72054 7.59313L9.72395 7.59251L9.73479 7.59058C9.74375 7.58901 9.75616 7.5869 9.77169 7.58438C9.80271 7.57934 9.84637 7.57266 9.90001 7.56554C10.0068 7.55135 10.1556 7.53502 10.3246 7.52658C10.642 7.51073 11.1111 7.5174 11.4962 7.67692C11.8813 7.83644 12.2003 8.15621 12.3998 8.38613C12.506 8.50858 12.5924 8.62237 12.6525 8.70564C12.6826 8.74748 12.7065 8.78211 12.7232 8.80692C12.7315 8.81934 12.7381 8.82934 12.7429 8.83658L12.7486 8.84535L12.7504 8.84812L12.751 8.84909C12.751 8.84909 12.7693 8.77789 12.3589 9.00349C11.9485 9.2291 11.9486 9.22922 11.9486 9.22922L11.9458 9.22501L11.9327 9.20532C11.9207 9.1874 11.9022 9.16048 11.878 9.12702C11.8295 9.0597 11.7597 8.96794 11.6753 8.87055C11.4933 8.66079 11.2928 8.48372 11.1259 8.41458C10.959 8.34544 10.6832 8.32527 10.3937 8.33973C10.2593 8.34644 10.1392 8.35957 10.0529 8.37104C10.01 8.37674 9.97613 8.38194 9.95372 8.38558L9.92922 8.3897L9.92401 8.39062Z" fill="black" fill-opacity="0.88"/>
<path fill-rule="evenodd" clip-rule="evenodd" d="M10.8305 17.0334C10.8305 17.0334 10.8021 17.1134 10.7082 16.6789C10.6144 16.2444 10.6146 16.2444 10.6146 16.2444L10.6164 16.244L10.6198 16.2434L10.6307 16.2415C10.6396 16.2399 10.652 16.2378 10.6676 16.2353C10.6986 16.2302 10.7423 16.2236 10.7959 16.2164C10.9026 16.2022 11.0515 16.1859 11.2205 16.1775C11.5378 16.1616 12.007 16.1683 12.3921 16.3278C12.7772 16.4873 13.0962 16.8071 13.2956 17.037C13.4019 17.1595 13.4883 17.2733 13.5483 17.3565C13.5785 17.3984 13.6023 17.433 13.619 17.4578C13.6274 17.4702 13.634 17.4802 13.6387 17.4875L13.6444 17.4962L13.6462 17.499L13.6469 17.5C13.6469 17.5 13.6473 17.5007 13.2369 17.7263C12.8264 17.9519 12.8551 17.872 12.8551 17.872L12.8524 17.8678L12.8393 17.8481C12.8272 17.8301 12.8087 17.8032 12.7846 17.7698C12.736 17.7024 12.6663 17.6107 12.5818 17.5133C12.3998 17.3035 12.1993 17.1265 12.0324 17.0573C11.8655 16.9882 11.5898 16.968 11.3003 16.9825C11.1659 16.9892 11.0458 17.0023 10.9595 17.0138C10.9166 17.0195 10.8827 17.0247 10.8603 17.0283L10.8357 17.0324L10.8305 17.0334Z" fill="black" fill-opacity="0.88"/>
</svg>
