<svg width="51" height="51" viewBox="0 0 51 51" fill="none" xmlns="http://www.w3.org/2000/svg">
<path d="M26.0833 48.583C15.7493 34.576 10.5833 24.6101 10.5833 18.683C10.5833 14.413 12.2164 10.3179 15.1232 7.29861C18.03 4.27927 21.9725 2.58303 26.0833 2.58303C30.1942 2.58303 34.1367 4.27927 37.0435 7.29861C39.9503 10.3179 41.5833 14.413 41.5833 18.683C41.5833 24.6101 36.4174 34.576 26.0833 48.583ZM26.0833 27.883C28.4324 27.883 30.6852 26.9137 32.3463 25.1884C34.0073 23.4631 34.9405 21.123 34.9405 18.683C34.9405 16.243 34.0073 13.903 32.3463 12.1776C30.6852 10.4523 28.4324 9.48303 26.0833 9.48303C23.7343 9.48303 21.4814 10.4523 19.8204 12.1776C18.1593 13.903 17.2262 16.243 17.2262 18.683C17.2262 21.123 18.1593 23.4631 19.8204 25.1884C21.4814 26.9137 23.7343 27.883 26.0833 27.883Z" fill="#FF7A45"/>
<circle cx="26.0833" cy="18.4991" r="11" fill="white"/>
<path fill-rule="evenodd" clip-rule="evenodd" d="M29.4431 22.9902C29.8506 22.4469 30.0397 22.0009 30.0397 21.6784C30.0397 20.0275 28.3698 18.5287 26.0872 18.5287C23.8046 18.5287 22.1346 20.0275 22.1346 21.6784C22.1346 22.0009 22.3237 22.4469 22.7312 22.9902C23.1255 23.516 23.664 24.0538 24.2216 24.5448C24.7761 25.033 25.3332 25.4606 25.7531 25.767C25.8784 25.8583 25.991 25.9386 26.0872 26.0061C26.1834 25.9386 26.296 25.8583 26.4212 25.767C26.8411 25.4606 27.3982 25.033 27.9528 24.5448C28.5104 24.0538 29.0488 23.516 29.4431 22.9902ZM26.0872 26.7548C26.0872 26.7548 30.6734 23.7552 30.6734 21.6784C30.6734 19.6017 28.6201 17.9181 26.0872 17.9181C23.5542 17.9181 21.5009 19.6017 21.5009 21.6784C21.5009 23.7552 26.0872 26.7548 26.0872 26.7548Z" fill="black" fill-opacity="0.88"/>
<path fill-rule="evenodd" clip-rule="evenodd" d="M26.3242 11.2888L26.0872 11.4915L25.8502 11.2888L26.0872 11.0316L26.3242 11.2888ZM26.0872 16.3115C25.8502 16.5141 25.8501 16.514 25.8501 16.514L25.8496 16.5135L25.8486 16.5124L25.8453 16.5088L25.8335 16.4957C25.8234 16.4845 25.809 16.4683 25.7909 16.4476C25.7547 16.4061 25.7036 16.3463 25.6426 16.2715C25.5208 16.1222 25.3581 15.9114 25.1948 15.6656C24.8788 15.1896 24.5195 14.5223 24.5195 13.9015C24.5195 13.2806 24.8788 12.6133 25.1948 12.1374C25.3581 11.8915 25.5208 11.6807 25.6426 11.5314C25.7036 11.4566 25.7547 11.3968 25.7909 11.3554C25.809 11.3346 25.8234 11.3185 25.8335 11.3072L25.8453 11.2942L25.8486 11.2905L25.8496 11.2894L25.8502 11.2888C25.8502 11.2888 25.8502 11.2888 26.0872 11.4915C26.3242 11.2888 26.3242 11.2888 26.3242 11.2888L26.3247 11.2894L26.3257 11.2905L26.329 11.2942L26.3408 11.3072C26.3509 11.3185 26.3653 11.3346 26.3834 11.3554C26.4196 11.3968 26.4707 11.4566 26.5317 11.5314C26.6535 11.6807 26.8162 11.8915 26.9795 12.1374C27.2955 12.6133 27.6548 13.2806 27.6548 13.9015C27.6548 14.5223 27.2955 15.1896 26.9795 15.6656C26.8162 15.9114 26.6535 16.1222 26.5317 16.2715C26.4707 16.3463 26.4196 16.4061 26.3834 16.4476C26.3653 16.4683 26.3509 16.4845 26.3408 16.4957L26.329 16.5088L26.3257 16.5124L26.3243 16.514C26.3243 16.514 26.3242 16.5141 26.0872 16.3115ZM26.0872 16.3115L25.8501 16.514L26.0872 16.7714L26.3243 16.514L26.0872 16.3115ZM26.0872 15.8276C26.1917 15.6964 26.3188 15.5276 26.4456 15.3366C26.755 14.8706 27.0211 14.3329 27.0211 13.9015C27.0211 13.4701 26.755 12.9323 26.4456 12.4664C26.3188 12.2754 26.1917 12.1065 26.0872 11.9753C25.9827 12.1065 25.8555 12.2754 25.7287 12.4664C25.4193 12.9323 25.1532 13.4701 25.1532 13.9015C25.1532 14.3329 25.4193 14.8706 25.7287 15.3366C25.8555 15.5276 25.9827 15.6964 26.0872 15.8276Z" fill="black" fill-opacity="0.88"/>
<path fill-rule="evenodd" clip-rule="evenodd" d="M31.233 14.3539L31.1884 14.6561L31.4946 14.7346L31.5865 14.4023L31.233 14.3539ZM27.0162 17.3163C26.9716 17.6186 26.9718 17.6186 26.9718 17.6186L26.9725 17.6187L26.9739 17.6189L26.979 17.6195L26.9968 17.6218C27.0121 17.6237 27.034 17.6263 27.062 17.6294C27.1178 17.6356 27.1977 17.6437 27.2962 17.6514C27.4926 17.6669 27.7649 17.6813 28.0678 17.6767C28.6542 17.6679 29.4301 17.5883 29.9675 17.2456C30.5049 16.903 30.8842 16.246 31.1218 15.7294C31.2445 15.4626 31.3372 15.2155 31.3992 15.0353C31.4302 14.945 31.4538 14.8709 31.4697 14.819C31.4777 14.793 31.4837 14.7725 31.4879 14.7582L31.4927 14.7415L31.494 14.7368L31.4944 14.7354L31.4946 14.7346C31.4946 14.7346 31.4946 14.7346 31.1884 14.6561C31.233 14.3539 31.233 14.3539 31.233 14.3539L31.2322 14.3537L31.2307 14.3535L31.2257 14.3529L31.2078 14.3506C31.1926 14.3487 31.1706 14.3461 31.1427 14.343C31.0868 14.3368 31.0069 14.3287 30.9085 14.321C30.712 14.3055 30.4397 14.2912 30.1368 14.2957C29.5504 14.3045 28.7745 14.3841 28.2371 14.7268C27.6997 15.0695 27.3204 15.7264 27.0828 16.243C26.9601 16.5098 26.8674 16.7569 26.8055 16.9371C26.7744 17.0274 26.7508 17.1015 26.7349 17.1534C26.727 17.1794 26.7209 17.1999 26.7168 17.2142L26.712 17.2309L26.7106 17.2356L26.7101 17.2376C26.7101 17.2376 26.71 17.2378 27.0162 17.3163ZM27.0162 17.3163L26.9718 17.6186L26.6182 17.5701L26.7101 17.2376L27.0162 17.3163ZM27.435 17.0493C27.4909 16.8929 27.5669 16.6976 27.6623 16.4903C27.8948 15.9845 28.2135 15.474 28.5869 15.2359C28.9603 14.9978 29.5726 14.9148 30.1467 14.9062C30.382 14.9026 30.5984 14.9116 30.7696 14.9231C30.7137 15.0795 30.6377 15.2749 30.5424 15.4821C30.3098 15.9879 29.9912 16.4984 29.6178 16.7365C29.2444 16.9746 28.6321 17.0576 28.0579 17.0662C27.8227 17.0698 27.6063 17.0608 27.435 17.0493Z" fill="black" fill-opacity="0.88"/>
<path fill-rule="evenodd" clip-rule="evenodd" d="M20.9337 14.3531L20.9783 14.6553L20.6721 14.7339L20.5802 14.4015L20.9337 14.3531ZM25.1504 17.3155C25.195 17.6178 25.1949 17.6178 25.1949 17.6178L25.1942 17.6179L25.1927 17.6181L25.1877 17.6187L25.1699 17.621C25.1546 17.6229 25.1326 17.6256 25.1047 17.6286C25.0488 17.6348 24.9689 17.6429 24.8705 17.6506C24.674 17.6661 24.4018 17.6805 24.0988 17.6759C23.5124 17.6671 22.7365 17.5875 22.1991 17.2448C21.6617 16.9022 21.2824 16.2452 21.0449 15.7287C20.9221 15.4618 20.8295 15.2147 20.7675 15.0345C20.7364 14.9442 20.7129 14.8702 20.697 14.8182C20.689 14.7922 20.6829 14.7717 20.6788 14.7574L20.674 14.7407L20.6727 14.736L20.6723 14.7346L20.6721 14.7339C20.6721 14.7339 20.6721 14.7339 20.9783 14.6553C20.9337 14.3531 20.9337 14.3531 20.9337 14.3531L20.9345 14.353L20.936 14.3528L20.941 14.3521L20.9588 14.3498C20.9741 14.3479 20.996 14.3453 21.024 14.3422C21.0798 14.336 21.1598 14.3279 21.2582 14.3202C21.4546 14.3047 21.7269 14.2904 22.0299 14.2949C22.6162 14.3037 23.3922 14.3833 23.9296 14.726C24.467 15.0687 24.8462 15.7256 25.0838 16.2422C25.2065 16.509 25.2992 16.7561 25.3612 16.9363C25.3923 17.0267 25.4158 17.1007 25.4317 17.1526C25.4397 17.1786 25.4457 17.1991 25.4499 17.2134L25.4547 17.2301L25.456 17.2348L25.4566 17.2368C25.4566 17.2368 25.4566 17.237 25.1504 17.3155ZM25.1504 17.3155L25.1949 17.6178L25.5485 17.5694L25.4566 17.2368L25.1504 17.3155ZM24.7316 17.0485C24.6757 16.8921 24.5997 16.6968 24.5044 16.4895C24.2718 15.9838 23.9532 15.4732 23.5798 15.2351C23.2064 14.997 22.5941 14.914 22.02 14.9054C21.7847 14.9018 21.5683 14.9108 21.3971 14.9223C21.453 15.0787 21.529 15.2741 21.6243 15.4813C21.8569 15.9871 22.1755 16.4976 22.5489 16.7357C22.9223 16.9738 23.5346 17.0568 24.1087 17.0655C24.344 17.069 24.5604 17.06 24.7316 17.0485Z" fill="black" fill-opacity="0.88"/>
</svg>
