<svg width="51" height="51" viewBox="0 0 51 51" fill="none" xmlns="http://www.w3.org/2000/svg">
<path d="M26.0833 48.583C15.7493 34.576 10.5833 24.6101 10.5833 18.683C10.5833 14.413 12.2164 10.3179 15.1232 7.29861C18.03 4.27927 21.9725 2.58303 26.0833 2.58303C30.1942 2.58303 34.1367 4.27927 37.0435 7.29861C39.9503 10.3179 41.5833 14.413 41.5833 18.683C41.5833 24.6101 36.4174 34.576 26.0833 48.583ZM26.0833 27.883C28.4324 27.883 30.6852 26.9137 32.3463 25.1884C34.0073 23.4631 34.9405 21.123 34.9405 18.683C34.9405 16.243 34.0073 13.903 32.3463 12.1776C30.6852 10.4523 28.4324 9.48303 26.0833 9.48303C23.7343 9.48303 21.4814 10.4523 19.8204 12.1776C18.1593 13.903 17.2262 16.243 17.2262 18.683C17.2262 21.123 18.1593 23.4631 19.8204 25.1884C21.4814 26.9137 23.7343 27.883 26.0833 27.883Z" fill="#FFC53D"/>
<circle cx="26.0833" cy="18.4991" r="11" fill="white"/>
<path fill-rule="evenodd" clip-rule="evenodd" d="M31.9602 12.1718L31.6941 12.2034L31.7257 11.9373L31.9367 11.9608L31.9602 12.1718ZM28.6725 15.225C28.4064 15.2566 28.4064 15.2564 28.4064 15.2564L28.4063 15.2557L28.4061 15.2543L28.4056 15.2496L28.4041 15.2335C28.4028 15.2198 28.4011 15.2003 28.3992 15.1756C28.3956 15.1261 28.3914 15.0557 28.389 14.969C28.3842 14.7962 28.3864 14.5567 28.4149 14.29C28.4705 13.7692 28.6318 13.0887 29.0948 12.6257C29.5578 12.1627 30.2383 12.0014 30.7591 11.9458C31.0258 11.9173 31.2653 11.9151 31.4381 11.9199C31.5248 11.9223 31.5952 11.9265 31.6447 11.9301C31.6694 11.932 31.6889 11.9337 31.7026 11.935L31.7187 11.9365L31.7234 11.937L31.7248 11.9372L31.7257 11.9373C31.7257 11.9373 31.7257 11.9373 31.6941 12.2034C31.9602 12.1718 31.9602 12.1718 31.9602 12.1718L31.9603 12.1726L31.9604 12.1741L31.9609 12.1787L31.9625 12.1949C31.9638 12.2085 31.9655 12.2281 31.9673 12.2528C31.971 12.3022 31.9752 12.3727 31.9776 12.4593C31.9824 12.6322 31.9802 12.8717 31.9517 13.1384C31.8961 13.6591 31.7347 14.3397 31.2717 14.8026C30.8087 15.2656 30.1282 15.427 29.6075 15.4826C29.3408 15.5111 29.1013 15.5133 28.9284 15.5085C28.8418 15.5061 28.7713 15.5019 28.7219 15.4982C28.6972 15.4964 28.6776 15.4947 28.664 15.4934L28.6478 15.4918L28.6432 15.4914L28.6417 15.4912L28.641 15.4911C28.641 15.4911 28.6409 15.4911 28.6725 15.225ZM28.6725 15.225L28.4064 15.2564L28.4299 15.4676L28.641 15.4911L28.6725 15.225ZM28.925 14.9724C28.9323 14.9727 28.9397 14.9729 28.9473 14.9731C29.1028 14.9774 29.3175 14.9753 29.5545 14.95C30.0411 14.8981 30.5659 14.7539 30.8944 14.4253C31.223 14.0968 31.3672 13.572 31.4191 13.0854C31.4444 12.8484 31.4465 12.6337 31.4422 12.4782C31.442 12.4706 31.4418 12.4632 31.4415 12.4559C31.4343 12.4557 31.4269 12.4555 31.4193 12.4553C31.2638 12.4509 31.0491 12.453 30.8121 12.4783C30.3255 12.5303 29.8007 12.6745 29.4721 13.003C29.1436 13.3316 28.9994 13.8564 28.9474 14.343C28.9221 14.58 28.92 14.7947 28.9244 14.9502C28.9246 14.9578 28.9248 14.9652 28.925 14.9724Z" fill="black" fill-opacity="0.88"/>
<path fill-rule="evenodd" clip-rule="evenodd" d="M26.5494 12.7657L26.3856 12.9627L26.2192 12.739L26.3835 12.6218L26.5494 12.7657ZM26.413 17.4194C26.2492 17.6165 26.2491 17.6164 26.2491 17.6164L26.2485 17.6159L26.2473 17.6148L26.2435 17.6115L26.2304 17.5998C26.2192 17.5898 26.2034 17.5755 26.1836 17.5571C26.1439 17.5202 26.0881 17.467 26.0215 17.3997C25.8887 17.2655 25.7112 17.0734 25.5328 16.842C25.1841 16.3898 24.7953 15.7406 24.7912 15.0615C24.787 14.3824 25.1682 13.7951 25.5116 13.3987C25.6874 13.1959 25.8627 13.0322 25.994 12.9193C26.0598 12.8627 26.115 12.8184 26.1542 12.7879C26.1739 12.7727 26.1895 12.7609 26.2006 12.7527L26.2136 12.7431L26.2174 12.7404L26.2185 12.7395L26.2192 12.739C26.2192 12.739 26.2192 12.739 26.3856 12.9627C26.5494 12.7657 26.5494 12.7657 26.5494 12.7657L26.5501 12.7663L26.5513 12.7673L26.5551 12.7706L26.5682 12.7823C26.5794 12.7923 26.5952 12.8067 26.615 12.8251C26.6547 12.8619 26.7104 12.9151 26.777 12.9824C26.9098 13.1166 27.0874 13.3087 27.2658 13.5401C27.6145 13.9923 28.0032 14.6416 28.0074 15.3207C28.0116 15.9998 27.6304 16.587 27.287 16.9834C27.1112 17.1862 26.9359 17.3499 26.8046 17.4628C26.7387 17.5195 26.6836 17.5637 26.6443 17.5942C26.6247 17.6094 26.609 17.6212 26.598 17.6294L26.585 17.639L26.5812 17.6417L26.58 17.6426L26.5795 17.643C26.5795 17.643 26.5794 17.6431 26.413 17.4194ZM26.413 17.4194L26.2491 17.6164L26.4151 17.7603L26.5795 17.643L26.413 17.4194ZM26.4108 17.0653C26.4197 17.0578 26.4289 17.05 26.4383 17.0418C26.5571 16.9397 26.715 16.7922 26.8721 16.6109C27.1942 16.239 27.4769 15.7661 27.4739 15.2777C27.4709 14.7892 27.1821 14.2702 26.8551 13.8461C26.6956 13.6393 26.5357 13.4662 26.4156 13.3447C26.4061 13.3351 26.3968 13.3258 26.3878 13.3168C26.3789 13.3243 26.3697 13.3322 26.3603 13.3403C26.2415 13.4425 26.0836 13.59 25.9265 13.7712C25.6043 14.1431 25.3217 14.616 25.3247 15.1045C25.3277 15.5929 25.6164 16.1119 25.9435 16.536C26.103 16.7428 26.2628 16.916 26.383 17.0374C26.3925 17.047 26.4018 17.0563 26.4108 17.0653Z" fill="black" fill-opacity="0.88"/>
<path fill-rule="evenodd" clip-rule="evenodd" d="M31.1318 17.3481L30.9348 17.5119L31.1584 17.6783L31.2757 17.514L31.1318 17.3481ZM26.478 17.4845C26.281 17.6483 26.2811 17.6484 26.2811 17.6484L26.2816 17.649L26.2826 17.6502L26.286 17.654L26.2977 17.6671C26.3077 17.6783 26.322 17.6941 26.3404 17.7139C26.3772 17.7536 26.4304 17.8093 26.4977 17.8759C26.632 18.0087 26.8241 18.1863 27.0554 18.3647C27.5076 18.7134 28.1569 19.1021 28.836 19.1063C29.5151 19.1105 30.1023 18.7293 30.4987 18.3859C30.7016 18.2101 30.8652 18.0348 30.9782 17.9035C31.0348 17.8376 31.0791 17.7824 31.1095 17.7432C31.1248 17.7236 31.1366 17.7079 31.1448 17.6969L31.1544 17.6839L31.1571 17.6801L31.1579 17.6789L31.1584 17.6783C31.1584 17.6783 31.1584 17.6783 30.9348 17.5119C31.1318 17.3481 31.1318 17.3481 31.1318 17.3481L31.1312 17.3474L31.1302 17.3462L31.1269 17.3424L31.1152 17.3293C31.1052 17.3181 31.0908 17.3023 31.0724 17.2825C31.0356 17.2428 30.9824 17.187 30.9151 17.1204C30.7808 16.9876 30.5888 16.8101 30.3574 16.6317C29.9052 16.283 29.2559 15.8942 28.5768 15.8901C27.8977 15.8859 27.3105 16.2671 26.9141 16.6105C26.7112 16.7863 26.5476 16.9616 26.4346 17.0929C26.378 17.1587 26.3337 17.2139 26.3033 17.2531C26.288 17.2728 26.2762 17.2884 26.268 17.2995L26.2584 17.3125L26.2557 17.3163L26.2549 17.3174L26.2545 17.318C26.2545 17.318 26.2544 17.3181 26.478 17.4845ZM26.478 17.4845L26.2811 17.6484L26.1371 17.4824L26.2545 17.318L26.478 17.4845ZM26.8322 17.4867C26.8397 17.4778 26.8475 17.4686 26.8556 17.4592C26.9578 17.3404 27.1053 17.1825 27.2866 17.0254C27.6584 16.7032 28.1314 16.4206 28.6198 16.4236C29.1082 16.4266 29.6272 16.7153 30.0514 17.0424C30.2582 17.2018 30.4313 17.3617 30.5527 17.4819C30.5624 17.4914 30.5717 17.5007 30.5806 17.5097C30.5731 17.5186 30.5653 17.5278 30.5572 17.5372C30.455 17.656 30.3075 17.8139 30.1262 17.971C29.7544 18.2931 29.2815 18.5758 28.793 18.5728C28.3046 18.5698 27.7856 18.281 27.3614 17.954C27.1546 17.7945 26.9815 17.6346 26.8601 17.5145C26.8504 17.5049 26.8411 17.4957 26.8322 17.4867Z" fill="black" fill-opacity="0.88"/>
<path fill-rule="evenodd" clip-rule="evenodd" d="M24.0219 15.2932L23.8581 15.4902L23.6917 15.2666L23.856 15.1493L24.0219 15.2932ZM23.8854 19.947C23.7216 20.144 23.7215 20.1439 23.7215 20.1439L23.721 20.1434L23.7198 20.1424L23.716 20.139L23.7028 20.1273C23.6917 20.1174 23.6759 20.103 23.656 20.0846C23.6164 20.0478 23.5606 19.9946 23.494 19.9273C23.3612 19.793 23.1837 19.6009 23.0052 19.3696C22.6566 18.9174 22.2678 18.2681 22.2636 17.589C22.2595 16.9099 22.6406 16.3227 22.9841 15.9263C23.1598 15.7234 23.3352 15.5598 23.4665 15.4468C23.5323 15.3902 23.5875 15.3459 23.6267 15.3155C23.6463 15.3002 23.662 15.2884 23.673 15.2802L23.6861 15.2706L23.6898 15.2679L23.691 15.2671L23.6917 15.2666C23.6917 15.2666 23.6917 15.2666 23.8581 15.4902C24.0219 15.2932 24.0219 15.2932 24.0219 15.2932L24.0225 15.2938L24.0237 15.2948L24.0275 15.2982L24.0407 15.3098C24.0518 15.3198 24.0677 15.3342 24.0875 15.3526C24.1271 15.3894 24.1829 15.4426 24.2495 15.5099C24.3823 15.6442 24.5598 15.8362 24.7383 16.0676C25.0869 16.5198 25.4757 17.1691 25.4799 17.8482C25.4841 18.5273 25.1029 19.1145 24.7594 19.5109C24.5837 19.7138 24.4083 19.8774 24.277 19.9904C24.2112 20.047 24.156 20.0913 24.1168 20.1217C24.0972 20.137 24.0815 20.1488 24.0705 20.157L24.0574 20.1666L24.0537 20.1693L24.0525 20.1701L24.052 20.1705C24.052 20.1705 24.0518 20.1706 23.8854 19.947ZM23.8854 19.947L23.7215 20.1439L23.8875 20.2879L24.052 20.1705L23.8854 19.947ZM23.8833 19.5928C23.8922 19.5853 23.9013 19.5775 23.9108 19.5694C24.0295 19.4672 24.1875 19.3197 24.3445 19.1384C24.6667 18.7666 24.9494 18.2936 24.9464 17.8052C24.9434 17.3168 24.6546 16.7978 24.3275 16.3736C24.1681 16.1668 24.0082 15.9937 23.8881 15.8723C23.8785 15.8626 23.8692 15.8533 23.8602 15.8444C23.8513 15.8519 23.8422 15.8597 23.8327 15.8678C23.714 15.97 23.556 16.1175 23.399 16.2988C23.0768 16.6706 22.7941 17.1436 22.7971 17.632C22.8001 18.1204 23.0889 18.6394 23.416 19.0636C23.5754 19.2704 23.7353 19.4435 23.8554 19.5649C23.865 19.5746 23.8743 19.5839 23.8833 19.5928Z" fill="black" fill-opacity="0.88"/>
<path fill-rule="evenodd" clip-rule="evenodd" d="M28.6043 19.8756L28.4073 20.0394L28.6309 20.2058L28.7481 20.0415L28.6043 19.8756ZM23.9505 20.012C23.7535 20.1758 23.7536 20.1759 23.7536 20.1759L23.7541 20.1765L23.7551 20.1777L23.7584 20.1815L23.7701 20.1946C23.7801 20.2058 23.7945 20.2216 23.8129 20.2414C23.8497 20.2811 23.9029 20.3369 23.9702 20.4035C24.1044 20.5363 24.2965 20.7138 24.5279 20.8922C24.9801 21.2409 25.6294 21.6297 26.3085 21.6338C26.9876 21.638 27.5748 21.2568 27.9712 20.9134C28.1741 20.7376 28.3377 20.5623 28.4506 20.431C28.5073 20.3652 28.5515 20.31 28.582 20.2708C28.5972 20.2511 28.609 20.2355 28.6173 20.2244L28.6268 20.2114L28.6296 20.2076L28.6304 20.2065L28.6309 20.2058C28.6309 20.2058 28.6309 20.2058 28.4073 20.0394C28.6043 19.8756 28.6043 19.8756 28.6043 19.8756L28.6037 19.8749L28.6027 19.8737L28.5993 19.8699L28.5876 19.8568C28.5776 19.8456 28.5633 19.8298 28.5449 19.81C28.508 19.7703 28.4548 19.7146 28.3875 19.648C28.2533 19.5152 28.0612 19.3376 27.8298 19.1592C27.3777 18.8105 26.7284 18.4218 26.0493 18.4176C25.3702 18.4134 24.783 18.7946 24.3865 19.138C24.1837 19.3138 24.0201 19.4891 23.9071 19.6204C23.8505 19.6863 23.8062 19.7415 23.7758 19.7807C23.7605 19.8003 23.7487 19.816 23.7405 19.827L23.7309 19.84L23.7282 19.8438L23.7274 19.845L23.727 19.8455C23.727 19.8455 23.7269 19.8456 23.9505 20.012ZM23.9505 20.012L23.7536 20.1759L23.6096 20.0099L23.727 19.8455L23.9505 20.012ZM24.3046 20.0142C24.3122 20.0053 24.32 19.9961 24.3281 19.9867C24.4303 19.8679 24.5778 19.71 24.7591 19.5529C25.1309 19.2308 25.6038 18.9481 26.0923 18.9511C26.5807 18.9541 27.0997 19.2429 27.5239 19.5699C27.7306 19.7294 27.9038 19.8893 28.0252 20.0094C28.0348 20.019 28.0441 20.0282 28.0531 20.0372C28.0456 20.0461 28.0378 20.0553 28.0296 20.0647C27.9275 20.1835 27.78 20.3414 27.5987 20.4985C27.2268 20.8207 26.7539 21.1033 26.2655 21.1003C25.777 21.0973 25.2581 20.8086 24.8339 20.4815C24.6271 20.322 24.454 20.1622 24.3326 20.042C24.3229 20.0325 24.3136 20.0232 24.3046 20.0142Z" fill="black" fill-opacity="0.88"/>
<path fill-rule="evenodd" clip-rule="evenodd" d="M21.5296 17.7855L21.3658 17.9825L21.1994 17.7589L21.3637 17.6416L21.5296 17.7855ZM21.3932 22.4393C21.2294 22.6363 21.2292 22.6362 21.2292 22.6362L21.2287 22.6357L21.2275 22.6347L21.2237 22.6313L21.2106 22.6196C21.1994 22.6096 21.1836 22.5953 21.1637 22.5769C21.1241 22.54 21.0683 22.4868 21.0017 22.4195C20.8689 22.2853 20.6914 22.0932 20.513 21.8618C20.1643 21.4097 19.7755 20.7604 19.7713 20.0813C19.7672 19.4022 20.1483 18.815 20.4918 18.4185C20.6676 18.2157 20.8429 18.0521 20.9742 17.9391C21.04 17.8825 21.0952 17.8382 21.1344 17.8078C21.1541 17.7925 21.1697 17.7807 21.1808 17.7725L21.1938 17.7629L21.1975 17.7602L21.1987 17.7594L21.1994 17.7589C21.1994 17.7589 21.1994 17.7589 21.3658 17.9825C21.5296 17.7855 21.5296 17.7855 21.5296 17.7855L21.5303 17.7861L21.5314 17.7871L21.5352 17.7904L21.5484 17.8021C21.5595 17.8121 21.5754 17.8265 21.5952 17.8449C21.6348 17.8817 21.6906 17.9349 21.7572 18.0022C21.89 18.1364 22.0676 18.3285 22.246 18.5599C22.5947 19.0121 22.9834 19.6614 22.9876 20.3405C22.9918 21.0196 22.6106 21.6068 22.2671 22.0032C22.0914 22.2061 21.916 22.3697 21.7847 22.4827C21.7189 22.5393 21.6637 22.5835 21.6245 22.614C21.6049 22.6292 21.5892 22.641 21.5782 22.6493L21.5652 22.6588L21.5614 22.6616L21.5602 22.6624L21.5597 22.6628C21.5597 22.6628 21.5596 22.6629 21.3932 22.4393ZM21.3932 22.4393L21.2292 22.6362L21.3953 22.7801L21.5597 22.6628L21.3932 22.4393ZM21.391 22.0851C21.3999 22.0776 21.4091 22.0698 21.4185 22.0616C21.5373 21.9595 21.6952 21.812 21.8522 21.6307C22.1744 21.2588 22.4571 20.7859 22.4541 20.2975C22.4511 19.809 22.1623 19.2901 21.8353 18.8659C21.6758 18.6591 21.5159 18.486 21.3958 18.3646C21.3862 18.3549 21.377 18.3456 21.368 18.3366C21.3591 18.3442 21.3499 18.352 21.3404 18.3601C21.2217 18.4623 21.0638 18.6098 20.9067 18.7911C20.5845 19.1629 20.3019 19.6358 20.3049 20.1243C20.3079 20.6127 20.5966 21.1317 20.9237 21.5559C21.0831 21.7626 21.243 21.9358 21.3632 22.0572C21.3727 22.0668 21.382 22.0761 21.391 22.0851Z" fill="black" fill-opacity="0.88"/>
<path fill-rule="evenodd" clip-rule="evenodd" d="M26.112 22.3679L25.915 22.5317L26.1386 22.6981L26.2559 22.5338L26.112 22.3679ZM21.4582 22.5043C21.2612 22.6681 21.2613 22.6682 21.2613 22.6682L21.2618 22.6688L21.2628 22.67L21.2662 22.6738L21.2778 22.6869C21.2878 22.6981 21.3022 22.7139 21.3206 22.7337C21.3574 22.7734 21.4106 22.8292 21.4779 22.8957C21.6122 23.0286 21.8042 23.2061 22.0356 23.3845C22.4878 23.7332 23.1371 24.1219 23.8162 24.1261C24.4953 24.1303 25.0825 23.7491 25.4789 23.4057C25.6818 23.2299 25.8454 23.0546 25.9584 22.9233C26.015 22.8575 26.0593 22.8023 26.0897 22.763C26.105 22.7434 26.1168 22.7277 26.125 22.7167L26.1346 22.7037L26.1373 22.6999L26.1381 22.6988L26.1386 22.6981C26.1386 22.6981 26.1386 22.6981 25.915 22.5317C26.112 22.3679 26.112 22.3679 26.112 22.3679L26.1114 22.3672L26.1104 22.366L26.107 22.3622L26.0953 22.3491C26.0854 22.3379 26.071 22.3221 26.0526 22.3023C26.0158 22.2626 25.9626 22.2068 25.8953 22.1403C25.761 22.0074 25.5689 21.8299 25.3376 21.6515C24.8854 21.3028 24.2361 20.914 23.557 20.9099C22.8779 20.9057 22.2907 21.2869 21.8943 21.6303C21.6914 21.8061 21.5278 21.9814 21.4148 22.1127C21.3582 22.1785 21.3139 22.2337 21.2835 22.273C21.2682 22.2926 21.2564 22.3082 21.2482 22.3193L21.2386 22.3323L21.2359 22.3361L21.2351 22.3372L21.2347 22.3378C21.2347 22.3378 21.2346 22.3379 21.4582 22.5043ZM21.4582 22.5043L21.2613 22.6682L21.1173 22.5022L21.2347 22.3378L21.4582 22.5043ZM21.8124 22.5065C21.8199 22.4976 21.8277 22.4884 21.8358 22.479C21.938 22.3602 22.0855 22.2023 22.2668 22.0452C22.6386 21.723 23.1116 21.4404 23.6 21.4434C24.0884 21.4464 24.6074 21.7351 25.0316 22.0622C25.2384 22.2217 25.4115 22.3816 25.5329 22.5017C25.5426 22.5112 25.5519 22.5205 25.5608 22.5295C25.5533 22.5384 25.5455 22.5476 25.5374 22.557C25.4352 22.6758 25.2877 22.8337 25.1064 22.9908C24.7346 23.3129 24.2616 23.5956 23.7732 23.5926C23.2848 23.5896 22.7658 23.3008 22.3416 22.9738C22.1348 22.8143 21.9617 22.6544 21.8403 22.5343C21.8306 22.5248 21.8213 22.5155 21.8124 22.5065Z" fill="black" fill-opacity="0.88"/>
<path fill-rule="evenodd" clip-rule="evenodd" d="M21.2322 22.288L21.6095 22.6653L20.929 23.3457L20.9249 23.3519C20.9133 23.3694 20.8962 23.3953 20.8753 23.4281C20.8335 23.494 20.7766 23.5867 20.7171 23.6938C20.5941 23.915 20.4746 24.1714 20.435 24.3745C20.3995 24.5571 20.4047 24.8177 20.4235 25.0505C20.4326 25.1632 20.4443 25.263 20.4537 25.3345C20.4584 25.3702 20.4625 25.3987 20.4654 25.4179L20.4687 25.4397L20.4696 25.4449L20.4698 25.446L20.2055 25.4915C19.9413 25.537 19.9413 25.5369 19.9413 25.5369L19.9411 25.536L19.9408 25.534L19.9397 25.5269L19.9357 25.5011C19.9324 25.479 19.9279 25.4474 19.9227 25.4083C19.9124 25.3301 19.8997 25.2212 19.8897 25.0975C19.8703 24.8576 19.8589 24.535 19.9094 24.2758C19.9661 23.9848 20.1215 23.6664 20.2494 23.4362C20.3153 23.3177 20.3779 23.2156 20.4241 23.143C20.4472 23.1066 20.4664 23.0775 20.4799 23.0572L20.4958 23.0335L20.5003 23.0269L20.5016 23.0251L20.502 23.0245C20.502 23.0245 20.5022 23.0241 20.7221 23.1754L20.502 23.0245L20.5161 23.004L21.2322 22.288Z" fill="black" fill-opacity="0.88"/>
</svg>
