<svg width="51" height="51" viewBox="0 0 51 51" fill="none" xmlns="http://www.w3.org/2000/svg">
<path d="M26.0833 48.583C15.7493 34.576 10.5833 24.6101 10.5833 18.683C10.5833 14.413 12.2164 10.3179 15.1232 7.29861C18.03 4.27927 21.9725 2.58303 26.0833 2.58303C30.1942 2.58303 34.1367 4.27927 37.0435 7.29861C39.9503 10.3179 41.5833 14.413 41.5833 18.683C41.5833 24.6101 36.4174 34.576 26.0833 48.583ZM26.0833 27.883C28.4324 27.883 30.6852 26.9137 32.3463 25.1884C34.0073 23.4631 34.9405 21.123 34.9405 18.683C34.9405 16.243 34.0073 13.903 32.3463 12.1776C30.6852 10.4523 28.4324 9.48303 26.0833 9.48303C23.7343 9.48303 21.4814 10.4523 19.8204 12.1776C18.1593 13.903 17.2262 16.243 17.2262 18.683C17.2262 21.123 18.1593 23.4631 19.8204 25.1884C21.4814 26.9137 23.7343 27.883 26.0833 27.883Z" fill="#FFEC3D"/>
<circle cx="26.0833" cy="18.4991" r="11" fill="white"/>
<path fill-rule="evenodd" clip-rule="evenodd" d="M24.8872 14.7042L24.5569 14.8248L24.4372 14.4676L24.7462 14.3956L24.8872 14.7042ZM19.8032 24.6273C19.4631 24.7248 19.463 24.7244 19.463 24.7244L19.4624 24.7228L19.4613 24.72L19.4581 24.7114C19.4556 24.7044 19.4522 24.695 19.448 24.6832C19.4398 24.6595 19.4286 24.6261 19.4154 24.5834C19.3889 24.4982 19.3542 24.3758 19.3185 24.2199C19.247 23.9081 19.1712 23.4617 19.1484 22.909C19.1028 21.8019 19.2704 20.2738 20.1046 18.5536C20.9388 16.8334 22.0067 15.8139 22.8755 15.2234C23.3093 14.9286 23.6923 14.7414 23.9704 14.6271C24.1095 14.5699 24.2224 14.5309 24.3024 14.5058C24.3424 14.4933 24.3742 14.4842 24.397 14.478C24.4083 14.4749 24.4174 14.4725 24.4242 14.4708L24.4325 14.4688L24.4353 14.4681L24.4364 14.4678L24.4372 14.4676C24.4372 14.4676 24.4372 14.4676 24.5569 14.8248C24.8872 14.7042 24.8872 14.7042 24.8872 14.7042L24.8877 14.7051L24.8882 14.7063L24.8895 14.7094L24.8934 14.718C24.8964 14.7249 24.9003 14.7342 24.905 14.7457C24.9145 14.7687 24.9272 14.8008 24.9422 14.8417C24.9721 14.9235 25.0111 15.0406 25.0514 15.1905C25.1321 15.4904 25.2179 15.9216 25.2471 16.4651C25.3055 17.5542 25.1358 19.0831 24.2554 20.8985C23.3751 22.714 22.3078 23.7358 21.4453 24.3047C21.0149 24.5885 20.6377 24.7582 20.3634 24.8576C20.2264 24.9073 20.115 24.9394 20.0357 24.9595C19.996 24.9695 19.9643 24.9765 19.9414 24.9812C19.9299 24.9836 19.9207 24.9853 19.9137 24.9866L19.9049 24.9882L19.9018 24.9887L19.9006 24.9889C19.9006 24.9889 19.8996 24.9891 19.8032 24.6273ZM19.8032 24.6273L19.463 24.7244L19.5843 25.0399L19.8996 24.9891L19.8032 24.6273ZM20.04 24.1687C20.043 24.1677 20.0459 24.1666 20.0489 24.1655C20.2796 24.0819 20.6113 23.934 20.9969 23.6797C21.7661 23.1724 22.7585 22.2358 23.5895 20.5223C24.4204 18.8088 24.5679 17.3949 24.5157 16.4235C24.4896 15.9367 24.4132 15.5582 24.3453 15.3059C24.3445 15.3026 24.3436 15.2994 24.3427 15.2962C24.3322 15.3004 24.3215 15.3047 24.3106 15.3092C24.0689 15.4086 23.7252 15.5757 23.3311 15.8435C22.5444 16.3782 21.5526 17.3172 20.7706 18.9298C19.9885 20.5425 19.8389 21.9572 19.8802 22.9597C19.9009 23.4618 19.9695 23.8618 20.0316 24.1328C20.0344 24.1451 20.0372 24.157 20.04 24.1687Z" fill="black" fill-opacity="0.88"/>
<path fill-rule="evenodd" clip-rule="evenodd" d="M29.8892 19.7047L29.7659 20.0338L30.123 20.1535L30.1946 19.8469L29.8892 19.7047ZM29.2954 20.2457C29.2923 20.2449 29.2892 20.244 29.286 20.2432C29.036 20.1746 28.6604 20.0969 28.1765 20.0696C27.211 20.015 25.8026 20.1597 24.0891 20.9906L23.7129 20.3246C25.5284 19.4442 27.0524 19.277 28.137 19.3384C28.6782 19.369 29.1072 19.4563 29.4054 19.5381C29.5545 19.579 29.6709 19.6185 29.7522 19.6489C29.7929 19.6641 29.8248 19.6769 29.8478 19.6866C29.8592 19.6914 29.8684 19.6954 29.8753 19.6984L29.884 19.7023L29.887 19.7037L29.8882 19.7043C29.8882 19.7043 29.8892 19.7047 29.7659 20.0338C30.123 20.1535 30.123 20.1535 30.123 20.1535L30.1229 20.1543L30.1226 20.1553L30.1219 20.1582L30.1199 20.1665C30.1182 20.1732 30.1158 20.1824 30.1127 20.1937C30.1065 20.2165 30.0974 20.2483 30.0849 20.2883C30.0597 20.3683 30.0208 20.4812 29.9636 20.6202C29.8493 20.8983 29.6621 21.2814 29.3673 21.7152C28.7768 22.584 27.7573 23.6519 26.0371 24.4861C24.3111 25.3231 22.7208 25.4568 21.5563 25.3781C20.9747 25.3387 20.5238 25.2445 20.1661 25.1801C19.9782 25.1463 19.88 25.1151 19.7438 25.0823C19.6983 25.0673 19.6094 25.049 19.5843 25.0399C19.5718 25.0353 19.5915 25.0426 19.5843 25.0399C19.5843 25.0399 19.5843 25.0399 19.7319 24.6602C19.8338 24.3218 19.8335 24.3217 19.8335 24.3217L19.8364 24.3228L19.8547 24.3296C19.872 24.3359 19.8995 24.3457 19.9367 24.3579C20.0109 24.3823 20.1237 24.4166 20.2705 24.4536C20.5643 24.5274 20.9938 24.6114 21.5249 24.6474C22.5857 24.7191 24.054 24.5993 25.6609 23.8201C27.2735 23.038 28.2125 22.0463 28.7472 21.2595C29.015 20.8655 29.1821 20.5218 29.2815 20.2801C29.2863 20.2684 29.2909 20.257 29.2954 20.2457Z" fill="black" fill-opacity="0.88"/>
<path fill-rule="evenodd" clip-rule="evenodd" d="M31.7646 13.8637C31.6926 13.6518 31.5681 13.4533 31.4387 13.3266C31.3002 13.1909 31.2861 12.9801 31.4073 12.8558C31.5285 12.7314 31.739 12.7406 31.8776 12.8763C32.1046 13.0988 32.2887 13.4052 32.3936 13.7138C32.497 14.0184 32.5399 14.3767 32.4141 14.6788C32.3168 14.9125 32.1065 15.1121 31.9574 15.2366C31.921 15.2671 31.8855 15.2951 31.8526 15.3203C31.8729 15.382 31.894 15.4525 31.9129 15.5285C31.9726 15.7685 32.0315 16.1414 31.8918 16.4458C31.7532 16.7478 31.4313 16.949 31.209 17.0639C31.134 17.1026 31.0619 17.1357 30.9982 17.1629C31.0106 17.2371 31.0227 17.3228 31.0312 17.415C31.0568 17.6905 31.0591 18.0948 30.8802 18.3992C30.7223 18.6681 30.4186 18.8632 30.2002 18.9813C30.0838 19.0443 29.976 19.0935 29.8973 19.127C29.8577 19.1439 29.8251 19.1569 29.8019 19.1659C29.7903 19.1704 29.7811 19.1739 29.7744 19.1764L29.7665 19.1794L29.764 19.1802L29.7632 19.1805C29.7632 19.1805 29.7627 19.1807 29.6204 18.8655L29.7632 19.1805C29.5968 19.2403 29.3976 19.1478 29.319 18.9737C29.2405 18.7997 29.3116 18.6102 29.4779 18.5504L29.4786 18.5501L29.4831 18.5485L29.5031 18.5408C29.5211 18.5339 29.5478 18.5232 29.5809 18.5091C29.6475 18.4807 29.7383 18.4393 29.8349 18.387C30.0425 18.2746 30.2226 18.1408 30.2958 18.0163C30.3733 17.8843 30.3908 17.6536 30.3676 17.4034C30.3568 17.2871 30.3388 17.1818 30.3234 17.1057C30.3157 17.0678 30.3088 17.0378 30.304 17.0178C30.3017 17.0078 30.2998 17.0004 30.2986 16.9959L30.2974 16.9913L30.4876 16.6189L30.4926 16.6173L30.5133 16.6103C30.532 16.6038 30.5597 16.5939 30.594 16.5806C30.6629 16.554 30.7559 16.5147 30.8534 16.4644C31.0674 16.3538 31.2293 16.226 31.2804 16.1146C31.3268 16.0134 31.3197 15.8328 31.2669 15.6205C31.2429 15.524 31.2135 15.4371 31.1901 15.3742C31.1784 15.343 31.1685 15.3184 31.1617 15.3022L31.1543 15.2847L31.153 15.2817C31.0849 15.1313 31.1278 14.9651 31.2555 14.885L31.2589 14.8829L31.2725 14.8741C31.2847 14.866 31.303 14.8537 31.3256 14.8378C31.3712 14.8059 31.433 14.7603 31.4982 14.7059C31.6399 14.5876 31.7547 14.4621 31.7943 14.3668C31.8398 14.2576 31.8379 14.0797 31.7646 13.8637ZM30.4876 16.6189C30.3342 16.6673 30.2529 16.8266 30.2974 16.9913L30.4876 16.6189Z" fill="black" fill-opacity="0.88"/>
<path fill-rule="evenodd" clip-rule="evenodd" d="M30.8559 12.9551C31.0678 13.0271 31.2664 13.1516 31.393 13.2809C31.5287 13.4195 31.7396 13.4335 31.8639 13.3123C31.9882 13.1912 31.979 12.9806 31.8433 12.8421C31.6209 12.615 31.3144 12.4309 31.0058 12.3261C30.7013 12.2227 30.343 12.1797 30.0409 12.3055C29.8071 12.4028 29.6075 12.6131 29.483 12.7622C29.4526 12.7987 29.4245 12.8341 29.3994 12.867C29.3376 12.8467 29.2671 12.8257 29.1912 12.8068C28.9512 12.7471 28.5782 12.6882 28.2739 12.8278C27.9718 12.9664 27.7707 13.2884 27.6558 13.5107C27.617 13.5857 27.584 13.6578 27.5568 13.7215C27.4825 13.709 27.3968 13.697 27.3047 13.6884C27.0292 13.6628 26.6249 13.6606 26.3205 13.8394C26.0516 13.9974 25.8565 14.301 25.7383 14.5194C25.6753 14.6358 25.6261 14.7437 25.5926 14.8224C25.5758 14.8619 25.5627 14.8945 25.5537 14.9177C25.5492 14.9293 25.5457 14.9386 25.5432 14.9452L25.5403 14.9532L25.5394 14.9556L25.5391 14.9564C25.5391 14.9564 25.5389 14.957 25.8541 15.0992L25.5391 14.9564C25.4794 15.1229 25.5719 15.3221 25.746 15.4006C25.92 15.4791 26.1094 15.408 26.1693 15.2417L26.1695 15.241L26.1712 15.2366L26.1788 15.2166C26.1858 15.1986 26.1965 15.1718 26.2106 15.1387C26.2389 15.0721 26.2804 14.9814 26.3327 14.8848C26.445 14.6771 26.5788 14.497 26.7034 14.4239C26.8354 14.3463 27.066 14.3288 27.3163 14.3521C27.4326 14.3629 27.5378 14.3809 27.614 14.3963C27.6518 14.4039 27.6819 14.4108 27.7019 14.4156C27.7118 14.418 27.7192 14.4199 27.7238 14.421L27.7284 14.4222L28.1007 14.2321L28.1024 14.2271L28.1094 14.2063C28.1158 14.1877 28.1258 14.1599 28.139 14.1257C28.1657 14.0568 28.2049 13.9637 28.2553 13.8663C28.3659 13.6522 28.4936 13.4904 28.6051 13.4392C28.7062 13.3928 28.8868 13.3999 29.0991 13.4528C29.1957 13.4768 29.2826 13.5061 29.3455 13.5296C29.3767 13.5412 29.4013 13.5512 29.4174 13.5579L29.4349 13.5653L29.438 13.5667C29.5884 13.6348 29.7545 13.5918 29.8346 13.4641L29.8368 13.4608L29.8456 13.4472C29.8537 13.4349 29.866 13.4166 29.8818 13.394C29.9138 13.3485 29.9593 13.2867 30.0137 13.2215C30.132 13.0798 30.2575 12.965 30.3529 12.9253C30.4621 12.8798 30.6399 12.8818 30.8559 12.9551ZM28.1007 14.2321C28.0524 14.3854 27.8931 14.4668 27.7284 14.4222L28.1007 14.2321Z" fill="black" fill-opacity="0.88"/>
</svg>
