<svg width="51" height="51" viewBox="0 0 51 51" fill="none" xmlns="http://www.w3.org/2000/svg">
<path d="M26.0833 48.583C15.7493 34.576 10.5833 24.6101 10.5833 18.683C10.5833 14.413 12.2164 10.3179 15.1232 7.29861C18.03 4.27927 21.9725 2.58303 26.0833 2.58303C30.1942 2.58303 34.1367 4.27927 37.0435 7.29861C39.9503 10.3179 41.5833 14.413 41.5833 18.683C41.5833 24.6101 36.4174 34.576 26.0833 48.583ZM26.0833 27.883C28.4324 27.883 30.6852 26.9137 32.3463 25.1884C34.0073 23.4631 34.9405 21.123 34.9405 18.683C34.9405 16.243 34.0073 13.903 32.3463 12.1776C30.6852 10.4523 28.4324 9.48303 26.0833 9.48303C23.7343 9.48303 21.4814 10.4523 19.8204 12.1776C18.1593 13.903 17.2262 16.243 17.2262 18.683C17.2262 21.123 18.1593 23.4631 19.8204 25.1884C21.4814 26.9137 23.7343 27.883 26.0833 27.883Z" fill="#36CFC9"/>
<circle cx="26.0833" cy="18.4991" r="11" fill="white"/>
<path fill-rule="evenodd" clip-rule="evenodd" d="M26.2831 16.1376L26.03 16.3685L25.7794 16.1351L26.0327 15.8805L26.2831 16.1376ZM27.8524 18.3314C27.8273 18.2799 27.7992 18.2231 27.769 18.163C27.6463 17.9192 27.4807 17.6077 27.3227 17.371C27.1414 17.0995 26.878 16.7887 26.6679 16.553C26.5613 16.4334 26.4656 16.3301 26.3964 16.2565C26.3618 16.2197 26.3337 16.1903 26.3142 16.1699L26.2916 16.1463L26.2855 16.1401L26.2831 16.1376L26.03 16.3685L25.7794 16.1351L25.777 16.1375L25.7708 16.1438L25.7477 16.1673C25.7278 16.1877 25.6993 16.217 25.664 16.2538C25.5937 16.3272 25.4964 16.4304 25.3882 16.5499C25.175 16.7854 24.9077 17.0971 24.7252 17.3716C24.5675 17.6087 24.4046 17.9212 24.2845 18.1653C24.2556 18.2242 24.2287 18.2799 24.2046 18.3306C24.1742 18.3221 24.1422 18.3133 24.1089 18.3043C23.8882 18.2448 23.597 18.1737 23.3549 18.142C23.0614 18.1036 22.697 18.1046 22.4191 18.1133C22.2774 18.1178 22.1529 18.1244 22.0637 18.13C22.019 18.1328 21.983 18.1353 21.958 18.1371L21.9289 18.1393L21.921 18.1399L21.918 18.1402L21.5587 18.1698L21.6022 18.5161L21.9474 18.4755C21.6022 18.5161 21.6022 18.5161 21.6022 18.5161L21.6023 18.5169L21.6025 18.5185L21.6031 18.5236L21.6056 18.5419C21.6078 18.5576 21.611 18.5802 21.6154 18.6089C21.6241 18.6665 21.6374 18.7488 21.656 18.8502C21.6931 19.0529 21.7518 19.3335 21.8381 19.6461C22.0072 20.2593 22.295 21.0441 22.7701 21.5897C23.2099 22.0947 23.6774 22.4593 24.2193 22.6947C24.6646 22.8881 25.1452 22.9878 25.6786 23.017C25.6799 23.1464 25.6843 23.3052 25.695 23.479C25.7222 23.9165 25.7921 24.4922 25.9815 24.9274C26.2057 25.4426 26.6691 25.8805 27.0408 26.1751C27.2318 26.3264 27.4097 26.4485 27.54 26.5328C27.6053 26.5751 27.659 26.6082 27.697 26.631C27.716 26.6424 27.7311 26.6513 27.7418 26.6575L27.7544 26.6647L27.7581 26.6668L27.7592 26.6675C27.7592 26.6675 27.7599 26.6679 27.935 26.3771C28.1101 26.0863 28.1102 26.0863 28.1102 26.0863L28.1084 26.0853L28.0999 26.0804C28.092 26.0758 28.0798 26.0687 28.0639 26.0591C28.0319 26.0399 27.9848 26.0109 27.9267 25.9733C27.8103 25.8979 27.6512 25.7888 27.4815 25.6543C27.1317 25.3771 26.7787 25.0249 26.6226 24.6662C26.4819 24.343 26.4158 23.8651 26.3894 23.4387C26.3796 23.2813 26.3755 23.1368 26.3742 23.018C26.9011 22.9916 27.3646 22.8995 27.8022 22.7086C28.3316 22.4776 28.7961 22.1139 29.2808 21.5996C29.7607 21.0903 30.0495 20.2963 30.2187 19.6765C30.3055 19.3586 30.365 19.0701 30.4028 18.8612C30.4217 18.7565 30.4353 18.6714 30.4442 18.6118C30.4487 18.5821 30.452 18.5587 30.4542 18.5424L30.4567 18.5235L30.4574 18.5182L30.4577 18.516C30.4577 18.516 30.4577 18.5159 30.1124 18.4755L30.4577 18.516L30.5009 18.1698L30.142 18.1402L30.141 18.1401L30.1388 18.1399L30.131 18.1393L30.1019 18.1371C30.0768 18.1353 30.0409 18.1328 29.9962 18.13C29.907 18.1244 29.7825 18.1178 29.6408 18.1133C29.363 18.1046 28.9986 18.1036 28.7051 18.142C28.463 18.1737 28.1718 18.2448 27.9511 18.3043C27.9167 18.3136 27.8837 18.3227 27.8524 18.3314ZM27.3447 18.8746L27.3439 18.8729L27.3413 18.8671L27.3305 18.8437C27.321 18.8232 27.3069 18.7931 27.2891 18.7556C27.2535 18.6805 27.203 18.5757 27.1436 18.4578C27.0232 18.2184 26.8726 17.9372 26.7384 17.7364C26.5846 17.5059 26.3476 17.2241 26.1413 16.9927C26.1015 16.9481 26.0633 16.9059 26.0276 16.8667C25.9911 16.9061 25.952 16.9486 25.9113 16.9935C25.7023 17.2244 25.4634 17.5053 25.3101 17.7358C25.1777 17.935 25.0303 18.2152 24.9126 18.4546C24.8546 18.5724 24.8054 18.6771 24.7708 18.7523C24.7535 18.7898 24.7399 18.8198 24.7306 18.8403L24.7202 18.8637L24.7176 18.8695L24.717 18.8708L24.5918 19.1545L24.2892 19.0589L24.2879 19.0585L24.2829 19.057L24.2628 19.0507C24.245 19.0453 24.2188 19.0373 24.1859 19.0275C24.1199 19.0079 24.0276 18.9812 23.9222 18.9528C23.7071 18.8948 23.454 18.8342 23.2618 18.8091C23.0287 18.7786 22.7126 18.7776 22.4417 18.7861C22.4107 18.7871 22.3805 18.7882 22.3514 18.7893C22.3862 18.972 22.4378 19.2105 22.5101 19.4725C22.6735 20.0647 22.9299 20.7286 23.302 21.1559C23.6898 21.6013 24.0771 21.8951 24.5041 22.0806C24.9322 22.2665 25.4222 22.3531 26.0299 22.3531C26.6409 22.3531 27.1037 22.2749 27.5164 22.0949C27.9302 21.9144 28.3204 21.6197 28.7668 21.146C29.1252 20.7657 29.3807 20.1111 29.5462 19.5046C29.6209 19.2312 29.674 18.9801 29.7095 18.7894C29.6801 18.7882 29.6496 18.7871 29.6183 18.7861C29.3474 18.7776 29.0313 18.7786 28.7982 18.8091C28.606 18.8342 28.3529 18.8948 28.1378 18.9528C28.0324 18.9812 27.9401 19.0079 27.8741 19.0275C27.8412 19.0373 27.815 19.0453 27.7972 19.0507L27.7771 19.057L27.7721 19.0585L27.771 19.0588L27.4716 19.1534L27.3447 18.8746Z" fill="black" fill-opacity="0.88"/>
<path fill-rule="evenodd" clip-rule="evenodd" d="M23.2119 13.4861C23.7134 12.6776 24.5985 11.8177 26.0594 11.8177C27.5203 11.8177 28.4054 12.6776 28.9069 13.4861C29.1577 13.8905 29.3201 14.2919 29.4199 14.5906C29.4504 14.6818 29.4752 14.7641 29.495 14.8346C29.5225 14.8365 29.5516 14.8389 29.5821 14.8418C29.8062 14.8633 30.1141 14.9139 30.4524 15.0309C31.1347 15.2671 31.9384 15.775 32.411 16.8374C33.0786 18.3377 32.6985 19.4954 32.1365 20.2671C31.8607 20.6459 31.5448 20.9278 31.2995 21.1146C31.1763 21.2084 31.0695 21.2794 30.9922 21.3275C30.9535 21.3517 30.9221 21.3701 30.8995 21.383C30.8939 21.3862 30.8888 21.3891 30.8843 21.3916C30.8798 21.3942 30.8758 21.3963 30.8725 21.3982L30.8643 21.4026L30.8617 21.404L30.8607 21.4045C30.8607 21.4045 30.86 21.4049 30.6936 21.1094L30.86 21.4049C30.6913 21.4939 30.4801 21.4337 30.3882 21.2704C30.2964 21.1074 30.3583 20.9034 30.5264 20.8142L30.5271 20.8139L30.5296 20.8125L30.5459 20.8033C30.5612 20.7946 30.585 20.7807 30.6156 20.7616C30.677 20.7233 30.7656 20.6646 30.8693 20.5857C31.0777 20.427 31.3411 20.1908 31.568 19.8793C32.0115 19.2703 32.3305 18.3585 31.7722 17.1036C31.3911 16.2471 30.7586 15.8519 30.2181 15.6648C29.9449 15.5702 29.6948 15.529 29.5137 15.5117C29.4234 15.5031 29.3513 15.5004 29.3034 15.4999C29.2794 15.4996 29.2616 15.4998 29.2506 15.5001L29.2394 15.5004L29.2386 15.5005L29.2379 15.5005L28.9329 15.5176L28.8772 15.2261L28.8762 15.2212L28.8719 15.2005C28.8677 15.1816 28.861 15.1526 28.8515 15.1149C28.8325 15.0395 28.8022 14.9299 28.758 14.7976C28.6693 14.5319 28.5265 14.1808 28.3105 13.8326C27.8785 13.1361 27.1837 12.4909 26.0594 12.4909C24.9351 12.4909 24.2403 13.1361 23.8083 13.8326C23.5923 14.1808 23.4495 14.5319 23.3608 14.7976C23.3166 14.9299 23.2863 15.0395 23.2673 15.1149C23.2578 15.1526 23.2511 15.1816 23.2469 15.2005L23.2425 15.2212L23.2417 15.2255L23.1891 15.501H22.9005L22.8989 15.501L22.8869 15.5013C22.8754 15.5016 22.8568 15.5023 22.8321 15.5038C22.7826 15.5069 22.7085 15.5131 22.6161 15.5258C22.4305 15.5514 22.1748 15.6027 21.8966 15.7049C21.3424 15.9084 20.7106 16.3079 20.3452 17.1067C19.8584 18.1709 20.1632 19.0838 20.6136 19.7581C20.8399 20.0968 21.0996 20.3687 21.304 20.5563C21.4058 20.6497 21.4927 20.7212 21.5532 20.7686C21.5834 20.7923 21.6069 20.8099 21.6222 20.8211L21.6389 20.8332L21.6422 20.8355C21.7983 20.9436 21.8346 21.1539 21.723 21.305C21.6113 21.4563 21.3941 21.4913 21.2378 21.3833L21.44 21.1094C21.2378 21.3833 21.2378 21.3833 21.2378 21.3833L21.2373 21.3828L21.2364 21.3823L21.2341 21.3806L21.2268 21.3755C21.2207 21.3712 21.2124 21.3651 21.2019 21.3575C21.181 21.3421 21.1516 21.3201 21.1153 21.2916C21.0427 21.2346 20.9419 21.1517 20.8254 21.0447C20.5932 20.8317 20.2937 20.5192 20.0294 20.1235C19.4987 19.3289 19.0971 18.1723 19.7092 16.8342C20.1699 15.827 20.9744 15.3235 21.6499 15.0755C21.9865 14.9519 22.294 14.8903 22.518 14.8594C22.5543 14.8544 22.5885 14.8502 22.6204 14.8467C22.6407 14.7735 22.6667 14.6871 22.6989 14.5906C22.7986 14.2919 22.9611 13.8905 23.2119 13.4861Z" fill="black" fill-opacity="0.88"/>
</svg>
