<svg width="51" height="51" viewBox="0 0 51 51" fill="none" xmlns="http://www.w3.org/2000/svg">
<path d="M26.0833 48.583C15.7492 34.576 10.5833 24.6101 10.5833 18.683C10.5833 14.413 12.2163 10.3179 15.1232 7.29861C18.03 4.27927 21.9725 2.58303 26.0833 2.58303C30.1942 2.58303 34.1367 4.27927 37.0435 7.29861C39.9503 10.3179 41.5833 14.413 41.5833 18.683C41.5833 24.6101 36.4174 34.576 26.0833 48.583ZM26.0833 27.883C28.4324 27.883 30.6852 26.9137 32.3463 25.1884C34.0073 23.4631 34.9405 21.123 34.9405 18.683C34.9405 16.243 34.0073 13.903 32.3463 12.1776C30.6852 10.4523 28.4324 9.48303 26.0833 9.48303C23.7343 9.48303 21.4814 10.4523 19.8204 12.1776C18.1593 13.903 17.2262 16.243 17.2262 18.683C17.2262 21.123 18.1593 23.4631 19.8204 25.1884C21.4814 26.9137 23.7343 27.883 26.0833 27.883Z" fill="#FFA940"/>
<circle cx="26.0833" cy="18.4991" r="11" fill="white"/>
<path fill-rule="evenodd" clip-rule="evenodd" d="M23.1413 24.2459C25.4916 25.2194 28.7787 23.8038 30.2383 20.7604C31.6979 17.7169 30.6186 14.528 28.2683 13.5545C25.918 12.581 22.5936 13.9691 21.134 17.0125C19.6745 20.0559 20.7911 23.2724 23.1413 24.2459ZM22.855 24.8051C25.7095 25.9875 29.2929 24.2992 30.8588 21.0341C32.4246 17.7691 31.38 14.1637 28.5255 12.9813C25.671 11.7989 22.0875 13.4873 20.5217 16.7523C18.9558 20.0174 20.0005 23.6227 22.855 24.8051Z" fill="black" fill-opacity="0.88"/>
<path fill-rule="evenodd" clip-rule="evenodd" d="M26.938 18.7668C26.938 18.7668 26.9382 18.7668 26.8398 18.4836C26.766 18.142 26.7662 18.142 26.7662 18.142L26.7676 18.1417L26.7703 18.1412L26.7788 18.1397C26.7859 18.1385 26.7956 18.1368 26.8078 18.1348C26.8322 18.1309 26.8665 18.1256 26.9087 18.12C26.9926 18.1089 27.1097 18.096 27.2425 18.0894C27.492 18.0769 27.8608 18.0822 28.1636 18.2076C28.4663 18.333 28.7171 18.5844 28.8739 18.7651C28.9574 18.8614 29.0254 18.9509 29.0726 19.0163C29.0963 19.0492 29.115 19.0764 29.1282 19.0959C29.1347 19.1057 29.1399 19.1136 29.1437 19.1193L29.1481 19.1262L29.1495 19.1283L29.15 19.1291C29.15 19.1291 29.1504 19.1296 28.8277 19.307C28.5296 19.426 28.5297 19.4261 28.5297 19.4261L28.5275 19.4228L28.5172 19.4073C28.5077 19.3932 28.4932 19.3721 28.4742 19.3458C28.4361 19.2928 28.3812 19.2207 28.3148 19.1441C28.1717 18.9792 28.0141 18.84 27.8829 18.7857C27.7517 18.7313 27.5349 18.7155 27.3073 18.7268C27.2017 18.7321 27.1073 18.7424 27.0394 18.7514C27.0057 18.7559 26.979 18.76 26.9614 18.7629L26.9421 18.7661L26.938 18.7668Z" fill="black" fill-opacity="0.88"/>
<path fill-rule="evenodd" clip-rule="evenodd" d="M22.4708 19.1259C22.4708 19.1259 22.4494 19.1905 22.3756 18.8489C22.3018 18.5073 22.3019 18.5073 22.3019 18.5073L22.3034 18.507L22.3061 18.5065L22.3146 18.505C22.3216 18.5038 22.3314 18.5021 22.3436 18.5001C22.368 18.4962 22.4023 18.4909 22.4445 18.4853C22.5284 18.4742 22.6454 18.4613 22.7783 18.4547C23.0278 18.4422 23.3966 18.4475 23.6993 18.5729C24.0021 18.6983 24.2529 18.9497 24.4097 19.1304C24.4932 19.2267 24.5612 19.3162 24.6084 19.3816C24.6321 19.4145 24.6508 19.4417 24.6639 19.4612C24.6705 19.471 24.6757 19.4789 24.6794 19.4846L24.6839 19.4915L24.6853 19.4936L24.6858 19.4944C24.6858 19.4944 24.6862 19.4949 24.3635 19.6723C24.0408 19.8497 24.0624 19.7852 24.0624 19.7852L24.0602 19.7819L24.05 19.7664C24.0405 19.7523 24.0259 19.7311 24.007 19.7048C23.9688 19.6519 23.914 19.5798 23.8475 19.5032C23.7045 19.3383 23.5469 19.1991 23.4156 19.1447C23.2844 19.0904 23.0677 19.0745 22.8401 19.0859C22.7344 19.0912 22.64 19.1015 22.5721 19.1105C22.5384 19.115 22.5118 19.1191 22.4941 19.122L22.4749 19.1252L22.4708 19.1259Z" fill="black" fill-opacity="0.88"/>
<path fill-rule="evenodd" clip-rule="evenodd" d="M24.4512 15.6626C24.4512 15.6626 24.4514 15.6626 24.3635 15.3775C24.2897 15.0359 24.2898 15.0359 24.2898 15.0359L24.2913 15.0356L24.294 15.0351L24.3025 15.0336C24.3095 15.0324 24.3193 15.0307 24.3315 15.0287C24.3559 15.0248 24.3902 15.0195 24.4324 15.0139C24.5163 15.0028 24.6333 14.9899 24.7662 14.9833C25.0157 14.9708 25.3845 14.9761 25.6872 15.1015C25.99 15.2269 26.2408 15.4783 26.3976 15.659C26.4811 15.7553 26.5491 15.8448 26.5963 15.9102C26.62 15.9431 26.6387 15.9704 26.6518 15.9899C26.6584 15.9996 26.6636 16.0075 26.6673 16.0132L26.6718 16.0201L26.6732 16.0222L26.6737 16.023C26.6737 16.023 26.6881 15.967 26.3655 16.1444C26.0428 16.3218 26.0429 16.3219 26.0429 16.3219L26.0407 16.3185L26.0304 16.3031C26.0209 16.289 26.0064 16.2678 25.9874 16.2415C25.9493 16.1886 25.8944 16.1164 25.828 16.0399C25.6849 15.875 25.5273 15.7358 25.3961 15.6814C25.2649 15.6271 25.0481 15.6112 24.8205 15.6226C24.7149 15.6278 24.6205 15.6382 24.5526 15.6472C24.5189 15.6517 24.4922 15.6558 24.4746 15.6586L24.4553 15.6619L24.4512 15.6626Z" fill="black" fill-opacity="0.88"/>
<path fill-rule="evenodd" clip-rule="evenodd" d="M25.1639 22.4572C25.1639 22.4572 25.1416 22.5201 25.0678 22.1785C24.994 21.8369 24.9941 21.8369 24.9941 21.8369L24.9956 21.8366L24.9983 21.8361L25.0068 21.8346C25.0138 21.8334 25.0236 21.8317 25.0358 21.8298C25.0602 21.8258 25.0945 21.8205 25.1367 21.8149C25.2206 21.8038 25.3376 21.791 25.4705 21.7843C25.72 21.7719 26.0888 21.7771 26.3916 21.9025C26.6943 22.0279 26.9451 22.2793 27.1019 22.4601C27.1854 22.5563 27.2534 22.6458 27.3006 22.7113C27.3243 22.7441 27.343 22.7714 27.3561 22.7909C27.3627 22.8006 27.3679 22.8085 27.3716 22.8142L27.3761 22.8211L27.3775 22.8233L27.378 22.824C27.378 22.824 27.3784 22.8246 27.0557 23.0019C26.733 23.1793 26.7556 23.1165 26.7556 23.1165L26.7534 23.1132L26.7431 23.0977C26.7336 23.0836 26.7191 23.0624 26.7001 23.0361C26.662 22.9832 26.6071 22.9111 26.5407 22.8345C26.3976 22.6696 26.24 22.5304 26.1088 22.476C25.9776 22.4217 25.7608 22.4058 25.5332 22.4172C25.4275 22.4225 25.3331 22.4328 25.2653 22.4418C25.2316 22.4463 25.2049 22.4504 25.1873 22.4532L25.168 22.4565L25.1639 22.4572Z" fill="black" fill-opacity="0.88"/>
</svg>
