<svg width="51" height="51" viewBox="0 0 51 51" fill="none" xmlns="http://www.w3.org/2000/svg">
<path d="M26.0833 48.583C15.7493 34.576 10.5833 24.6101 10.5833 18.683C10.5833 14.413 12.2164 10.3179 15.1232 7.29861C18.03 4.27927 21.9725 2.58303 26.0833 2.58303C30.1942 2.58303 34.1367 4.27927 37.0435 7.29861C39.9503 10.3179 41.5833 14.413 41.5833 18.683C41.5833 24.6101 36.4174 34.576 26.0833 48.583ZM26.0833 27.883C28.4324 27.883 30.6852 26.9137 32.3463 25.1884C34.0073 23.4631 34.9405 21.123 34.9405 18.683C34.9405 16.243 34.0073 13.903 32.3463 12.1776C30.6852 10.4523 28.4324 9.48303 26.0833 9.48303C23.7343 9.48303 21.4814 10.4523 19.8204 12.1776C18.1593 13.903 17.2262 16.243 17.2262 18.683C17.2262 21.123 18.1593 23.4631 19.8204 25.1884C21.4814 26.9137 23.7343 27.883 26.0833 27.883Z" fill="#BAE637"/>
<circle cx="26.0833" cy="18.4991" r="11" fill="white"/>
<path fill-rule="evenodd" clip-rule="evenodd" d="M28.9324 16.4001C28.736 16.2037 28.6667 15.6415 29.1886 15.1196C29.7105 14.5977 30.2727 14.6669 30.4691 14.8634C30.6655 15.0598 30.7348 15.6219 30.2128 16.1438C29.6909 16.6658 29.1288 16.5965 28.9324 16.4001ZM28.5396 16.7928C28.0392 16.2923 28.1533 15.3668 28.7945 14.7255C29.4358 14.0843 30.3613 13.9701 30.8618 14.4706C31.3623 14.9711 31.2482 15.8967 30.6069 16.5379C29.9657 17.1792 29.0401 17.2933 28.5396 16.7928Z" fill="black" fill-opacity="0.88"/>
<path fill-rule="evenodd" clip-rule="evenodd" d="M25.6202 19.7122C25.4238 19.5158 25.3545 18.9537 25.8764 18.4318C26.3984 17.9098 26.9605 17.9791 27.1569 18.1755C27.3533 18.3719 27.4226 18.9341 26.9007 19.456C26.3788 19.9779 25.8166 19.9086 25.6202 19.7122ZM25.2275 20.105C24.727 19.6045 24.8411 18.6789 25.4823 18.0377C26.1236 17.3964 27.0492 17.2823 27.5496 17.7828C28.0501 18.2833 27.936 19.2088 27.2948 19.8501C26.6535 20.4913 25.728 20.6055 25.2275 20.105Z" fill="black" fill-opacity="0.88"/>
<path fill-rule="evenodd" clip-rule="evenodd" d="M22.2659 23.0665C22.0695 22.8701 22.0003 22.3079 22.5222 21.786C23.0441 21.2641 23.6063 21.3334 23.8027 21.5298C23.9991 21.7262 24.0683 22.2883 23.5464 22.8103C23.0245 23.3322 22.4623 23.2629 22.2659 23.0665ZM21.8732 23.4592C21.3727 22.9587 21.4868 22.0332 22.1281 21.3919C22.7693 20.7507 23.6949 20.6366 24.1954 21.137C24.6959 21.6375 24.5818 22.5631 23.9405 23.2043C23.2993 23.8456 22.3737 23.9597 21.8732 23.4592Z" fill="black" fill-opacity="0.88"/>
<path fill-rule="evenodd" clip-rule="evenodd" d="M30.6858 12.7486C29.7951 12.7275 28.6532 12.8566 27.9262 13.5593C27.4854 13.9853 27.1712 14.6508 26.9706 15.1786C26.8682 15.4478 26.7915 15.6919 26.7404 15.8688C26.7272 15.9143 26.7157 15.9554 26.7059 15.9915C26.6743 15.9992 26.6388 16.0081 26.6001 16.0182C26.4326 16.0616 26.2015 16.1275 25.9462 16.2171C25.4466 16.3925 24.8123 16.6731 24.4013 17.0842C23.9902 17.4952 23.7096 18.1295 23.5342 18.6292C23.4446 18.8844 23.3787 19.1156 23.3352 19.283C23.3253 19.3212 23.3165 19.3562 23.3089 19.3875C23.2787 19.3955 23.2451 19.4046 23.2083 19.4148C23.0437 19.4606 22.816 19.5292 22.5635 19.6205C22.0679 19.7996 21.4399 20.0787 21.0182 20.4675C20.2343 21.1903 20.0353 22.3995 20.0094 23.3541C19.9961 23.8424 20.0278 24.2877 20.0625 24.6105C20.0799 24.7722 20.0982 24.9039 20.1122 24.9958C20.1192 25.0418 20.1252 25.0778 20.1294 25.1027L20.1345 25.1316L20.1359 25.1394L20.1363 25.1417L20.1673 25.2071L20.6374 24.737C20.6439 24.7794 20.6337 24.7153 20.6374 24.737C20.6245 24.6522 20.6321 24.7055 20.6157 24.5529C20.5828 24.2472 20.5532 23.8278 20.5655 23.3712C20.5909 22.4362 20.7905 21.4355 21.3961 20.8772C21.7324 20.5671 22.2719 20.3181 22.7542 20.1438C22.9906 20.0583 23.2045 19.9939 23.3592 19.9508C23.4364 19.9294 23.4986 19.9133 23.5411 19.9027C23.5623 19.8974 23.5786 19.8934 23.5893 19.8909L23.6012 19.8881L23.6039 19.8875C23.6039 19.8875 23.6761 19.8761 23.7482 19.804C23.8034 19.7488 23.8146 19.6726 23.8146 19.6726L23.8153 19.6694L23.8178 19.6574C23.8201 19.6465 23.8238 19.63 23.8287 19.6085C23.8385 19.5656 23.8535 19.5027 23.8738 19.4246C23.9144 19.2682 23.9759 19.0524 24.0592 18.8151C24.2296 18.3296 24.4771 17.7965 24.7953 17.4783C25.1136 17.1601 25.6467 16.9125 26.1321 16.7421C26.3694 16.6588 26.5853 16.5973 26.7417 16.5567C26.8197 16.5364 26.8827 16.5214 26.9256 16.5116C26.9471 16.5067 26.9636 16.5031 26.9744 16.5007L26.9864 16.4982C26.9864 16.4982 27.0859 16.4677 27.1333 16.4189C27.18 16.3707 27.208 16.2728 27.208 16.2728C27.2108 16.2612 27.2152 16.2436 27.2211 16.2208C27.2329 16.175 27.2509 16.1081 27.2749 16.0251C27.3229 15.8589 27.395 15.6297 27.4907 15.3779C27.6862 14.8636 27.9654 14.2965 28.3135 13.96C28.8688 13.4234 29.8063 13.2843 30.6746 13.3048C31.0984 13.3148 31.485 13.3623 31.7661 13.4074C31.9064 13.43 31.8596 13.4217 31.9372 13.4377L32.3975 12.9775L32.3438 12.953L32.3429 12.9528L32.3408 12.9523L32.3334 12.9505L32.3068 12.9444C32.2838 12.9392 32.2505 12.9318 32.2082 12.9231C32.1234 12.9055 32.0019 12.8821 31.8525 12.8581C31.5541 12.8102 31.1415 12.7594 30.6858 12.7486Z" fill="black" fill-opacity="0.88"/>
<path fill-rule="evenodd" clip-rule="evenodd" d="M32.6258 14.6886C32.6469 15.5793 32.5178 16.7212 31.8151 17.4483C31.3891 17.889 30.7236 18.2032 30.1958 18.4038C29.9266 18.5062 29.6825 18.5829 29.5056 18.634C29.4601 18.6472 29.419 18.6587 29.3829 18.6685C29.3752 18.7001 29.3663 18.7356 29.3563 18.7744C29.3128 18.9418 29.2469 19.1729 29.1573 19.4282C28.9819 19.9278 28.7013 20.5621 28.2902 20.9732C27.8792 21.3842 27.2449 21.6649 26.7453 21.8403C26.49 21.9299 26.2589 21.9957 26.0914 22.0392C26.0532 22.0491 26.0182 22.0579 25.9869 22.0655C25.9789 22.0957 25.9698 22.1293 25.9596 22.1661C25.9138 22.3307 25.8452 22.5584 25.7539 22.8109C25.5748 23.3065 25.2957 23.9345 24.9069 24.3562C24.1841 25.1401 22.9749 25.3391 22.0203 25.365C21.5321 25.3783 21.0867 25.3467 20.7639 25.3119C20.6022 25.2945 20.4705 25.2763 20.3786 25.2622C20.3326 25.2552 20.2966 25.2493 20.2717 25.245L20.2429 25.2399L20.1673 25.2071L20.2327 25.2381C20.2327 25.2381 20.1752 25.2085 20.1673 25.2071L20.6374 24.737C20.6591 24.7407 20.595 24.7306 20.6374 24.737C20.7222 24.75 20.669 24.7423 20.8215 24.7588C21.1272 24.7916 21.5466 24.8213 22.0032 24.8089C22.9382 24.7835 23.9389 24.5839 24.4973 23.9783C24.8073 23.642 25.0563 23.1026 25.2306 22.6202C25.3161 22.3838 25.3805 22.1699 25.4236 22.0152C25.4451 21.938 25.4611 21.8758 25.4717 21.8333C25.477 21.8121 25.481 21.7958 25.4835 21.7851L25.4863 21.7732L25.4869 21.7705C25.4869 21.7705 25.4983 21.6984 25.5704 21.6263C25.6256 21.571 25.7019 21.5598 25.7019 21.5598L25.7051 21.5592L25.7171 21.5566C25.7279 21.5543 25.7444 21.5506 25.7659 21.5457C25.8088 21.5359 25.8718 21.5209 25.9498 21.5006C26.1062 21.46 26.322 21.3985 26.5593 21.3152C27.0448 21.1448 27.5779 20.8973 27.8961 20.5791C28.2144 20.2609 28.4619 19.7277 28.6323 19.2423C28.7156 19.005 28.7771 18.7891 28.8177 18.6327C28.838 18.5547 28.853 18.4918 28.8628 18.4488C28.8677 18.4273 28.8713 18.4108 28.8737 18.4L28.8762 18.388C28.8762 18.388 28.9067 18.2885 28.9555 18.2411C29.0037 18.1944 29.1016 18.1664 29.1016 18.1664C29.1132 18.1636 29.1308 18.1592 29.1536 18.1533C29.1994 18.1415 29.2663 18.1235 29.3493 18.0995C29.5155 18.0515 29.7447 17.9794 29.9965 17.8837C30.5108 17.6882 31.0779 17.409 31.4144 17.0609C31.951 16.5056 32.0901 15.5681 32.0696 14.6999C32.0596 14.2761 32.0121 13.8894 31.967 13.6083C31.9444 13.4681 31.9533 13.5153 31.9372 13.4377L32.3975 12.9775L32.4214 13.0306L32.4216 13.0315L32.4221 13.0337L32.4239 13.041L32.43 13.0677C32.4352 13.0906 32.4426 13.1239 32.4513 13.1663C32.4689 13.251 32.4923 13.3725 32.5163 13.5219C32.5642 13.8203 32.615 14.233 32.6258 14.6886Z" fill="black" fill-opacity="0.88"/>
</svg>
